<svg xmlns="http://www.w3.org/2000/svg" xmlns:xlink="http://www.w3.org/1999/xlink" width="1069" zoomAndPan="magnify" viewBox="0 0 801.75 440.999989" height="588" preserveAspectRatio="xMidYMid meet" version="1.2"><defs><clipPath id="bf3f0c7591"><path d="M 8.863281 177 L 792.636719 177 L 792.636719 326 L 8.863281 326 Z M 8.863281 177 "/></clipPath><clipPath id="860e481ec4"><path d="M 8.863281 144 L 792.636719 144 L 792.636719 325 L 8.863281 325 Z M 8.863281 144 "/></clipPath><clipPath id="5feafff2c4"><path d="M 8.863281 236 L 79 236 L 79 365 L 8.863281 365 Z M 8.863281 236 "/></clipPath><clipPath id="6a209f36d3"><path d="M 8.863281 258 L 79 258 L 79 366 L 8.863281 366 Z M 8.863281 258 "/></clipPath><clipPath id="be869d1dad"><path d="M 8.863281 228 L 246 228 L 246 338 L 8.863281 338 Z M 8.863281 228 "/></clipPath><clipPath id="be10cc1d37"><path d="M 182 160 L 792.636719 160 L 792.636719 297 L 182 297 Z M 182 160 "/></clipPath><clipPath id="f1c6ca9dcf"><path d="M 8.863281 226 L 171 226 L 171 299 L 8.863281 299 Z M 8.863281 226 "/></clipPath><clipPath id="8087b6e7b9"><path d="M 473 141 L 792.636719 141 L 792.636719 307 L 473 307 Z M 473 141 "/></clipPath><clipPath id="dd9f725385"><path d="M 767 208 L 792.636719 208 L 792.636719 225 L 767 225 Z M 767 208 "/></clipPath><clipPath id="7fdf67526e"><path d="M 788 189 L 792.636719 189 L 792.636719 249 L 788 249 Z M 788 189 "/></clipPath><clipPath id="7179384f9a"><path d="M 32 356 L 45 356 L 45 367.835938 L 32 367.835938 Z M 32 356 "/></clipPath><clipPath id="a9713dadce"><path d="M 530 128.660156 L 539 128.660156 L 539 137 L 530 137 Z M 530 128.660156 "/></clipPath><clipPath id="a4d134aaa7"><path d="M 785 242 L 792.636719 242 L 792.636719 252 L 785 252 Z M 785 242 "/></clipPath></defs><g id="4c2a026a8d"><g clip-rule="nonzero" clip-path="url(#bf3f0c7591)"><path style=" stroke:none;fill-rule:nonzero;fill:#f0a93e;fill-opacity:1;" d="M 714.519531 325.164062 L 692.1875 284.964844 L 644.734375 305.210938 L 638.992188 264.390625 L 558.320312 203.105469 L 474.042969 286.121094 L 473.738281 286.050781 L 309.1875 248.03125 L 309.074219 247.925781 L 286 226.289062 L 239.503906 238.523438 L 266.089844 260.78125 L 244.832031 303.296875 L 184.117188 268.785156 L 184.183594 268.390625 L 198.792969 183.171875 L 169.847656 230.808594 L 111.390625 201.886719 L 137.550781 242.652344 L 88.449219 324.914062 L 19.605469 240.28125 L -15.546875 264.238281 L -16.191406 263.292969 L 19.832031 238.742188 L 88.304688 322.921875 L 136.207031 242.671875 L 108.195312 199.03125 L 169.414062 229.320312 L 200.9375 177.4375 L 185.378906 268.1875 L 244.347656 301.707031 L 264.660156 261.078125 L 237.074219 237.980469 L 286.320312 225.019531 L 309.746094 246.984375 L 473.691406 284.867188 L 558.222656 201.59375 L 558.617188 201.894531 L 640.0625 263.765625 L 645.65625 303.570312 L 692.6875 283.507812 L 714.445312 322.671875 L 767.9375 211.285156 L 792.058594 246.636719 L 853.300781 189.960938 L 854.078125 190.800781 L 791.859375 248.378906 L 768.109375 213.570312 Z M 714.519531 325.164062 "/></g><g clip-rule="nonzero" clip-path="url(#860e481ec4)"><path style=" stroke:none;fill-rule:nonzero;fill:#f0a93e;fill-opacity:1;" d="M 88.507812 324.636719 L 88.105469 324.421875 L -10.152344 272.144531 L -9.617188 271.132812 L 88.242188 323.199219 L 122.707031 283.722656 L 122.878906 283.679688 L 184.402344 267.984375 L 201.515625 243.265625 L 201.902344 243.367188 L 265.101562 260.265625 L 285.835938 225.078125 L 286.167969 225.082031 L 447.207031 226.96875 L 547.652344 144.214844 L 613.46875 229.015625 L 692.40625 283.519531 L 838.835938 163.484375 L 839.5625 164.367188 L 692.464844 284.953125 L 612.675781 229.855469 L 612.617188 229.785156 L 547.472656 145.847656 L 447.613281 228.121094 L 286.484375 226.230469 L 265.644531 261.59375 L 265.226562 261.480469 L 201.996094 244.578125 L 185.097656 268.988281 L 123.335938 284.746094 Z M 88.507812 324.636719 "/></g><g clip-rule="nonzero" clip-path="url(#5feafff2c4)"><path style=" stroke:none;fill-rule:nonzero;fill:#f0a93e;fill-opacity:1;" d="M 38.234375 364.902344 L 6.28125 290.445312 L 7.332031 289.992188 L 38.363281 362.296875 L 65.160156 313.628906 L 76.675781 266.015625 L -0.949219 237.84375 L -0.558594 236.769531 L 78.03125 265.289062 L 66.238281 314.046875 L 66.203125 314.117188 Z M 38.234375 364.902344 "/></g><g clip-rule="nonzero" clip-path="url(#6a209f36d3)"><path style=" stroke:none;fill-rule:nonzero;fill:#f0a93e;fill-opacity:1;" d="M 38.117188 365.640625 L 19.921875 272.445312 L 3.105469 274.722656 L 2.953125 273.589844 L 19.324219 271.367188 L 8.589844 259.738281 L 9.433594 258.964844 L 20.707031 271.179688 L 78.242188 263.378906 Z M 21.058594 272.289062 L 38.484375 361.5625 L 76.464844 264.777344 Z M 21.058594 272.289062 "/></g><g clip-rule="nonzero" clip-path="url(#be869d1dad)"><path style=" stroke:none;fill-rule:nonzero;fill:#f0a93e;fill-opacity:1;" d="M 121.664062 337.3125 L 120.789062 336.660156 L -7.390625 241.230469 L -6.710938 240.3125 L 120.597656 335.089844 L 122.449219 284.136719 L 135.59375 243.433594 L 183.671875 267.3125 L 168.59375 228.992188 L 202.125 243.457031 L 243.8125 300.472656 L 237.71875 238.308594 L 238.859375 238.195312 L 245.363281 304.527344 L 201.386719 244.386719 L 170.667969 231.132812 L 185.824219 269.660156 L 136.277344 245.046875 L 123.589844 284.335938 Z M 121.664062 337.3125 "/></g><g clip-rule="nonzero" clip-path="url(#be10cc1d37)"><path style=" stroke:none;fill-rule:nonzero;fill:#f0a93e;fill-opacity:1;" d="M 273.9375 296.246094 L 264.945312 261.542969 L 182.386719 269.285156 L 235.9375 235.917969 L 201.894531 244.476562 L 201.613281 243.367188 L 242.742188 233.027344 L 187.109375 267.691406 L 265.808594 260.3125 L 274.445312 293.640625 L 308.980469 247.203125 L 355.039062 160.558594 L 355.570312 160.941406 L 447.535156 226.929688 L 558.300781 201.753906 L 558.457031 201.808594 L 681.09375 243.945312 L 767.90625 211.859375 L 767.996094 211.855469 L 809.148438 209.964844 L 809.203125 211.109375 L 768.136719 212.996094 L 681.105469 245.160156 L 558.238281 202.941406 L 447.285156 228.160156 L 355.4375 162.253906 L 309.949219 247.816406 L 309.925781 247.851562 Z M 273.9375 296.246094 "/></g><g clip-rule="nonzero" clip-path="url(#f1c6ca9dcf)"><path style=" stroke:none;fill-rule:nonzero;fill:#f0a93e;fill-opacity:1;" d="M 110.992188 298.882812 L 110.109375 298.15625 L 121.3125 284.597656 L -9.957031 268.113281 L -9.816406 266.976562 L 119.214844 283.183594 L 75.777344 264.011719 L 135.71875 243.710938 L 170.824219 226.492188 L 123.457031 283.800781 L 126.828125 285.289062 L 122.660156 284.765625 Z M 78.929688 264.148438 L 122.367188 283.320312 L 166.554688 229.859375 L 136.15625 244.769531 L 136.121094 244.78125 Z M 78.929688 264.148438 "/></g><path style=" stroke:none;fill-rule:nonzero;fill:#f0a93e;fill-opacity:1;" d="M 244.972656 302.925781 L 244.207031 302.074219 L 277.566406 272.046875 L 285.710938 224.910156 L 321.664062 236.371094 L 380.910156 197.601562 L 446.261719 227.738281 L 446.351562 227.921875 L 474.96875 286.449219 L 473.691406 286.042969 L 321.832031 237.628906 L 306.035156 247.964844 L 278.625 272.636719 L 274.753906 295.042969 L 273.625 294.847656 L 277.25 273.871094 Z M 323.066406 236.820312 L 472.765625 284.542969 L 445.414062 228.609375 L 381.007812 198.90625 Z M 286.613281 226.398438 L 278.941406 270.8125 L 305.339844 247.050781 L 305.375 247.027344 L 320.429688 237.179688 Z M 286.613281 226.398438 "/><path style=" stroke:none;fill-rule:nonzero;fill:#f0a93e;fill-opacity:1;" d="M 265.1875 260.382812 L 310.222656 244.636719 L 310.601562 245.71875 L 265.566406 261.464844 Z M 265.1875 260.382812 "/><g clip-rule="nonzero" clip-path="url(#8087b6e7b9)"><path style=" stroke:none;fill-rule:nonzero;fill:#f0a93e;fill-opacity:1;" d="M 643.671875 306.878906 L 614.777344 231.332031 L 558.386719 200.832031 L 558.339844 200.566406 L 547.933594 144.5625 L 474.375 285.757812 L 473.359375 285.230469 L 548.453125 141.089844 L 559.414062 200.085938 L 615.691406 230.527344 L 644.199219 305.054688 L 805.472656 184.253906 L 806.160156 185.171875 Z M 643.671875 306.878906 "/></g><path style=" stroke:none;fill-rule:nonzero;fill:#f0a93e;fill-opacity:1;" d="M 446.566406 224.789062 L 445.738281 224 L 533.617188 131.679688 L 559.125 203.417969 L 558.046875 203.800781 L 533.164062 133.816406 Z M 446.566406 224.789062 "/><path style=" stroke:none;fill-rule:nonzero;fill:#f0a93e;fill-opacity:1;" d="M 690.285156 286.480469 L 643.496094 266.074219 L 643.957031 265.023438 L 688.65625 284.523438 L 680.277344 248.277344 L 642.089844 265.199219 L 613.90625 230.8125 L 614.792969 230.085938 L 642.421875 263.796875 L 681.082031 246.671875 Z M 690.285156 286.480469 "/><path style=" stroke:none;fill-rule:nonzero;fill:#f0a93e;fill-opacity:1;" d="M 642.550781 263.386719 L 642.378906 262.253906 L 730.171875 249.054688 L 758.804688 221.253906 L 759.601562 222.074219 L 730.707031 250.128906 Z M 642.550781 263.386719 "/><path style=" stroke:none;fill-rule:nonzero;fill:#f0a93e;fill-opacity:1;" d="M 730.425781 250.164062 L 730.375 250.160156 L 679.203125 244.492188 L 679.273438 243.351562 L 788.609375 245.03125 L 788.640625 246.171875 Z M 691.296875 244.679688 L 730.453125 249.015625 L 774.949219 245.964844 Z M 691.296875 244.679688 "/><path style=" stroke:none;fill-rule:nonzero;fill:#f0a93e;fill-opacity:1;" d="M 716.21875 326.734375 L 729.855469 249.46875 L 730.980469 249.664062 L 717.34375 326.933594 Z M 716.21875 326.734375 "/><g clip-rule="nonzero" clip-path="url(#dd9f725385)"><path style=" stroke:none;fill-rule:nonzero;fill:#f0a93e;fill-opacity:1;" d="M 767.296875 209.875 L 767.527344 208.75 L 841.851562 223.867188 L 841.625 224.988281 Z M 767.296875 209.875 "/></g><g clip-rule="nonzero" clip-path="url(#7fdf67526e)"><path style=" stroke:none;fill-rule:nonzero;fill:#f0a93e;fill-opacity:1;" d="M 788.089844 248.457031 L 820.214844 189.039062 L 821.222656 189.582031 L 789.097656 249 Z M 788.089844 248.457031 "/></g><path style=" stroke:none;fill-rule:nonzero;fill:#f0a93e;fill-opacity:1;" d="M 30.425781 242.664062 C 30.425781 243.089844 30.386719 243.511719 30.300781 243.933594 C 30.21875 244.351562 30.09375 244.757812 29.929688 245.152344 C 29.769531 245.546875 29.566406 245.921875 29.328125 246.277344 C 29.09375 246.632812 28.824219 246.960938 28.519531 247.265625 C 28.21875 247.566406 27.890625 247.835938 27.535156 248.074219 C 27.179688 248.3125 26.804688 248.511719 26.410156 248.675781 C 26.015625 248.839844 25.605469 248.960938 25.1875 249.046875 C 24.769531 249.128906 24.34375 249.171875 23.917969 249.171875 C 23.492188 249.171875 23.066406 249.128906 22.648438 249.046875 C 22.230469 248.960938 21.820312 248.839844 21.425781 248.675781 C 21.03125 248.511719 20.65625 248.3125 20.300781 248.074219 C 19.945312 247.835938 19.617188 247.566406 19.316406 247.265625 C 19.011719 246.960938 18.742188 246.632812 18.503906 246.277344 C 18.269531 245.921875 18.066406 245.546875 17.902344 245.152344 C 17.742188 244.757812 17.617188 244.351562 17.535156 243.933594 C 17.449219 243.511719 17.410156 243.089844 17.410156 242.664062 C 17.410156 242.234375 17.449219 241.8125 17.535156 241.390625 C 17.617188 240.972656 17.742188 240.566406 17.902344 240.171875 C 18.066406 239.777344 18.269531 239.402344 18.503906 239.046875 C 18.742188 238.691406 19.011719 238.363281 19.316406 238.058594 C 19.617188 237.757812 19.945312 237.488281 20.300781 237.25 C 20.65625 237.011719 21.03125 236.8125 21.425781 236.648438 C 21.820312 236.484375 22.230469 236.363281 22.648438 236.277344 C 23.066406 236.195312 23.492188 236.152344 23.917969 236.152344 C 24.34375 236.152344 24.769531 236.195312 25.1875 236.277344 C 25.605469 236.363281 26.015625 236.484375 26.410156 236.648438 C 26.804688 236.8125 27.179688 237.011719 27.535156 237.25 C 27.890625 237.488281 28.21875 237.757812 28.519531 238.058594 C 28.824219 238.363281 29.09375 238.691406 29.328125 239.046875 C 29.566406 239.402344 29.769531 239.777344 29.929688 240.171875 C 30.09375 240.566406 30.21875 240.972656 30.300781 241.390625 C 30.386719 241.8125 30.425781 242.234375 30.425781 242.664062 Z M 30.425781 242.664062 "/><g clip-rule="nonzero" clip-path="url(#7179384f9a)"><path style=" stroke:none;fill-rule:nonzero;fill:#f0a93e;fill-opacity:1;" d="M 44.285156 362.128906 C 44.285156 362.503906 44.246094 362.871094 44.175781 363.234375 C 44.101562 363.601562 43.996094 363.957031 43.851562 364.300781 C 43.710938 364.644531 43.535156 364.96875 43.328125 365.277344 C 43.121094 365.589844 42.886719 365.875 42.625 366.136719 C 42.359375 366.402344 42.074219 366.636719 41.765625 366.84375 C 41.453125 367.050781 41.128906 367.222656 40.785156 367.367188 C 40.441406 367.507812 40.085938 367.617188 39.722656 367.6875 C 39.355469 367.761719 38.988281 367.796875 38.617188 367.796875 C 38.242188 367.796875 37.875 367.761719 37.507812 367.6875 C 37.144531 367.617188 36.789062 367.507812 36.445312 367.367188 C 36.101562 367.222656 35.777344 367.050781 35.464844 366.84375 C 35.15625 366.636719 34.871094 366.402344 34.609375 366.136719 C 34.34375 365.875 34.109375 365.589844 33.902344 365.277344 C 33.695312 364.96875 33.519531 364.644531 33.378906 364.300781 C 33.238281 363.957031 33.128906 363.601562 33.054688 363.234375 C 32.984375 362.871094 32.949219 362.503906 32.949219 362.128906 C 32.949219 361.757812 32.984375 361.390625 33.054688 361.023438 C 33.128906 360.660156 33.238281 360.304688 33.378906 359.960938 C 33.519531 359.617188 33.695312 359.289062 33.902344 358.980469 C 34.109375 358.671875 34.34375 358.386719 34.609375 358.121094 C 34.871094 357.859375 35.15625 357.625 35.464844 357.417969 C 35.777344 357.210938 36.101562 357.035156 36.445312 356.894531 C 36.789062 356.75 37.144531 356.644531 37.507812 356.570312 C 37.875 356.5 38.242188 356.460938 38.617188 356.460938 C 38.988281 356.460938 39.355469 356.5 39.722656 356.570312 C 40.085938 356.644531 40.441406 356.75 40.785156 356.894531 C 41.128906 357.035156 41.453125 357.210938 41.765625 357.417969 C 42.074219 357.625 42.359375 357.859375 42.625 358.121094 C 42.886719 358.386719 43.121094 358.671875 43.328125 358.980469 C 43.535156 359.289062 43.710938 359.617188 43.851562 359.960938 C 43.996094 360.304688 44.101562 360.660156 44.175781 361.023438 C 44.246094 361.390625 44.285156 361.757812 44.285156 362.128906 Z M 44.285156 362.128906 "/></g><path style=" stroke:none;fill-rule:nonzero;fill:#f0a93e;fill-opacity:1;" d="M 25.582031 271.554688 C 25.582031 271.878906 25.550781 272.199219 25.488281 272.515625 C 25.421875 272.832031 25.328125 273.140625 25.207031 273.441406 C 25.082031 273.738281 24.929688 274.023438 24.75 274.292969 C 24.570312 274.5625 24.367188 274.8125 24.136719 275.039062 C 23.90625 275.269531 23.660156 275.472656 23.390625 275.652344 C 23.121094 275.832031 22.835938 275.984375 22.535156 276.109375 C 22.238281 276.234375 21.929688 276.328125 21.613281 276.390625 C 21.292969 276.453125 20.972656 276.484375 20.648438 276.484375 C 20.328125 276.484375 20.003906 276.453125 19.6875 276.390625 C 19.371094 276.328125 19.0625 276.234375 18.761719 276.109375 C 18.464844 275.984375 18.179688 275.832031 17.910156 275.652344 C 17.640625 275.472656 17.390625 275.269531 17.164062 275.039062 C 16.933594 274.8125 16.730469 274.5625 16.550781 274.292969 C 16.371094 274.023438 16.21875 273.738281 16.09375 273.441406 C 15.96875 273.140625 15.875 272.832031 15.8125 272.515625 C 15.75 272.199219 15.71875 271.878906 15.71875 271.554688 C 15.71875 271.230469 15.75 270.910156 15.8125 270.589844 C 15.875 270.273438 15.96875 269.964844 16.09375 269.667969 C 16.21875 269.367188 16.371094 269.082031 16.550781 268.8125 C 16.730469 268.542969 16.933594 268.296875 17.164062 268.066406 C 17.390625 267.835938 17.640625 267.632812 17.910156 267.453125 C 18.179688 267.273438 18.464844 267.121094 18.761719 266.996094 C 19.0625 266.875 19.371094 266.78125 19.6875 266.71875 C 20.003906 266.652344 20.328125 266.621094 20.648438 266.621094 C 20.972656 266.621094 21.292969 266.652344 21.613281 266.71875 C 21.929688 266.78125 22.238281 266.875 22.535156 266.996094 C 22.835938 267.121094 23.121094 267.273438 23.390625 267.453125 C 23.660156 267.632812 23.90625 267.835938 24.136719 268.066406 C 24.367188 268.296875 24.570312 268.542969 24.75 268.8125 C 24.929688 269.082031 25.082031 269.367188 25.207031 269.667969 C 25.328125 269.964844 25.421875 270.273438 25.488281 270.589844 C 25.550781 270.910156 25.582031 271.230469 25.582031 271.554688 Z M 25.582031 271.554688 "/><path style=" stroke:none;fill-rule:nonzero;fill:#f0a93e;fill-opacity:1;" d="M 71.371094 313.421875 C 71.371094 313.859375 71.328125 314.296875 71.242188 314.730469 C 71.15625 315.164062 71.027344 315.582031 70.859375 315.992188 C 70.691406 316.398438 70.484375 316.785156 70.238281 317.152344 C 69.992188 317.519531 69.714844 317.859375 69.402344 318.171875 C 69.089844 318.484375 68.75 318.761719 68.382812 319.007812 C 68.015625 319.253906 67.628906 319.457031 67.222656 319.628906 C 66.816406 319.796875 66.394531 319.925781 65.960938 320.011719 C 65.53125 320.097656 65.09375 320.140625 64.652344 320.140625 C 64.210938 320.140625 63.773438 320.097656 63.339844 320.011719 C 62.90625 319.925781 62.488281 319.796875 62.078125 319.628906 C 61.671875 319.457031 61.285156 319.25 60.917969 319.007812 C 60.550781 318.761719 60.210938 318.484375 59.898438 318.171875 C 59.589844 317.859375 59.308594 317.519531 59.066406 317.152344 C 58.820312 316.785156 58.613281 316.398438 58.445312 315.992188 C 58.273438 315.582031 58.148438 315.164062 58.0625 314.730469 C 57.976562 314.296875 57.933594 313.859375 57.933594 313.421875 C 57.933594 312.980469 57.976562 312.542969 58.0625 312.109375 C 58.148438 311.675781 58.273438 311.257812 58.445312 310.847656 C 58.613281 310.441406 58.820312 310.054688 59.066406 309.6875 C 59.308594 309.320312 59.589844 308.980469 59.898438 308.667969 C 60.210938 308.355469 60.550781 308.078125 60.917969 307.832031 C 61.285156 307.589844 61.671875 307.382812 62.078125 307.210938 C 62.488281 307.042969 62.90625 306.917969 63.339844 306.828125 C 63.773438 306.742188 64.210938 306.699219 64.652344 306.699219 C 65.09375 306.699219 65.53125 306.742188 65.960938 306.828125 C 66.394531 306.917969 66.816406 307.042969 67.222656 307.210938 C 67.628906 307.382812 68.015625 307.589844 68.382812 307.832031 C 68.75 308.078125 69.089844 308.355469 69.402344 308.667969 C 69.714844 308.980469 69.992188 309.320312 70.238281 309.6875 C 70.484375 310.054688 70.691406 310.441406 70.859375 310.847656 C 71.027344 311.257812 71.15625 311.675781 71.242188 312.109375 C 71.328125 312.542969 71.371094 312.980469 71.371094 313.421875 Z M 71.371094 313.421875 "/><path style=" stroke:none;fill-rule:nonzero;fill:#f0a93e;fill-opacity:1;" d="M 92.816406 322.800781 C 92.816406 323.167969 92.78125 323.527344 92.710938 323.886719 C 92.640625 324.246094 92.535156 324.59375 92.394531 324.929688 C 92.253906 325.265625 92.082031 325.589844 91.878906 325.890625 C 91.675781 326.195312 91.445312 326.476562 91.1875 326.734375 C 90.929688 326.992188 90.648438 327.222656 90.34375 327.425781 C 90.042969 327.628906 89.722656 327.800781 89.382812 327.941406 C 89.046875 328.082031 88.699219 328.1875 88.339844 328.257812 C 87.980469 328.328125 87.621094 328.363281 87.253906 328.363281 C 86.890625 328.363281 86.527344 328.328125 86.167969 328.257812 C 85.808594 328.1875 85.460938 328.082031 85.125 327.941406 C 84.789062 327.800781 84.464844 327.628906 84.164062 327.425781 C 83.859375 327.222656 83.578125 326.992188 83.320312 326.734375 C 83.0625 326.476562 82.832031 326.195312 82.628906 325.890625 C 82.425781 325.589844 82.253906 325.265625 82.113281 324.929688 C 81.972656 324.59375 81.867188 324.246094 81.796875 323.886719 C 81.726562 323.527344 81.691406 323.167969 81.691406 322.800781 C 81.691406 322.433594 81.726562 322.074219 81.796875 321.714844 C 81.867188 321.355469 81.972656 321.007812 82.113281 320.671875 C 82.253906 320.335938 82.425781 320.011719 82.628906 319.710938 C 82.832031 319.40625 83.0625 319.125 83.320312 318.867188 C 83.578125 318.609375 83.859375 318.378906 84.164062 318.175781 C 84.464844 317.972656 84.789062 317.800781 85.125 317.660156 C 85.460938 317.519531 85.808594 317.414062 86.167969 317.34375 C 86.527344 317.273438 86.890625 317.238281 87.253906 317.238281 C 87.621094 317.238281 87.980469 317.273438 88.339844 317.34375 C 88.699219 317.414062 89.046875 317.519531 89.382812 317.660156 C 89.722656 317.800781 90.042969 317.972656 90.34375 318.175781 C 90.648438 318.378906 90.929688 318.609375 91.1875 318.867188 C 91.445312 319.125 91.675781 319.40625 91.878906 319.710938 C 92.082031 320.011719 92.253906 320.335938 92.394531 320.671875 C 92.535156 321.007812 92.640625 321.355469 92.710938 321.714844 C 92.78125 322.074219 92.816406 322.433594 92.816406 322.800781 Z M 92.816406 322.800781 "/><path style=" stroke:none;fill-rule:nonzero;fill:#f0a93e;fill-opacity:1;" d="M 85.644531 265.863281 C 85.644531 266.433594 85.589844 267 85.476562 267.5625 C 85.367188 268.125 85.203125 268.667969 84.984375 269.199219 C 84.761719 269.726562 84.496094 270.226562 84.175781 270.703125 C 83.859375 271.179688 83.5 271.621094 83.09375 272.023438 C 82.6875 272.429688 82.25 272.789062 81.773438 273.109375 C 81.296875 273.425781 80.796875 273.695312 80.265625 273.914062 C 79.738281 274.132812 79.195312 274.296875 78.632812 274.410156 C 78.070312 274.519531 77.503906 274.578125 76.933594 274.578125 C 76.359375 274.578125 75.792969 274.519531 75.234375 274.410156 C 74.671875 274.296875 74.125 274.132812 73.597656 273.914062 C 73.070312 273.695312 72.566406 273.425781 72.089844 273.109375 C 71.617188 272.789062 71.175781 272.429688 70.769531 272.023438 C 70.367188 271.621094 70.003906 271.179688 69.6875 270.703125 C 69.371094 270.226562 69.101562 269.726562 68.882812 269.199219 C 68.664062 268.667969 68.5 268.125 68.386719 267.5625 C 68.273438 267 68.21875 266.433594 68.21875 265.863281 C 68.21875 265.292969 68.273438 264.722656 68.386719 264.164062 C 68.5 263.601562 68.664062 263.058594 68.882812 262.527344 C 69.101562 262 69.371094 261.496094 69.6875 261.023438 C 70.003906 260.546875 70.367188 260.105469 70.769531 259.703125 C 71.175781 259.296875 71.617188 258.9375 72.089844 258.617188 C 72.566406 258.300781 73.070312 258.03125 73.597656 257.8125 C 74.125 257.59375 74.671875 257.429688 75.234375 257.316406 C 75.792969 257.207031 76.359375 257.148438 76.933594 257.148438 C 77.503906 257.148438 78.070312 257.207031 78.632812 257.316406 C 79.195312 257.429688 79.738281 257.59375 80.265625 257.8125 C 80.796875 258.03125 81.296875 258.300781 81.773438 258.617188 C 82.25 258.9375 82.6875 259.296875 83.09375 259.703125 C 83.5 260.105469 83.859375 260.546875 84.175781 261.023438 C 84.496094 261.496094 84.761719 262 84.984375 262.527344 C 85.203125 263.058594 85.367188 263.601562 85.476562 264.164062 C 85.589844 264.722656 85.644531 265.292969 85.644531 265.863281 Z M 85.644531 265.863281 "/><path style=" stroke:none;fill-rule:nonzero;fill:#f0a93e;fill-opacity:1;" d="M 128.269531 285.601562 C 128.269531 285.953125 128.234375 286.300781 128.167969 286.644531 C 128.097656 286.988281 127.996094 287.324219 127.863281 287.648438 C 127.726562 287.972656 127.5625 288.28125 127.367188 288.574219 C 127.171875 288.867188 126.949219 289.136719 126.703125 289.386719 C 126.453125 289.632812 126.183594 289.855469 125.890625 290.050781 C 125.597656 290.246094 125.289062 290.410156 124.964844 290.546875 C 124.640625 290.679688 124.304688 290.78125 123.960938 290.851562 C 123.617188 290.917969 123.265625 290.953125 122.914062 290.953125 C 122.5625 290.953125 122.214844 290.917969 121.871094 290.851562 C 121.527344 290.78125 121.191406 290.679688 120.867188 290.546875 C 120.542969 290.410156 120.234375 290.246094 119.941406 290.050781 C 119.648438 289.855469 119.378906 289.632812 119.128906 289.386719 C 118.882812 289.136719 118.660156 288.867188 118.464844 288.574219 C 118.269531 288.28125 118.105469 287.972656 117.96875 287.648438 C 117.835938 287.324219 117.734375 286.988281 117.664062 286.644531 C 117.597656 286.300781 117.5625 285.953125 117.5625 285.601562 C 117.5625 285.25 117.597656 284.902344 117.664062 284.554688 C 117.734375 284.210938 117.835938 283.875 117.96875 283.550781 C 118.105469 283.226562 118.269531 282.917969 118.464844 282.625 C 118.660156 282.332031 118.882812 282.0625 119.128906 281.816406 C 119.378906 281.566406 119.648438 281.34375 119.941406 281.148438 C 120.234375 280.953125 120.542969 280.789062 120.867188 280.652344 C 121.191406 280.519531 121.527344 280.417969 121.871094 280.347656 C 122.214844 280.28125 122.5625 280.246094 122.914062 280.246094 C 123.265625 280.246094 123.617188 280.28125 123.960938 280.347656 C 124.304688 280.417969 124.640625 280.519531 124.964844 280.652344 C 125.289062 280.789062 125.597656 280.953125 125.890625 281.148438 C 126.183594 281.34375 126.453125 281.566406 126.703125 281.816406 C 126.949219 282.0625 127.171875 282.332031 127.367188 282.625 C 127.5625 282.917969 127.726562 283.226562 127.863281 283.550781 C 127.996094 283.875 128.097656 284.210938 128.167969 284.554688 C 128.234375 284.902344 128.269531 285.25 128.269531 285.601562 Z M 128.269531 285.601562 "/><path style=" stroke:none;fill-rule:nonzero;fill:#f0a93e;fill-opacity:1;" d="M 141.601562 243.238281 C 141.601562 243.628906 141.5625 244.015625 141.488281 244.398438 C 141.410156 244.777344 141.300781 245.148438 141.148438 245.511719 C 141 245.871094 140.820312 246.210938 140.601562 246.535156 C 140.386719 246.859375 140.140625 247.160156 139.863281 247.433594 C 139.589844 247.710938 139.289062 247.957031 138.964844 248.171875 C 138.640625 248.386719 138.300781 248.570312 137.941406 248.71875 C 137.582031 248.867188 137.210938 248.980469 136.828125 249.058594 C 136.445312 249.132812 136.058594 249.171875 135.671875 249.171875 C 135.28125 249.171875 134.894531 249.132812 134.511719 249.058594 C 134.132812 248.980469 133.761719 248.867188 133.402344 248.71875 C 133.039062 248.570312 132.699219 248.386719 132.375 248.171875 C 132.050781 247.957031 131.75 247.710938 131.476562 247.433594 C 131.199219 247.160156 130.953125 246.859375 130.738281 246.535156 C 130.523438 246.210938 130.339844 245.871094 130.191406 245.511719 C 130.042969 245.148438 129.929688 244.777344 129.851562 244.398438 C 129.777344 244.015625 129.738281 243.628906 129.738281 243.238281 C 129.738281 242.851562 129.777344 242.464844 129.851562 242.082031 C 129.929688 241.699219 130.042969 241.328125 130.191406 240.96875 C 130.339844 240.609375 130.523438 240.269531 130.738281 239.945312 C 130.953125 239.621094 131.199219 239.320312 131.476562 239.046875 C 131.75 238.769531 132.050781 238.523438 132.375 238.308594 C 132.699219 238.09375 133.039062 237.910156 133.402344 237.761719 C 133.761719 237.609375 134.132812 237.5 134.511719 237.421875 C 134.894531 237.347656 135.28125 237.308594 135.671875 237.308594 C 136.058594 237.308594 136.445312 237.347656 136.828125 237.421875 C 137.210938 237.5 137.582031 237.609375 137.941406 237.761719 C 138.300781 237.910156 138.640625 238.09375 138.964844 238.308594 C 139.289062 238.523438 139.589844 238.769531 139.863281 239.046875 C 140.140625 239.320312 140.386719 239.621094 140.601562 239.945312 C 140.820312 240.269531 141 240.609375 141.148438 240.96875 C 141.300781 241.328125 141.410156 241.699219 141.488281 242.082031 C 141.5625 242.464844 141.601562 242.851562 141.601562 243.238281 Z M 141.601562 243.238281 "/><path style=" stroke:none;fill-rule:nonzero;fill:#f0a93e;fill-opacity:1;" d="M 174.667969 228.59375 C 174.667969 228.980469 174.632812 229.363281 174.554688 229.742188 C 174.480469 230.121094 174.371094 230.488281 174.222656 230.84375 C 174.074219 231.203125 173.894531 231.539062 173.679688 231.859375 C 173.464844 232.183594 173.21875 232.480469 172.949219 232.75 C 172.675781 233.023438 172.378906 233.269531 172.054688 233.484375 C 171.734375 233.699219 171.398438 233.878906 171.039062 234.027344 C 170.683594 234.175781 170.316406 234.285156 169.9375 234.359375 C 169.558594 234.4375 169.175781 234.472656 168.789062 234.472656 C 168.40625 234.472656 168.023438 234.4375 167.644531 234.359375 C 167.265625 234.285156 166.898438 234.175781 166.542969 234.027344 C 166.183594 233.878906 165.847656 233.699219 165.523438 233.484375 C 165.203125 233.269531 164.90625 233.023438 164.632812 232.75 C 164.359375 232.480469 164.117188 232.183594 163.902344 231.859375 C 163.6875 231.539062 163.507812 231.203125 163.359375 230.84375 C 163.210938 230.488281 163.101562 230.121094 163.027344 229.742188 C 162.949219 229.363281 162.914062 228.980469 162.914062 228.59375 C 162.914062 228.210938 162.949219 227.828125 163.027344 227.449219 C 163.101562 227.070312 163.210938 226.703125 163.359375 226.347656 C 163.507812 225.988281 163.6875 225.652344 163.902344 225.328125 C 164.117188 225.007812 164.359375 224.710938 164.632812 224.4375 C 164.90625 224.164062 165.203125 223.921875 165.523438 223.707031 C 165.847656 223.492188 166.183594 223.3125 166.542969 223.164062 C 166.898438 223.015625 167.265625 222.90625 167.644531 222.828125 C 168.023438 222.753906 168.40625 222.71875 168.789062 222.71875 C 169.175781 222.71875 169.558594 222.753906 169.9375 222.828125 C 170.316406 222.90625 170.683594 223.015625 171.039062 223.164062 C 171.398438 223.3125 171.734375 223.492188 172.054688 223.707031 C 172.378906 223.921875 172.675781 224.164062 172.949219 224.4375 C 173.21875 224.710938 173.464844 225.007812 173.679688 225.328125 C 173.894531 225.652344 174.074219 225.988281 174.222656 226.347656 C 174.371094 226.703125 174.480469 227.070312 174.554688 227.449219 C 174.632812 227.828125 174.667969 228.210938 174.667969 228.59375 Z M 174.667969 228.59375 "/><path style=" stroke:none;fill-rule:nonzero;fill:#f0a93e;fill-opacity:1;" d="M 194.003906 266.816406 C 194.003906 267.449219 193.941406 268.078125 193.816406 268.703125 C 193.695312 269.324219 193.511719 269.929688 193.269531 270.515625 C 193.023438 271.101562 192.726562 271.660156 192.375 272.1875 C 192.023438 272.714844 191.621094 273.203125 191.171875 273.652344 C 190.722656 274.101562 190.234375 274.5 189.707031 274.855469 C 189.179688 275.207031 188.625 275.503906 188.035156 275.746094 C 187.449219 275.988281 186.847656 276.171875 186.222656 276.296875 C 185.601562 276.421875 184.972656 276.484375 184.335938 276.484375 C 183.703125 276.484375 183.074219 276.421875 182.453125 276.296875 C 181.828125 276.171875 181.226562 275.988281 180.636719 275.746094 C 180.050781 275.503906 179.496094 275.207031 178.96875 274.855469 C 178.4375 274.5 177.949219 274.101562 177.503906 273.652344 C 177.054688 273.203125 176.652344 272.714844 176.300781 272.1875 C 175.949219 271.660156 175.648438 271.101562 175.40625 270.515625 C 175.164062 269.929688 174.980469 269.324219 174.855469 268.703125 C 174.734375 268.078125 174.671875 267.449219 174.671875 266.816406 C 174.671875 266.183594 174.734375 265.554688 174.855469 264.929688 C 174.980469 264.308594 175.164062 263.703125 175.40625 263.117188 C 175.648438 262.53125 175.949219 261.972656 176.300781 261.445312 C 176.652344 260.917969 177.054688 260.429688 177.503906 259.980469 C 177.949219 259.53125 178.4375 259.132812 178.96875 258.777344 C 179.496094 258.425781 180.050781 258.128906 180.636719 257.886719 C 181.226562 257.644531 181.828125 257.460938 182.453125 257.335938 C 183.074219 257.210938 183.703125 257.148438 184.335938 257.148438 C 184.972656 257.148438 185.601562 257.210938 186.222656 257.335938 C 186.847656 257.460938 187.449219 257.644531 188.035156 257.886719 C 188.625 258.128906 189.179688 258.425781 189.707031 258.777344 C 190.234375 259.132812 190.722656 259.53125 191.171875 259.980469 C 191.621094 260.429688 192.023438 260.917969 192.375 261.445312 C 192.726562 261.972656 193.023438 262.53125 193.269531 263.117188 C 193.511719 263.703125 193.695312 264.308594 193.816406 264.929688 C 193.941406 265.554688 194.003906 266.183594 194.003906 266.816406 Z M 194.003906 266.816406 "/><path style=" stroke:none;fill-rule:nonzero;fill:#f0a93e;fill-opacity:1;" d="M 113.59375 200.859375 C 113.59375 201.191406 113.558594 201.519531 113.496094 201.84375 C 113.429688 202.167969 113.335938 202.484375 113.207031 202.789062 C 113.082031 203.09375 112.925781 203.386719 112.742188 203.660156 C 112.558594 203.9375 112.351562 204.191406 112.117188 204.425781 C 111.882812 204.660156 111.628906 204.867188 111.351562 205.050781 C 111.078125 205.234375 110.785156 205.390625 110.480469 205.515625 C 110.175781 205.644531 109.859375 205.738281 109.535156 205.804688 C 109.210938 205.867188 108.882812 205.902344 108.550781 205.902344 C 108.222656 205.902344 107.894531 205.867188 107.570312 205.804688 C 107.246094 205.738281 106.929688 205.644531 106.625 205.515625 C 106.320312 205.390625 106.027344 205.234375 105.753906 205.050781 C 105.476562 204.867188 105.222656 204.660156 104.988281 204.425781 C 104.753906 204.191406 104.546875 203.9375 104.363281 203.660156 C 104.179688 203.386719 104.023438 203.09375 103.898438 202.789062 C 103.769531 202.484375 103.675781 202.167969 103.609375 201.84375 C 103.546875 201.519531 103.511719 201.191406 103.511719 200.859375 C 103.511719 200.53125 103.546875 200.203125 103.609375 199.878906 C 103.675781 199.554688 103.769531 199.238281 103.898438 198.933594 C 104.023438 198.628906 104.179688 198.335938 104.363281 198.0625 C 104.546875 197.785156 104.753906 197.53125 104.988281 197.296875 C 105.222656 197.0625 105.476562 196.855469 105.753906 196.671875 C 106.027344 196.488281 106.320312 196.332031 106.625 196.207031 C 106.929688 196.078125 107.246094 195.984375 107.570312 195.917969 C 107.894531 195.855469 108.222656 195.820312 108.550781 195.820312 C 108.882812 195.820312 109.210938 195.855469 109.535156 195.917969 C 109.859375 195.984375 110.175781 196.078125 110.480469 196.207031 C 110.785156 196.332031 111.078125 196.488281 111.351562 196.671875 C 111.628906 196.855469 111.882812 197.0625 112.117188 197.296875 C 112.351562 197.53125 112.558594 197.785156 112.742188 198.0625 C 112.925781 198.335938 113.082031 198.628906 113.207031 198.933594 C 113.335938 199.238281 113.429688 199.554688 113.496094 199.878906 C 113.558594 200.203125 113.59375 200.53125 113.59375 200.859375 Z M 113.59375 200.859375 "/><path style=" stroke:none;fill-rule:nonzero;fill:#f0a93e;fill-opacity:1;" d="M 205.117188 180.617188 C 205.117188 180.914062 205.085938 181.207031 205.027344 181.5 C 204.972656 181.789062 204.886719 182.070312 204.773438 182.347656 C 204.660156 182.621094 204.519531 182.878906 204.355469 183.125 C 204.191406 183.371094 204.003906 183.601562 203.792969 183.808594 C 203.582031 184.019531 203.355469 184.207031 203.109375 184.371094 C 202.863281 184.535156 202.601562 184.675781 202.328125 184.789062 C 202.054688 184.902344 201.773438 184.988281 201.480469 185.046875 C 201.191406 185.105469 200.898438 185.132812 200.601562 185.132812 C 200.304688 185.132812 200.011719 185.105469 199.71875 185.046875 C 199.429688 184.988281 199.148438 184.902344 198.871094 184.789062 C 198.597656 184.675781 198.339844 184.535156 198.09375 184.371094 C 197.847656 184.207031 197.617188 184.019531 197.410156 183.808594 C 197.199219 183.601562 197.011719 183.371094 196.847656 183.125 C 196.683594 182.878906 196.542969 182.621094 196.429688 182.347656 C 196.316406 182.070312 196.230469 181.789062 196.171875 181.5 C 196.113281 181.207031 196.085938 180.914062 196.085938 180.617188 C 196.085938 180.320312 196.113281 180.027344 196.171875 179.738281 C 196.230469 179.445312 196.316406 179.164062 196.429688 178.890625 C 196.542969 178.617188 196.683594 178.355469 196.847656 178.109375 C 197.011719 177.863281 197.199219 177.636719 197.410156 177.425781 C 197.617188 177.214844 197.847656 177.027344 198.09375 176.863281 C 198.339844 176.699219 198.597656 176.558594 198.871094 176.445312 C 199.148438 176.332031 199.429688 176.246094 199.71875 176.191406 C 200.011719 176.132812 200.304688 176.101562 200.601562 176.101562 C 200.898438 176.101562 201.191406 176.132812 201.480469 176.191406 C 201.773438 176.246094 202.054688 176.332031 202.328125 176.445312 C 202.601562 176.558594 202.863281 176.699219 203.109375 176.863281 C 203.355469 177.027344 203.582031 177.214844 203.792969 177.425781 C 204.003906 177.636719 204.191406 177.863281 204.355469 178.109375 C 204.519531 178.355469 204.660156 178.617188 204.773438 178.890625 C 204.886719 179.164062 204.972656 179.445312 205.027344 179.738281 C 205.085938 180.027344 205.117188 180.320312 205.117188 180.617188 Z M 205.117188 180.617188 "/><path style=" stroke:none;fill-rule:nonzero;fill:#f0a93e;fill-opacity:1;" d="M 206.585938 244.234375 C 206.585938 244.503906 206.558594 244.769531 206.507812 245.035156 C 206.453125 245.296875 206.375 245.554688 206.273438 245.804688 C 206.171875 246.050781 206.042969 246.289062 205.894531 246.511719 C 205.746094 246.734375 205.574219 246.941406 205.386719 247.132812 C 205.195312 247.320312 204.988281 247.492188 204.765625 247.640625 C 204.542969 247.789062 204.304688 247.914062 204.058594 248.019531 C 203.808594 248.121094 203.554688 248.199219 203.289062 248.25 C 203.027344 248.304688 202.757812 248.332031 202.492188 248.332031 C 202.222656 248.332031 201.957031 248.304688 201.691406 248.25 C 201.429688 248.199219 201.171875 248.121094 200.925781 248.019531 C 200.675781 247.914062 200.441406 247.789062 200.214844 247.640625 C 199.992188 247.492188 199.785156 247.320312 199.59375 247.132812 C 199.40625 246.941406 199.234375 246.734375 199.085938 246.511719 C 198.9375 246.289062 198.8125 246.050781 198.707031 245.804688 C 198.605469 245.554688 198.527344 245.296875 198.476562 245.035156 C 198.421875 244.769531 198.394531 244.503906 198.394531 244.234375 C 198.394531 243.96875 198.421875 243.699219 198.476562 243.4375 C 198.527344 243.171875 198.605469 242.917969 198.707031 242.667969 C 198.8125 242.421875 198.9375 242.183594 199.085938 241.960938 C 199.234375 241.738281 199.40625 241.53125 199.59375 241.339844 C 199.785156 241.152344 199.992188 240.980469 200.214844 240.832031 C 200.441406 240.683594 200.675781 240.554688 200.925781 240.453125 C 201.171875 240.351562 201.429688 240.273438 201.691406 240.21875 C 201.957031 240.167969 202.222656 240.140625 202.492188 240.140625 C 202.757812 240.140625 203.027344 240.167969 203.289062 240.21875 C 203.554688 240.273438 203.808594 240.351562 204.058594 240.453125 C 204.304688 240.554688 204.542969 240.683594 204.765625 240.832031 C 204.988281 240.980469 205.195312 241.152344 205.386719 241.339844 C 205.574219 241.53125 205.746094 241.738281 205.894531 241.960938 C 206.042969 242.183594 206.171875 242.421875 206.273438 242.667969 C 206.375 242.917969 206.453125 243.171875 206.507812 243.4375 C 206.558594 243.699219 206.585938 243.96875 206.585938 244.234375 Z M 206.585938 244.234375 "/><path style=" stroke:none;fill-rule:nonzero;fill:#f0a93e;fill-opacity:1;" d="M 244.347656 236.570312 C 244.347656 236.875 244.320312 237.179688 244.257812 237.480469 C 244.199219 237.78125 244.109375 238.074219 243.992188 238.359375 C 243.875 238.640625 243.730469 238.910156 243.5625 239.164062 C 243.390625 239.421875 243.199219 239.65625 242.980469 239.875 C 242.765625 240.089844 242.527344 240.285156 242.273438 240.453125 C 242.015625 240.625 241.75 240.769531 241.464844 240.886719 C 241.179688 241.003906 240.890625 241.09375 240.589844 241.152344 C 240.289062 241.210938 239.984375 241.242188 239.675781 241.242188 C 239.371094 241.242188 239.066406 241.210938 238.765625 241.152344 C 238.464844 241.09375 238.171875 241.003906 237.890625 240.886719 C 237.605469 240.769531 237.335938 240.625 237.082031 240.453125 C 236.828125 240.285156 236.589844 240.089844 236.375 239.875 C 236.15625 239.65625 235.960938 239.421875 235.792969 239.164062 C 235.621094 238.910156 235.476562 238.640625 235.359375 238.359375 C 235.242188 238.074219 235.15625 237.78125 235.09375 237.480469 C 235.035156 237.179688 235.003906 236.875 235.003906 236.570312 C 235.003906 236.261719 235.035156 235.960938 235.09375 235.660156 C 235.15625 235.359375 235.242188 235.066406 235.359375 234.78125 C 235.476562 234.5 235.621094 234.230469 235.792969 233.972656 C 235.960938 233.71875 236.15625 233.484375 236.375 233.265625 C 236.589844 233.050781 236.828125 232.855469 237.082031 232.683594 C 237.335938 232.515625 237.605469 232.371094 237.890625 232.253906 C 238.171875 232.136719 238.464844 232.046875 238.765625 231.988281 C 239.066406 231.925781 239.371094 231.898438 239.675781 231.898438 C 239.984375 231.898438 240.289062 231.925781 240.589844 231.988281 C 240.890625 232.046875 241.179688 232.136719 241.464844 232.253906 C 241.75 232.371094 242.015625 232.515625 242.273438 232.683594 C 242.527344 232.855469 242.765625 233.050781 242.980469 233.265625 C 243.199219 233.484375 243.390625 233.71875 243.5625 233.972656 C 243.730469 234.230469 243.875 234.5 243.992188 234.78125 C 244.109375 235.066406 244.199219 235.359375 244.257812 235.660156 C 244.320312 235.960938 244.347656 236.261719 244.347656 236.570312 Z M 244.347656 236.570312 "/><path style=" stroke:none;fill-rule:nonzero;fill:#f0a93e;fill-opacity:1;" d="M 250.738281 301.316406 C 250.738281 301.679688 250.703125 302.039062 250.632812 302.394531 C 250.5625 302.75 250.457031 303.097656 250.320312 303.433594 C 250.179688 303.769531 250.007812 304.085938 249.808594 304.390625 C 249.605469 304.691406 249.375 304.972656 249.121094 305.226562 C 248.863281 305.484375 248.582031 305.714844 248.28125 305.914062 C 247.980469 306.117188 247.660156 306.289062 247.324219 306.425781 C 246.988281 306.566406 246.644531 306.671875 246.289062 306.742188 C 245.929688 306.8125 245.570312 306.847656 245.207031 306.847656 C 244.84375 306.847656 244.484375 306.8125 244.128906 306.742188 C 243.773438 306.671875 243.425781 306.566406 243.089844 306.425781 C 242.757812 306.289062 242.4375 306.117188 242.136719 305.914062 C 241.832031 305.714844 241.554688 305.484375 241.296875 305.226562 C 241.039062 304.972656 240.8125 304.691406 240.609375 304.390625 C 240.40625 304.085938 240.238281 303.769531 240.097656 303.433594 C 239.960938 303.097656 239.855469 302.75 239.785156 302.394531 C 239.710938 302.039062 239.675781 301.679688 239.675781 301.316406 C 239.675781 300.953125 239.710938 300.59375 239.785156 300.238281 C 239.855469 299.882812 239.960938 299.535156 240.097656 299.199219 C 240.238281 298.863281 240.40625 298.546875 240.609375 298.242188 C 240.8125 297.941406 241.039062 297.664062 241.296875 297.40625 C 241.554688 297.148438 241.832031 296.917969 242.136719 296.71875 C 242.4375 296.515625 242.757812 296.34375 243.089844 296.207031 C 243.425781 296.066406 243.773438 295.960938 244.128906 295.890625 C 244.484375 295.820312 244.84375 295.785156 245.207031 295.785156 C 245.570312 295.785156 245.929688 295.820312 246.289062 295.890625 C 246.644531 295.960938 246.988281 296.066406 247.324219 296.207031 C 247.660156 296.34375 247.980469 296.515625 248.28125 296.71875 C 248.582031 296.917969 248.863281 297.148438 249.121094 297.40625 C 249.375 297.664062 249.605469 297.941406 249.808594 298.242188 C 250.007812 298.546875 250.179688 298.863281 250.320312 299.199219 C 250.457031 299.535156 250.5625 299.882812 250.632812 300.238281 C 250.703125 300.59375 250.738281 300.953125 250.738281 301.316406 Z M 250.738281 301.316406 "/><path style=" stroke:none;fill-rule:nonzero;fill:#f0a93e;fill-opacity:1;" d="M 269.78125 263.027344 C 269.78125 263.414062 269.746094 263.796875 269.667969 264.175781 C 269.59375 264.554688 269.484375 264.921875 269.335938 265.277344 C 269.1875 265.632812 269.007812 265.972656 268.792969 266.292969 C 268.578125 266.613281 268.335938 266.910156 268.0625 267.183594 C 267.789062 267.457031 267.492188 267.703125 267.171875 267.914062 C 266.847656 268.128906 266.511719 268.3125 266.152344 268.457031 C 265.796875 268.605469 265.429688 268.71875 265.050781 268.792969 C 264.671875 268.867188 264.289062 268.90625 263.90625 268.90625 C 263.519531 268.90625 263.136719 268.867188 262.757812 268.792969 C 262.378906 268.71875 262.011719 268.605469 261.65625 268.457031 C 261.296875 268.3125 260.960938 268.128906 260.640625 267.914062 C 260.316406 267.703125 260.019531 267.457031 259.746094 267.183594 C 259.476562 266.910156 259.230469 266.613281 259.015625 266.292969 C 258.800781 265.972656 258.621094 265.632812 258.472656 265.277344 C 258.324219 264.921875 258.214844 264.554688 258.140625 264.175781 C 258.0625 263.796875 258.027344 263.414062 258.027344 263.027344 C 258.027344 262.640625 258.0625 262.261719 258.140625 261.882812 C 258.214844 261.503906 258.324219 261.136719 258.472656 260.777344 C 258.621094 260.421875 258.800781 260.082031 259.015625 259.761719 C 259.230469 259.441406 259.476562 259.144531 259.746094 258.871094 C 260.019531 258.597656 260.316406 258.355469 260.640625 258.140625 C 260.960938 257.925781 261.296875 257.746094 261.65625 257.597656 C 262.011719 257.449219 262.378906 257.339844 262.757812 257.261719 C 263.136719 257.1875 263.519531 257.148438 263.90625 257.148438 C 264.289062 257.148438 264.671875 257.1875 265.050781 257.261719 C 265.429688 257.339844 265.796875 257.449219 266.152344 257.597656 C 266.511719 257.746094 266.847656 257.925781 267.171875 258.140625 C 267.492188 258.355469 267.789062 258.597656 268.0625 258.871094 C 268.335938 259.144531 268.578125 259.441406 268.792969 259.761719 C 269.007812 260.082031 269.1875 260.421875 269.335938 260.777344 C 269.484375 261.136719 269.59375 261.503906 269.667969 261.882812 C 269.746094 262.261719 269.78125 262.640625 269.78125 263.027344 Z M 269.78125 263.027344 "/><path style=" stroke:none;fill-rule:nonzero;fill:#f0a93e;fill-opacity:1;" d="M 280.28125 294.3125 C 280.28125 294.660156 280.25 295 280.179688 295.335938 C 280.113281 295.675781 280.015625 296.003906 279.882812 296.324219 C 279.75 296.640625 279.589844 296.945312 279.398438 297.230469 C 279.207031 297.515625 278.988281 297.78125 278.746094 298.027344 C 278.5 298.269531 278.234375 298.488281 277.949219 298.679688 C 277.664062 298.871094 277.359375 299.03125 277.042969 299.164062 C 276.722656 299.296875 276.394531 299.394531 276.054688 299.460938 C 275.71875 299.53125 275.378906 299.5625 275.03125 299.5625 C 274.6875 299.5625 274.347656 299.53125 274.007812 299.460938 C 273.671875 299.394531 273.34375 299.296875 273.023438 299.164062 C 272.703125 299.03125 272.402344 298.871094 272.117188 298.679688 C 271.828125 298.488281 271.5625 298.269531 271.320312 298.027344 C 271.078125 297.78125 270.859375 297.515625 270.667969 297.230469 C 270.476562 296.945312 270.3125 296.640625 270.183594 296.324219 C 270.050781 296.003906 269.949219 295.675781 269.882812 295.335938 C 269.816406 295 269.78125 294.660156 269.78125 294.3125 C 269.78125 293.96875 269.816406 293.628906 269.882812 293.289062 C 269.949219 292.953125 270.050781 292.625 270.183594 292.304688 C 270.3125 291.984375 270.476562 291.683594 270.667969 291.398438 C 270.859375 291.109375 271.078125 290.84375 271.320312 290.601562 C 271.5625 290.359375 271.828125 290.140625 272.117188 289.949219 C 272.402344 289.757812 272.703125 289.59375 273.023438 289.464844 C 273.34375 289.332031 273.671875 289.230469 274.007812 289.164062 C 274.347656 289.097656 274.6875 289.0625 275.03125 289.0625 C 275.378906 289.0625 275.71875 289.097656 276.054688 289.164062 C 276.394531 289.230469 276.722656 289.332031 277.042969 289.464844 C 277.359375 289.59375 277.664062 289.757812 277.949219 289.949219 C 278.234375 290.140625 278.5 290.359375 278.746094 290.601562 C 278.988281 290.84375 279.207031 291.109375 279.398438 291.398438 C 279.589844 291.683594 279.75 291.984375 279.882812 292.304688 C 280.015625 292.625 280.113281 292.953125 280.179688 293.289062 C 280.25 293.628906 280.28125 293.96875 280.28125 294.3125 Z M 280.28125 294.3125 "/><path style=" stroke:none;fill-rule:nonzero;fill:#f0a93e;fill-opacity:1;" d="M 316.816406 246.652344 C 316.816406 247.078125 316.773438 247.5 316.691406 247.921875 C 316.605469 248.339844 316.484375 248.746094 316.320312 249.140625 C 316.15625 249.535156 315.957031 249.910156 315.71875 250.265625 C 315.480469 250.621094 315.210938 250.949219 314.910156 251.253906 C 314.605469 251.554688 314.277344 251.824219 313.921875 252.0625 C 313.566406 252.300781 313.191406 252.5 312.796875 252.664062 C 312.402344 252.828125 311.996094 252.949219 311.574219 253.035156 C 311.15625 253.117188 310.734375 253.160156 310.304688 253.160156 C 309.878906 253.160156 309.457031 253.117188 309.035156 253.035156 C 308.617188 252.949219 308.210938 252.828125 307.816406 252.664062 C 307.421875 252.5 307.046875 252.300781 306.691406 252.0625 C 306.335938 251.824219 306.003906 251.554688 305.703125 251.253906 C 305.402344 250.949219 305.132812 250.621094 304.894531 250.265625 C 304.65625 249.910156 304.457031 249.535156 304.292969 249.140625 C 304.128906 248.746094 304.003906 248.339844 303.921875 247.921875 C 303.839844 247.5 303.796875 247.078125 303.796875 246.652344 C 303.796875 246.222656 303.839844 245.800781 303.921875 245.378906 C 304.003906 244.960938 304.128906 244.554688 304.292969 244.160156 C 304.457031 243.765625 304.65625 243.390625 304.894531 243.035156 C 305.132812 242.679688 305.402344 242.351562 305.703125 242.046875 C 306.003906 241.746094 306.335938 241.476562 306.691406 241.238281 C 307.046875 241 307.421875 240.800781 307.816406 240.636719 C 308.210938 240.472656 308.617188 240.351562 309.035156 240.265625 C 309.457031 240.183594 309.878906 240.140625 310.304688 240.140625 C 310.734375 240.140625 311.15625 240.183594 311.574219 240.265625 C 311.996094 240.351562 312.402344 240.472656 312.796875 240.636719 C 313.191406 240.800781 313.566406 241 313.921875 241.238281 C 314.277344 241.476562 314.605469 241.746094 314.910156 242.046875 C 315.210938 242.351562 315.480469 242.679688 315.71875 243.035156 C 315.957031 243.390625 316.15625 243.765625 316.320312 244.160156 C 316.484375 244.554688 316.605469 244.960938 316.691406 245.378906 C 316.773438 245.800781 316.816406 246.222656 316.816406 246.652344 Z M 316.816406 246.652344 "/><path style=" stroke:none;fill-rule:nonzero;fill:#f0a93e;fill-opacity:1;" d="M 289.324219 226.5 C 289.324219 227.003906 289.226562 227.484375 289.035156 227.949219 C 288.84375 228.414062 288.570312 228.824219 288.214844 229.179688 C 287.859375 229.535156 287.449219 229.808594 286.988281 230 C 286.523438 230.191406 286.039062 230.289062 285.539062 230.289062 C 285.035156 230.289062 284.554688 230.191406 284.089844 230 C 283.625 229.808594 283.214844 229.535156 282.859375 229.179688 C 282.503906 228.824219 282.230469 228.414062 282.039062 227.949219 C 281.847656 227.484375 281.75 227.003906 281.75 226.5 C 281.75 226 281.847656 225.515625 282.039062 225.050781 C 282.230469 224.589844 282.503906 224.179688 282.859375 223.824219 C 283.214844 223.46875 283.625 223.195312 284.089844 223.003906 C 284.554688 222.8125 285.035156 222.714844 285.539062 222.714844 C 286.039062 222.714844 286.523438 222.8125 286.988281 223.003906 C 287.449219 223.195312 287.859375 223.46875 288.214844 223.824219 C 288.570312 224.179688 288.84375 224.589844 289.035156 225.050781 C 289.226562 225.515625 289.324219 226 289.324219 226.5 Z M 289.324219 226.5 "/><path style=" stroke:none;fill-rule:nonzero;fill:#f0a93e;fill-opacity:1;" d="M 363.027344 162.363281 C 363.027344 162.800781 362.988281 163.230469 362.902344 163.65625 C 362.816406 164.082031 362.691406 164.5 362.523438 164.898438 C 362.359375 165.300781 362.152344 165.683594 361.914062 166.046875 C 361.671875 166.40625 361.394531 166.742188 361.089844 167.050781 C 360.78125 167.355469 360.445312 167.632812 360.085938 167.875 C 359.722656 168.113281 359.339844 168.320312 358.9375 168.484375 C 358.539062 168.652344 358.121094 168.777344 357.695312 168.863281 C 357.269531 168.949219 356.839844 168.988281 356.402344 168.988281 C 355.96875 168.988281 355.539062 168.949219 355.109375 168.863281 C 354.683594 168.777344 354.269531 168.652344 353.867188 168.484375 C 353.464844 168.320312 353.085938 168.113281 352.722656 167.875 C 352.359375 167.632812 352.027344 167.355469 351.71875 167.050781 C 351.410156 166.742188 351.136719 166.40625 350.894531 166.046875 C 350.652344 165.683594 350.449219 165.300781 350.28125 164.898438 C 350.117188 164.5 349.992188 164.082031 349.90625 163.65625 C 349.820312 163.230469 349.777344 162.800781 349.777344 162.363281 C 349.777344 161.929688 349.820312 161.5 349.90625 161.070312 C 349.992188 160.644531 350.117188 160.230469 350.28125 159.828125 C 350.449219 159.425781 350.652344 159.046875 350.894531 158.683594 C 351.136719 158.320312 351.410156 157.988281 351.71875 157.679688 C 352.027344 157.371094 352.359375 157.097656 352.722656 156.855469 C 353.085938 156.613281 353.464844 156.410156 353.867188 156.242188 C 354.269531 156.078125 354.683594 155.953125 355.109375 155.867188 C 355.539062 155.78125 355.96875 155.738281 356.402344 155.738281 C 356.839844 155.738281 357.269531 155.78125 357.695312 155.867188 C 358.121094 155.953125 358.539062 156.078125 358.9375 156.242188 C 359.339844 156.410156 359.722656 156.613281 360.085938 156.855469 C 360.445312 157.097656 360.78125 157.371094 361.089844 157.679688 C 361.394531 157.988281 361.671875 158.320312 361.914062 158.683594 C 362.152344 159.046875 362.359375 159.425781 362.523438 159.828125 C 362.691406 160.230469 362.816406 160.644531 362.902344 161.070312 C 362.988281 161.5 363.027344 161.929688 363.027344 162.363281 Z M 363.027344 162.363281 "/><path style=" stroke:none;fill-rule:nonzero;fill:#f0a93e;fill-opacity:1;" d="M 385.652344 198.011719 C 385.652344 198.359375 385.621094 198.703125 385.550781 199.046875 C 385.484375 199.386719 385.382812 199.71875 385.25 200.039062 C 385.117188 200.363281 384.953125 200.667969 384.761719 200.957031 C 384.566406 201.246094 384.347656 201.515625 384.101562 201.761719 C 383.855469 202.007812 383.585938 202.226562 383.296875 202.417969 C 383.007812 202.613281 382.703125 202.777344 382.382812 202.910156 C 382.058594 203.042969 381.730469 203.144531 381.386719 203.210938 C 381.046875 203.277344 380.703125 203.3125 380.355469 203.3125 C 380.003906 203.3125 379.660156 203.277344 379.320312 203.210938 C 378.976562 203.144531 378.648438 203.042969 378.324219 202.910156 C 378.003906 202.777344 377.699219 202.613281 377.410156 202.417969 C 377.121094 202.226562 376.851562 202.007812 376.605469 201.761719 C 376.359375 201.515625 376.140625 201.246094 375.945312 200.957031 C 375.753906 200.667969 375.589844 200.363281 375.457031 200.039062 C 375.324219 199.71875 375.222656 199.386719 375.15625 199.046875 C 375.085938 198.703125 375.054688 198.359375 375.054688 198.011719 C 375.054688 197.664062 375.085938 197.320312 375.15625 196.976562 C 375.222656 196.636719 375.324219 196.304688 375.457031 195.984375 C 375.589844 195.660156 375.753906 195.355469 375.945312 195.066406 C 376.140625 194.777344 376.359375 194.511719 376.605469 194.265625 C 376.851562 194.019531 377.121094 193.796875 377.410156 193.605469 C 377.699219 193.410156 378.003906 193.246094 378.324219 193.113281 C 378.648438 192.980469 378.976562 192.882812 379.320312 192.8125 C 379.660156 192.746094 380.003906 192.710938 380.355469 192.710938 C 380.703125 192.710938 381.046875 192.746094 381.386719 192.8125 C 381.730469 192.882812 382.058594 192.980469 382.382812 193.113281 C 382.703125 193.246094 383.007812 193.410156 383.296875 193.605469 C 383.585938 193.796875 383.855469 194.019531 384.101562 194.265625 C 384.347656 194.511719 384.566406 194.777344 384.761719 195.066406 C 384.953125 195.355469 385.117188 195.660156 385.25 195.984375 C 385.382812 196.304688 385.484375 196.636719 385.550781 196.976562 C 385.621094 197.320312 385.652344 197.664062 385.652344 198.011719 Z M 385.652344 198.011719 "/><path style=" stroke:none;fill-rule:nonzero;fill:#f0a93e;fill-opacity:1;" d="M 458.117188 226.601562 C 458.117188 227.367188 458.042969 228.125 457.894531 228.875 C 457.746094 229.625 457.523438 230.351562 457.230469 231.058594 C 456.9375 231.765625 456.578125 232.4375 456.15625 233.074219 C 455.730469 233.710938 455.246094 234.300781 454.707031 234.839844 C 454.164062 235.382812 453.574219 235.863281 452.941406 236.289062 C 452.304688 236.714844 451.632812 237.074219 450.925781 237.367188 C 450.21875 237.660156 449.488281 237.878906 448.738281 238.03125 C 447.988281 238.179688 447.230469 238.253906 446.464844 238.253906 C 445.699219 238.253906 444.941406 238.179688 444.191406 238.03125 C 443.441406 237.878906 442.714844 237.660156 442.007812 237.367188 C 441.300781 237.074219 440.628906 236.714844 439.992188 236.289062 C 439.355469 235.863281 438.765625 235.382812 438.226562 234.839844 C 437.683594 234.300781 437.203125 233.710938 436.777344 233.074219 C 436.351562 232.4375 435.992188 231.765625 435.699219 231.058594 C 435.40625 230.351562 435.1875 229.625 435.039062 228.875 C 434.886719 228.125 434.8125 227.367188 434.8125 226.601562 C 434.8125 225.835938 434.886719 225.078125 435.039062 224.328125 C 435.1875 223.578125 435.40625 222.847656 435.699219 222.140625 C 435.992188 221.433594 436.351562 220.761719 436.777344 220.128906 C 437.203125 219.492188 437.683594 218.902344 438.226562 218.363281 C 438.765625 217.820312 439.355469 217.335938 439.992188 216.914062 C 440.628906 216.488281 441.300781 216.128906 442.007812 215.835938 C 442.714844 215.542969 443.441406 215.320312 444.191406 215.171875 C 444.941406 215.023438 445.699219 214.949219 446.464844 214.949219 C 447.230469 214.949219 447.988281 215.023438 448.738281 215.171875 C 449.488281 215.320312 450.21875 215.542969 450.925781 215.835938 C 451.632812 216.128906 452.304688 216.488281 452.941406 216.914062 C 453.574219 217.335938 454.164062 217.820312 454.707031 218.363281 C 455.246094 218.902344 455.730469 219.492188 456.15625 220.128906 C 456.578125 220.761719 456.9375 221.433594 457.230469 222.140625 C 457.523438 222.847656 457.746094 223.578125 457.894531 224.328125 C 458.042969 225.078125 458.117188 225.835938 458.117188 226.601562 Z M 458.117188 226.601562 "/><path style=" stroke:none;fill-rule:nonzero;fill:#f0a93e;fill-opacity:1;" d="M 479.535156 285.65625 C 479.535156 286.050781 479.496094 286.445312 479.417969 286.832031 C 479.339844 287.222656 479.226562 287.601562 479.074219 287.964844 C 478.921875 288.332031 478.738281 288.679688 478.515625 289.011719 C 478.296875 289.339844 478.046875 289.644531 477.765625 289.925781 C 477.484375 290.207031 477.179688 290.457031 476.851562 290.675781 C 476.519531 290.898438 476.171875 291.082031 475.808594 291.234375 C 475.441406 291.386719 475.0625 291.5 474.675781 291.578125 C 474.285156 291.65625 473.890625 291.695312 473.496094 291.695312 C 473.097656 291.695312 472.707031 291.65625 472.316406 291.578125 C 471.929688 291.5 471.550781 291.386719 471.183594 291.234375 C 470.816406 291.082031 470.46875 290.898438 470.140625 290.675781 C 469.808594 290.457031 469.503906 290.207031 469.226562 289.925781 C 468.945312 289.644531 468.695312 289.339844 468.472656 289.011719 C 468.253906 288.679688 468.066406 288.332031 467.914062 287.964844 C 467.765625 287.601562 467.648438 287.222656 467.570312 286.832031 C 467.496094 286.445312 467.457031 286.050781 467.457031 285.65625 C 467.457031 285.257812 467.496094 284.867188 467.570312 284.476562 C 467.648438 284.089844 467.765625 283.710938 467.914062 283.34375 C 468.066406 282.976562 468.253906 282.628906 468.472656 282.300781 C 468.695312 281.96875 468.945312 281.664062 469.226562 281.386719 C 469.503906 281.105469 469.808594 280.855469 470.140625 280.632812 C 470.46875 280.414062 470.816406 280.226562 471.183594 280.074219 C 471.550781 279.925781 471.929688 279.808594 472.316406 279.730469 C 472.707031 279.65625 473.097656 279.617188 473.496094 279.617188 C 473.890625 279.617188 474.285156 279.65625 474.675781 279.730469 C 475.0625 279.808594 475.441406 279.925781 475.808594 280.074219 C 476.171875 280.226562 476.519531 280.414062 476.851562 280.632812 C 477.179688 280.855469 477.484375 281.105469 477.765625 281.386719 C 478.046875 281.664062 478.296875 281.96875 478.515625 282.300781 C 478.738281 282.628906 478.921875 282.976562 479.074219 283.34375 C 479.226562 283.710938 479.339844 284.089844 479.417969 284.476562 C 479.496094 284.867188 479.535156 285.257812 479.535156 285.65625 Z M 479.535156 285.65625 "/><g clip-rule="nonzero" clip-path="url(#a9713dadce)"><path style=" stroke:none;fill-rule:nonzero;fill:#f0a93e;fill-opacity:1;" d="M 538.535156 132.644531 C 538.535156 132.90625 538.511719 133.164062 538.460938 133.421875 C 538.410156 133.679688 538.332031 133.925781 538.234375 134.167969 C 538.132812 134.410156 538.007812 134.640625 537.863281 134.859375 C 537.71875 135.078125 537.554688 135.277344 537.367188 135.464844 C 537.183594 135.648438 536.980469 135.816406 536.761719 135.960938 C 536.546875 136.105469 536.316406 136.230469 536.074219 136.328125 C 535.832031 136.429688 535.582031 136.503906 535.324219 136.554688 C 535.066406 136.605469 534.808594 136.632812 534.546875 136.632812 C 534.285156 136.632812 534.023438 136.605469 533.769531 136.554688 C 533.511719 136.503906 533.261719 136.429688 533.019531 136.328125 C 532.777344 136.230469 532.546875 136.105469 532.328125 135.960938 C 532.113281 135.816406 531.910156 135.648438 531.722656 135.464844 C 531.539062 135.277344 531.375 135.078125 531.226562 134.859375 C 531.082031 134.640625 530.960938 134.410156 530.859375 134.167969 C 530.757812 133.925781 530.683594 133.679688 530.632812 133.421875 C 530.582031 133.164062 530.554688 132.90625 530.554688 132.644531 C 530.554688 132.378906 530.582031 132.121094 530.632812 131.863281 C 530.683594 131.605469 530.757812 131.359375 530.859375 131.117188 C 530.960938 130.875 531.082031 130.644531 531.226562 130.425781 C 531.375 130.207031 531.539062 130.007812 531.722656 129.820312 C 531.910156 129.636719 532.113281 129.46875 532.328125 129.324219 C 532.546875 129.179688 532.777344 129.054688 533.019531 128.957031 C 533.261719 128.855469 533.511719 128.78125 533.769531 128.730469 C 534.023438 128.679688 534.285156 128.652344 534.546875 128.652344 C 534.808594 128.652344 535.066406 128.679688 535.324219 128.730469 C 535.582031 128.78125 535.832031 128.855469 536.074219 128.957031 C 536.316406 129.054688 536.546875 129.179688 536.761719 129.324219 C 536.980469 129.46875 537.183594 129.636719 537.367188 129.820312 C 537.554688 130.007812 537.71875 130.207031 537.863281 130.425781 C 538.007812 130.644531 538.132812 130.875 538.234375 131.117188 C 538.332031 131.359375 538.410156 131.605469 538.460938 131.863281 C 538.511719 132.121094 538.535156 132.378906 538.535156 132.644531 Z M 538.535156 132.644531 "/></g><path style=" stroke:none;fill-rule:nonzero;fill:#f0a93e;fill-opacity:1;" d="M 553.75 144.925781 C 553.75 145.277344 553.714844 145.625 553.644531 145.96875 C 553.578125 146.316406 553.476562 146.648438 553.339844 146.972656 C 553.207031 147.300781 553.042969 147.609375 552.847656 147.898438 C 552.652344 148.191406 552.429688 148.464844 552.179688 148.710938 C 551.933594 148.960938 551.660156 149.183594 551.367188 149.378906 C 551.078125 149.574219 550.769531 149.738281 550.445312 149.871094 C 550.117188 150.007812 549.785156 150.109375 549.4375 150.175781 C 549.09375 150.246094 548.746094 150.28125 548.394531 150.28125 C 548.042969 150.28125 547.695312 150.246094 547.351562 150.175781 C 547.003906 150.109375 546.671875 150.007812 546.347656 149.871094 C 546.019531 149.738281 545.710938 149.574219 545.421875 149.378906 C 545.128906 149.183594 544.859375 148.960938 544.609375 148.710938 C 544.359375 148.464844 544.136719 148.191406 543.941406 147.898438 C 543.746094 147.609375 543.582031 147.300781 543.449219 146.972656 C 543.3125 146.648438 543.210938 146.316406 543.144531 145.96875 C 543.074219 145.625 543.042969 145.277344 543.042969 144.925781 C 543.042969 144.574219 543.074219 144.226562 543.144531 143.882812 C 543.210938 143.535156 543.3125 143.203125 543.449219 142.878906 C 543.582031 142.550781 543.746094 142.242188 543.941406 141.953125 C 544.136719 141.660156 544.359375 141.390625 544.609375 141.140625 C 544.859375 140.890625 545.128906 140.667969 545.421875 140.472656 C 545.710938 140.277344 546.019531 140.113281 546.347656 139.980469 C 546.671875 139.84375 547.003906 139.742188 547.351562 139.675781 C 547.695312 139.605469 548.042969 139.570312 548.394531 139.570312 C 548.746094 139.570312 549.09375 139.605469 549.4375 139.675781 C 549.785156 139.742188 550.117188 139.84375 550.445312 139.980469 C 550.769531 140.113281 551.078125 140.277344 551.367188 140.472656 C 551.660156 140.667969 551.933594 140.890625 552.179688 141.140625 C 552.429688 141.390625 552.652344 141.660156 552.847656 141.953125 C 553.042969 142.242188 553.207031 142.550781 553.339844 142.878906 C 553.476562 143.203125 553.578125 143.535156 553.644531 143.882812 C 553.714844 144.226562 553.75 144.574219 553.75 144.925781 Z M 553.75 144.925781 "/><path style=" stroke:none;fill-rule:nonzero;fill:#f0a93e;fill-opacity:1;" d="M 574.667969 203.292969 C 574.667969 203.855469 574.640625 204.414062 574.585938 204.972656 C 574.53125 205.53125 574.449219 206.082031 574.339844 206.632812 C 574.230469 207.183594 574.09375 207.726562 573.929688 208.261719 C 573.769531 208.796875 573.578125 209.324219 573.363281 209.84375 C 573.148438 210.359375 572.910156 210.867188 572.648438 211.359375 C 572.382812 211.855469 572.09375 212.335938 571.785156 212.800781 C 571.472656 213.265625 571.136719 213.71875 570.78125 214.148438 C 570.425781 214.582031 570.050781 215 569.65625 215.394531 C 569.257812 215.789062 568.84375 216.167969 568.410156 216.523438 C 567.976562 216.878906 567.527344 217.210938 567.0625 217.523438 C 566.597656 217.832031 566.117188 218.121094 565.621094 218.386719 C 565.128906 218.648438 564.621094 218.890625 564.105469 219.105469 C 563.585938 219.320312 563.058594 219.507812 562.523438 219.667969 C 561.984375 219.832031 561.441406 219.96875 560.894531 220.078125 C 560.34375 220.1875 559.789062 220.269531 559.230469 220.324219 C 558.675781 220.378906 558.117188 220.40625 557.554688 220.40625 C 556.996094 220.40625 556.433594 220.378906 555.878906 220.324219 C 555.320312 220.269531 554.765625 220.1875 554.214844 220.078125 C 553.667969 219.96875 553.125 219.832031 552.585938 219.667969 C 552.050781 219.507812 551.523438 219.320312 551.007812 219.105469 C 550.488281 218.890625 549.984375 218.648438 549.488281 218.386719 C 548.992188 218.121094 548.515625 217.832031 548.046875 217.523438 C 547.582031 217.210938 547.132812 216.878906 546.699219 216.523438 C 546.265625 216.167969 545.851562 215.789062 545.453125 215.394531 C 545.058594 215 544.683594 214.582031 544.328125 214.148438 C 543.972656 213.71875 543.636719 213.265625 543.328125 212.800781 C 543.015625 212.335938 542.726562 211.855469 542.464844 211.359375 C 542.199219 210.867188 541.960938 210.359375 541.746094 209.84375 C 541.53125 209.324219 541.34375 208.796875 541.179688 208.261719 C 541.015625 207.726562 540.882812 207.183594 540.773438 206.632812 C 540.664062 206.082031 540.578125 205.53125 540.523438 204.972656 C 540.46875 204.414062 540.441406 203.855469 540.441406 203.292969 C 540.441406 202.734375 540.46875 202.175781 540.523438 201.617188 C 540.582031 201.058594 540.664062 200.503906 540.773438 199.957031 C 540.882812 199.40625 541.015625 198.863281 541.179688 198.328125 C 541.34375 197.789062 541.53125 197.261719 541.746094 196.746094 C 541.960938 196.226562 542.199219 195.722656 542.464844 195.226562 C 542.726562 194.734375 543.015625 194.253906 543.328125 193.789062 C 543.636719 193.320312 543.972656 192.871094 544.328125 192.4375 C 544.683594 192.003906 545.058594 191.589844 545.453125 191.195312 C 545.851562 190.796875 546.265625 190.421875 546.699219 190.066406 C 547.132812 189.710938 547.582031 189.378906 548.046875 189.066406 C 548.515625 188.753906 548.992188 188.464844 549.488281 188.203125 C 549.984375 187.9375 550.488281 187.699219 551.007812 187.484375 C 551.523438 187.269531 552.050781 187.082031 552.585938 186.917969 C 553.125 186.757812 553.667969 186.621094 554.214844 186.511719 C 554.765625 186.402344 555.320312 186.320312 555.878906 186.265625 C 556.433594 186.210938 556.996094 186.183594 557.554688 186.183594 C 558.117188 186.183594 558.675781 186.210938 559.230469 186.265625 C 559.789062 186.320312 560.34375 186.402344 560.894531 186.511719 C 561.441406 186.621094 561.984375 186.757812 562.523438 186.917969 C 563.058594 187.082031 563.585938 187.269531 564.105469 187.484375 C 564.621094 187.699219 565.128906 187.9375 565.621094 188.203125 C 566.117188 188.464844 566.597656 188.753906 567.0625 189.066406 C 567.527344 189.378906 567.976562 189.710938 568.410156 190.066406 C 568.84375 190.421875 569.257812 190.796875 569.65625 191.195312 C 570.050781 191.589844 570.425781 192.003906 570.78125 192.4375 C 571.136719 192.871094 571.472656 193.320312 571.785156 193.789062 C 572.09375 194.253906 572.382812 194.734375 572.648438 195.226562 C 572.910156 195.722656 573.148438 196.226562 573.363281 196.746094 C 573.578125 197.261719 573.769531 197.789062 573.929688 198.328125 C 574.09375 198.863281 574.230469 199.40625 574.339844 199.957031 C 574.449219 200.503906 574.53125 201.058594 574.585938 201.617188 C 574.640625 202.175781 574.667969 202.734375 574.667969 203.292969 Z M 574.667969 203.292969 "/><path style=" stroke:none;fill-rule:nonzero;fill:#f0a93e;fill-opacity:1;" d="M 619.617188 230.425781 C 619.617188 230.703125 619.589844 230.976562 619.535156 231.246094 C 619.484375 231.515625 619.402344 231.777344 619.296875 232.03125 C 619.191406 232.289062 619.0625 232.53125 618.910156 232.757812 C 618.757812 232.988281 618.582031 233.199219 618.386719 233.394531 C 618.191406 233.589844 617.980469 233.765625 617.75 233.917969 C 617.523438 234.070312 617.28125 234.199219 617.027344 234.304688 C 616.769531 234.410156 616.507812 234.488281 616.238281 234.542969 C 615.96875 234.597656 615.695312 234.625 615.417969 234.625 C 615.144531 234.625 614.871094 234.597656 614.601562 234.542969 C 614.328125 234.488281 614.066406 234.410156 613.8125 234.304688 C 613.558594 234.199219 613.316406 234.070312 613.085938 233.917969 C 612.859375 233.765625 612.644531 233.589844 612.449219 233.394531 C 612.253906 233.199219 612.082031 232.988281 611.929688 232.757812 C 611.773438 232.53125 611.644531 232.289062 611.539062 232.03125 C 611.433594 231.777344 611.355469 231.515625 611.300781 231.246094 C 611.246094 230.976562 611.222656 230.703125 611.222656 230.425781 C 611.222656 230.152344 611.246094 229.878906 611.300781 229.605469 C 611.355469 229.335938 611.433594 229.074219 611.539062 228.820312 C 611.644531 228.566406 611.773438 228.324219 611.929688 228.09375 C 612.082031 227.863281 612.253906 227.652344 612.449219 227.457031 C 612.644531 227.261719 612.859375 227.089844 613.085938 226.933594 C 613.316406 226.78125 613.558594 226.652344 613.8125 226.546875 C 614.066406 226.441406 614.328125 226.363281 614.601562 226.308594 C 614.871094 226.253906 615.144531 226.226562 615.417969 226.226562 C 615.695312 226.226562 615.96875 226.253906 616.238281 226.308594 C 616.507812 226.363281 616.769531 226.441406 617.027344 226.546875 C 617.28125 226.652344 617.523438 226.78125 617.75 226.933594 C 617.980469 227.089844 618.191406 227.261719 618.386719 227.457031 C 618.582031 227.652344 618.757812 227.863281 618.910156 228.09375 C 619.0625 228.324219 619.191406 228.566406 619.296875 228.820312 C 619.402344 229.074219 619.484375 229.335938 619.539062 229.605469 C 619.589844 229.878906 619.617188 230.152344 619.617188 230.425781 Z M 619.617188 230.425781 "/><path style=" stroke:none;fill-rule:nonzero;fill:#f0a93e;fill-opacity:1;" d="M 734.824219 249.089844 C 734.824219 249.367188 734.796875 249.636719 734.742188 249.910156 C 734.6875 250.179688 734.609375 250.441406 734.503906 250.695312 C 734.398438 250.949219 734.269531 251.191406 734.117188 251.421875 C 733.964844 251.652344 733.789062 251.863281 733.59375 252.058594 C 733.398438 252.253906 733.1875 252.425781 732.957031 252.582031 C 732.730469 252.734375 732.488281 252.863281 732.230469 252.96875 C 731.976562 253.074219 731.714844 253.152344 731.445312 253.207031 C 731.175781 253.261719 730.902344 253.289062 730.625 253.289062 C 730.351562 253.289062 730.078125 253.261719 729.804688 253.207031 C 729.535156 253.152344 729.273438 253.074219 729.019531 252.96875 C 728.765625 252.863281 728.523438 252.734375 728.292969 252.582031 C 728.0625 252.425781 727.851562 252.253906 727.65625 252.058594 C 727.460938 251.863281 727.289062 251.652344 727.132812 251.421875 C 726.980469 251.191406 726.851562 250.949219 726.746094 250.695312 C 726.640625 250.441406 726.5625 250.179688 726.507812 249.910156 C 726.453125 249.636719 726.425781 249.367188 726.425781 249.089844 C 726.425781 248.8125 726.453125 248.539062 726.507812 248.269531 C 726.5625 248 726.640625 247.738281 726.746094 247.484375 C 726.851562 247.226562 726.980469 246.988281 727.132812 246.757812 C 727.289062 246.527344 727.460938 246.316406 727.65625 246.121094 C 727.851562 245.925781 728.0625 245.75 728.292969 245.597656 C 728.523438 245.445312 728.765625 245.316406 729.019531 245.210938 C 729.273438 245.105469 729.535156 245.027344 729.804688 244.972656 C 730.078125 244.917969 730.351562 244.890625 730.625 244.890625 C 730.902344 244.890625 731.175781 244.917969 731.445312 244.972656 C 731.714844 245.027344 731.976562 245.105469 732.230469 245.210938 C 732.488281 245.316406 732.730469 245.445312 732.957031 245.597656 C 733.1875 245.75 733.398438 245.925781 733.59375 246.121094 C 733.789062 246.316406 733.964844 246.527344 734.117188 246.757812 C 734.269531 246.988281 734.398438 247.226562 734.503906 247.484375 C 734.609375 247.738281 734.6875 248 734.742188 248.269531 C 734.796875 248.539062 734.824219 248.8125 734.824219 249.089844 Z M 734.824219 249.089844 "/><path style=" stroke:none;fill-rule:nonzero;fill:#f0a93e;fill-opacity:1;" d="M 644.355469 263.972656 C 644.355469 264.460938 644.261719 264.929688 644.074219 265.378906 C 643.890625 265.828125 643.625 266.226562 643.28125 266.570312 C 642.933594 266.914062 642.539062 267.179688 642.085938 267.367188 C 641.636719 267.554688 641.167969 267.648438 640.683594 267.648438 C 640.195312 267.648438 639.726562 267.554688 639.277344 267.367188 C 638.824219 267.179688 638.429688 266.914062 638.082031 266.570312 C 637.738281 266.226562 637.472656 265.828125 637.289062 265.378906 C 637.101562 264.929688 637.007812 264.460938 637.007812 263.972656 C 637.007812 263.484375 637.101562 263.015625 637.289062 262.566406 C 637.472656 262.117188 637.738281 261.71875 638.082031 261.375 C 638.429688 261.03125 638.824219 260.765625 639.277344 260.578125 C 639.726562 260.390625 640.195312 260.300781 640.683594 260.300781 C 641.167969 260.300781 641.636719 260.390625 642.085938 260.578125 C 642.539062 260.765625 642.933594 261.03125 643.28125 261.375 C 643.625 261.71875 643.890625 262.117188 644.074219 262.566406 C 644.261719 263.015625 644.355469 263.484375 644.355469 263.972656 Z M 644.355469 263.972656 "/><path style=" stroke:none;fill-rule:nonzero;fill:#f0a93e;fill-opacity:1;" d="M 694.640625 285.5 C 694.640625 285.988281 694.546875 286.457031 694.363281 286.90625 C 694.175781 287.355469 693.910156 287.753906 693.566406 288.097656 C 693.21875 288.441406 692.824219 288.707031 692.375 288.894531 C 691.921875 289.082031 691.453125 289.175781 690.96875 289.175781 C 690.480469 289.175781 690.011719 289.082031 689.5625 288.894531 C 689.109375 288.707031 688.714844 288.441406 688.371094 288.097656 C 688.023438 287.753906 687.757812 287.355469 687.574219 286.90625 C 687.386719 286.457031 687.292969 285.988281 687.292969 285.5 C 687.292969 285.011719 687.386719 284.542969 687.574219 284.09375 C 687.757812 283.644531 688.023438 283.246094 688.371094 282.902344 C 688.714844 282.558594 689.109375 282.292969 689.5625 282.105469 C 690.011719 281.917969 690.480469 281.828125 690.96875 281.828125 C 691.453125 281.828125 691.921875 281.917969 692.375 282.105469 C 692.824219 282.292969 693.21875 282.558594 693.566406 282.902344 C 693.910156 283.246094 694.175781 283.644531 694.363281 284.09375 C 694.546875 284.542969 694.640625 285.011719 694.640625 285.5 Z M 694.640625 285.5 "/><path style=" stroke:none;fill-rule:nonzero;fill:#f0a93e;fill-opacity:1;" d="M 649.621094 304.417969 C 649.621094 304.730469 649.589844 305.035156 649.527344 305.339844 C 649.46875 305.644531 649.378906 305.9375 649.261719 306.226562 C 649.140625 306.511719 648.996094 306.785156 648.824219 307.042969 C 648.652344 307.300781 648.457031 307.539062 648.238281 307.757812 C 648.015625 307.976562 647.777344 308.171875 647.519531 308.34375 C 647.261719 308.515625 646.992188 308.660156 646.707031 308.78125 C 646.417969 308.898438 646.125 308.988281 645.820312 309.050781 C 645.515625 309.109375 645.207031 309.140625 644.898438 309.140625 C 644.589844 309.140625 644.28125 309.109375 643.976562 309.050781 C 643.671875 308.988281 643.378906 308.898438 643.09375 308.78125 C 642.804688 308.660156 642.535156 308.515625 642.277344 308.34375 C 642.019531 308.171875 641.78125 307.976562 641.558594 307.757812 C 641.339844 307.539062 641.144531 307.300781 640.972656 307.042969 C 640.800781 306.785156 640.65625 306.511719 640.535156 306.226562 C 640.417969 305.9375 640.328125 305.644531 640.269531 305.339844 C 640.207031 305.035156 640.175781 304.730469 640.175781 304.417969 C 640.175781 304.109375 640.207031 303.800781 640.269531 303.496094 C 640.328125 303.195312 640.417969 302.898438 640.535156 302.613281 C 640.65625 302.324219 640.800781 302.054688 640.972656 301.796875 C 641.144531 301.539062 641.339844 301.300781 641.558594 301.082031 C 641.78125 300.863281 642.019531 300.664062 642.277344 300.492188 C 642.535156 300.320312 642.804688 300.175781 643.09375 300.058594 C 643.378906 299.9375 643.671875 299.847656 643.976562 299.789062 C 644.28125 299.726562 644.589844 299.699219 644.898438 299.699219 C 645.207031 299.699219 645.515625 299.726562 645.820312 299.789062 C 646.125 299.847656 646.417969 299.9375 646.707031 300.058594 C 646.992188 300.175781 647.261719 300.320312 647.519531 300.492188 C 647.777344 300.664062 648.015625 300.863281 648.238281 301.082031 C 648.457031 301.300781 648.652344 301.539062 648.824219 301.796875 C 648.996094 302.054688 649.140625 302.324219 649.261719 302.613281 C 649.378906 302.898438 649.46875 303.195312 649.527344 303.496094 C 649.589844 303.800781 649.621094 304.109375 649.621094 304.417969 Z M 649.621094 304.417969 "/><path style=" stroke:none;fill-rule:nonzero;fill:#f0a93e;fill-opacity:1;" d="M 721.054688 324.996094 C 721.054688 325.304688 721.023438 325.613281 720.964844 325.914062 C 720.902344 326.21875 720.8125 326.515625 720.695312 326.800781 C 720.578125 327.089844 720.429688 327.359375 720.257812 327.617188 C 720.085938 327.875 719.890625 328.113281 719.671875 328.332031 C 719.453125 328.550781 719.214844 328.75 718.957031 328.921875 C 718.699219 329.09375 718.425781 329.238281 718.140625 329.355469 C 717.855469 329.476562 717.558594 329.566406 717.253906 329.625 C 716.949219 329.6875 716.644531 329.714844 716.332031 329.714844 C 716.023438 329.714844 715.71875 329.6875 715.414062 329.625 C 715.109375 329.566406 714.8125 329.476562 714.527344 329.355469 C 714.242188 329.238281 713.96875 329.09375 713.710938 328.921875 C 713.453125 328.75 713.214844 328.550781 712.996094 328.332031 C 712.777344 328.113281 712.582031 327.875 712.410156 327.617188 C 712.234375 327.359375 712.089844 327.089844 711.972656 326.800781 C 711.851562 326.515625 711.765625 326.21875 711.703125 325.914062 C 711.644531 325.613281 711.613281 325.304688 711.613281 324.996094 C 711.613281 324.683594 711.644531 324.378906 711.703125 324.074219 C 711.765625 323.769531 711.851562 323.476562 711.972656 323.1875 C 712.089844 322.902344 712.234375 322.628906 712.410156 322.371094 C 712.582031 322.113281 712.777344 321.875 712.996094 321.65625 C 713.214844 321.4375 713.453125 321.242188 713.710938 321.070312 C 713.96875 320.898438 714.242188 320.753906 714.527344 320.632812 C 714.8125 320.515625 715.109375 320.425781 715.414062 320.363281 C 715.71875 320.304688 716.023438 320.273438 716.332031 320.273438 C 716.644531 320.273438 716.949219 320.304688 717.253906 320.363281 C 717.558594 320.425781 717.855469 320.515625 718.140625 320.632812 C 718.425781 320.753906 718.699219 320.898438 718.957031 321.070312 C 719.214844 321.242188 719.453125 321.4375 719.671875 321.65625 C 719.890625 321.875 720.085938 322.113281 720.257812 322.371094 C 720.429688 322.628906 720.578125 322.902344 720.695312 323.1875 C 720.8125 323.476562 720.902344 323.769531 720.964844 324.074219 C 721.023438 324.378906 721.054688 324.683594 721.054688 324.996094 Z M 721.054688 324.996094 "/><g clip-rule="nonzero" clip-path="url(#a4d134aaa7)"><path style=" stroke:none;fill-rule:nonzero;fill:#f0a93e;fill-opacity:1;" d="M 795.171875 246.757812 C 795.171875 247.066406 795.140625 247.375 795.082031 247.679688 C 795.019531 247.980469 794.929688 248.277344 794.8125 248.5625 C 794.695312 248.851562 794.546875 249.121094 794.375 249.378906 C 794.203125 249.636719 794.007812 249.875 793.789062 250.09375 C 793.570312 250.3125 793.332031 250.511719 793.074219 250.683594 C 792.816406 250.855469 792.542969 251 792.257812 251.117188 C 791.972656 251.238281 791.675781 251.328125 791.371094 251.386719 C 791.066406 251.449219 790.761719 251.476562 790.453125 251.476562 C 790.140625 251.476562 789.835938 251.449219 789.53125 251.386719 C 789.226562 251.328125 788.929688 251.238281 788.644531 251.117188 C 788.359375 251 788.085938 250.855469 787.828125 250.683594 C 787.570312 250.511719 787.332031 250.3125 787.113281 250.09375 C 786.894531 249.875 786.699219 249.636719 786.527344 249.378906 C 786.355469 249.121094 786.207031 248.851562 786.089844 248.5625 C 785.972656 248.277344 785.882812 247.980469 785.820312 247.679688 C 785.761719 247.375 785.730469 247.066406 785.730469 246.757812 C 785.730469 246.445312 785.761719 246.140625 785.820312 245.835938 C 785.882812 245.53125 785.972656 245.238281 786.089844 244.949219 C 786.207031 244.664062 786.355469 244.390625 786.527344 244.132812 C 786.699219 243.875 786.894531 243.636719 787.113281 243.417969 C 787.332031 243.199219 787.570312 243.003906 787.828125 242.832031 C 788.085938 242.660156 788.359375 242.515625 788.644531 242.394531 C 788.929688 242.277344 789.226562 242.1875 789.53125 242.125 C 789.835938 242.066406 790.140625 242.035156 790.453125 242.035156 C 790.761719 242.035156 791.066406 242.066406 791.371094 242.125 C 791.675781 242.1875 791.972656 242.277344 792.257812 242.394531 C 792.542969 242.515625 792.816406 242.660156 793.074219 242.832031 C 793.332031 243.003906 793.570312 243.199219 793.789062 243.417969 C 794.007812 243.636719 794.203125 243.875 794.375 244.132812 C 794.546875 244.390625 794.695312 244.664062 794.8125 244.949219 C 794.929688 245.238281 795.019531 245.53125 795.082031 245.835938 C 795.140625 246.140625 795.171875 246.445312 795.171875 246.757812 Z M 795.171875 246.757812 "/></g><path style=" stroke:none;fill-rule:nonzero;fill:#f0a93e;fill-opacity:1;" d="M 686.558594 245.144531 C 686.558594 245.503906 686.523438 245.859375 686.453125 246.210938 C 686.382812 246.5625 686.28125 246.902344 686.144531 247.234375 C 686.007812 247.566406 685.835938 247.878906 685.636719 248.175781 C 685.4375 248.476562 685.214844 248.75 684.960938 249.003906 C 684.707031 249.257812 684.429688 249.484375 684.132812 249.683594 C 683.835938 249.882812 683.519531 250.050781 683.1875 250.1875 C 682.855469 250.324219 682.515625 250.429688 682.164062 250.5 C 681.8125 250.570312 681.457031 250.605469 681.097656 250.605469 C 680.742188 250.605469 680.386719 250.570312 680.035156 250.5 C 679.683594 250.429688 679.339844 250.324219 679.007812 250.1875 C 678.679688 250.050781 678.363281 249.882812 678.066406 249.683594 C 677.765625 249.484375 677.492188 249.257812 677.238281 249.003906 C 676.984375 248.75 676.757812 248.476562 676.558594 248.175781 C 676.359375 247.878906 676.191406 247.566406 676.054688 247.234375 C 675.917969 246.902344 675.8125 246.5625 675.742188 246.210938 C 675.675781 245.859375 675.640625 245.503906 675.640625 245.144531 C 675.640625 244.785156 675.675781 244.429688 675.742188 244.078125 C 675.8125 243.726562 675.917969 243.386719 676.054688 243.054688 C 676.191406 242.722656 676.359375 242.410156 676.558594 242.109375 C 676.757812 241.8125 676.984375 241.535156 677.238281 241.285156 C 677.492188 241.03125 677.765625 240.804688 678.066406 240.605469 C 678.363281 240.40625 678.679688 240.238281 679.007812 240.101562 C 679.339844 239.960938 679.683594 239.859375 680.035156 239.789062 C 680.386719 239.71875 680.742188 239.683594 681.097656 239.683594 C 681.457031 239.683594 681.8125 239.71875 682.164062 239.789062 C 682.515625 239.859375 682.855469 239.960938 683.1875 240.101562 C 683.519531 240.238281 683.835938 240.40625 684.132812 240.605469 C 684.429688 240.804688 684.707031 241.03125 684.960938 241.285156 C 685.214844 241.535156 685.4375 241.8125 685.636719 242.109375 C 685.835938 242.410156 686.007812 242.722656 686.144531 243.054688 C 686.28125 243.386719 686.382812 243.726562 686.453125 244.078125 C 686.523438 244.429688 686.558594 244.785156 686.558594 245.144531 Z M 686.558594 245.144531 "/><path style=" stroke:none;fill-rule:nonzero;fill:#f0a93e;fill-opacity:1;" d="M 783.140625 210.480469 C 783.140625 211.515625 783.039062 212.539062 782.835938 213.554688 C 782.636719 214.566406 782.335938 215.550781 781.941406 216.507812 C 781.546875 217.460938 781.0625 218.371094 780.484375 219.230469 C 779.910156 220.089844 779.257812 220.882812 778.527344 221.617188 C 777.796875 222.347656 777 223 776.140625 223.574219 C 775.28125 224.148438 774.375 224.632812 773.417969 225.027344 C 772.464844 225.425781 771.480469 225.722656 770.464844 225.925781 C 769.453125 226.125 768.425781 226.226562 767.394531 226.226562 C 766.359375 226.226562 765.335938 226.125 764.320312 225.925781 C 763.308594 225.722656 762.324219 225.425781 761.367188 225.027344 C 760.410156 224.632812 759.503906 224.148438 758.644531 223.574219 C 757.785156 223 756.988281 222.347656 756.257812 221.617188 C 755.527344 220.882812 754.875 220.089844 754.300781 219.230469 C 753.726562 218.371094 753.242188 217.460938 752.84375 216.507812 C 752.449219 215.550781 752.152344 214.566406 751.949219 213.554688 C 751.746094 212.539062 751.644531 211.515625 751.644531 210.480469 C 751.644531 209.445312 751.746094 208.421875 751.949219 207.410156 C 752.152344 206.394531 752.449219 205.410156 752.84375 204.453125 C 753.242188 203.5 753.726562 202.59375 754.300781 201.730469 C 754.875 200.871094 755.527344 200.078125 756.257812 199.347656 C 756.988281 198.613281 757.785156 197.960938 758.644531 197.386719 C 759.503906 196.8125 760.410156 196.328125 761.367188 195.933594 C 762.324219 195.535156 763.308594 195.238281 764.320312 195.035156 C 765.335938 194.835938 766.359375 194.734375 767.394531 194.734375 C 768.425781 194.734375 769.453125 194.835938 770.464844 195.035156 C 771.480469 195.238281 772.464844 195.535156 773.417969 195.933594 C 774.375 196.328125 775.28125 196.8125 776.140625 197.386719 C 777 197.960938 777.796875 198.613281 778.527344 199.347656 C 779.257812 200.078125 779.910156 200.871094 780.484375 201.730469 C 781.0625 202.59375 781.546875 203.5 781.941406 204.453125 C 782.335938 205.410156 782.636719 206.394531 782.835938 207.410156 C 783.039062 208.421875 783.140625 209.445312 783.140625 210.480469 Z M 783.140625 210.480469 "/></g></svg>