<svg xmlns="http://www.w3.org/2000/svg" xmlns:xlink="http://www.w3.org/1999/xlink" width="500" zoomAndPan="magnify" viewBox="0 0 375 374.999991" height="500" preserveAspectRatio="xMidYMid meet" version="1.2"><defs><clipPath id="296a67e0a8"><path d="M 31.363281 124 L 77 124 L 77 261 L 31.363281 261 Z M 31.363281 124 "/></clipPath><clipPath id="9aa582f791"><path d="M 299 124 L 343.363281 124 L 343.363281 261 L 299 261 Z M 299 124 "/></clipPath></defs><g id="c37715ab9c"><path style=" stroke:none;fill-rule:nonzero;fill:#0795ff;fill-opacity:1;" d="M 281.96875 124.425781 L 93.53125 124.425781 C 93.023438 124.425781 92.519531 124.476562 92.019531 124.574219 C 91.523438 124.675781 91.039062 124.820312 90.570312 125.015625 C 90.097656 125.210938 89.652344 125.449219 89.230469 125.730469 C 88.808594 126.015625 88.417969 126.335938 88.058594 126.695312 C 87.699219 127.054688 87.375 127.445312 87.09375 127.871094 C 86.8125 128.292969 86.574219 128.738281 86.378906 129.210938 C 86.183594 129.679688 86.039062 130.164062 85.9375 130.664062 C 85.839844 131.164062 85.789062 131.667969 85.789062 132.175781 L 85.789062 280.484375 C 85.789062 281.058594 85.816406 281.628906 85.875 282.199219 C 85.929688 282.769531 86.015625 283.335938 86.125 283.898438 C 86.238281 284.460938 86.375 285.019531 86.542969 285.566406 C 86.710938 286.117188 86.902344 286.65625 87.121094 287.183594 C 87.339844 287.714844 87.585938 288.234375 87.855469 288.738281 C 88.125 289.246094 88.417969 289.734375 88.738281 290.210938 C 89.054688 290.6875 89.398438 291.148438 89.761719 291.59375 C 90.125 292.035156 90.507812 292.460938 90.914062 292.867188 C 91.320312 293.273438 91.742188 293.65625 92.1875 294.019531 C 92.628906 294.382812 93.089844 294.726562 93.566406 295.042969 C 94.042969 295.363281 94.53125 295.65625 95.039062 295.925781 C 95.542969 296.199219 96.0625 296.441406 96.589844 296.664062 C 97.121094 296.882812 97.660156 297.074219 98.207031 297.242188 C 98.753906 297.40625 99.3125 297.546875 99.871094 297.660156 C 100.433594 297.769531 101 297.855469 101.570312 297.910156 C 102.140625 297.96875 102.714844 297.996094 103.285156 297.996094 L 115.90625 297.996094 C 116.632812 297.996094 117.351562 298.066406 118.066406 298.207031 C 118.777344 298.351562 119.46875 298.558594 120.140625 298.839844 C 120.8125 299.117188 121.453125 299.457031 122.054688 299.863281 C 122.660156 300.265625 123.21875 300.726562 123.734375 301.242188 C 124.246094 301.753906 124.707031 302.316406 125.109375 302.917969 C 125.515625 303.523438 125.855469 304.164062 126.132812 304.835938 C 126.410156 305.507812 126.621094 306.199219 126.765625 306.914062 C 126.90625 307.628906 126.976562 308.347656 126.976562 309.074219 L 126.976562 350.222656 C 126.976562 350.957031 127.007812 351.695312 127.078125 352.429688 C 127.148438 353.164062 127.25 353.894531 127.390625 354.617188 C 127.527344 355.34375 127.699219 356.058594 127.90625 356.765625 C 128.113281 357.472656 128.355469 358.171875 128.625 358.855469 C 128.898438 359.542969 129.203125 360.210938 129.542969 360.867188 C 129.878906 361.523438 130.246094 362.164062 130.640625 362.785156 C 131.039062 363.40625 131.464844 364.007812 131.921875 364.585938 C 132.375 365.167969 132.855469 365.726562 133.363281 366.261719 C 133.871094 366.796875 134.402344 367.304688 134.960938 367.789062 C 135.515625 368.273438 136.09375 368.730469 136.691406 369.160156 C 137.292969 369.589844 137.910156 369.988281 138.546875 370.359375 C 139.1875 370.726562 139.839844 371.066406 140.507812 371.375 C 141.179688 371.683594 141.863281 371.957031 142.558594 372.199219 C 143.253906 372.445312 143.960938 372.652344 144.675781 372.828125 C 145.390625 373.003906 146.113281 373.144531 146.84375 373.25 C 147.574219 373.359375 148.304688 373.429688 149.042969 373.46875 C 149.792969 373.496094 150.542969 373.488281 151.289062 373.4375 C 152.039062 373.390625 152.785156 373.308594 153.527344 373.1875 C 154.265625 373.0625 155 372.90625 155.726562 372.707031 C 156.449219 372.511719 157.164062 372.28125 157.863281 372.011719 C 158.566406 371.746094 159.253906 371.441406 159.925781 371.105469 C 160.59375 370.769531 161.25 370.398438 161.882812 369.996094 C 162.515625 369.59375 163.128906 369.160156 163.71875 368.695312 C 164.308594 368.230469 164.875 367.738281 165.414062 367.21875 C 165.957031 366.695312 166.46875 366.148438 166.957031 365.574219 C 167.441406 365.003906 167.898438 364.40625 168.324219 363.785156 C 168.75 363.167969 169.140625 362.527344 169.503906 361.871094 C 169.863281 361.210938 170.191406 360.535156 170.484375 359.84375 C 170.78125 359.152344 171.039062 358.449219 171.261719 357.730469 C 171.484375 357.011719 171.667969 356.285156 171.820312 355.550781 C 171.96875 354.8125 172.082031 354.070312 172.15625 353.324219 C 172.230469 352.574219 172.265625 351.824219 172.265625 351.074219 L 172.265625 313.414062 C 172.265625 312.398438 172.367188 311.390625 172.5625 310.390625 C 172.761719 309.394531 173.054688 308.425781 173.445312 307.484375 C 173.835938 306.542969 174.3125 305.652344 174.875 304.804688 C 175.441406 303.960938 176.082031 303.175781 176.800781 302.457031 C 177.519531 301.738281 178.304688 301.09375 179.148438 300.53125 C 179.992188 299.964844 180.886719 299.488281 181.824219 299.097656 C 182.765625 298.707031 183.734375 298.414062 184.730469 298.214844 C 185.726562 298.015625 186.734375 297.917969 187.75 297.917969 C 188.765625 297.917969 189.773438 298.015625 190.773438 298.214844 C 191.769531 298.414062 192.738281 298.707031 193.675781 299.097656 C 194.617188 299.488281 195.507812 299.964844 196.351562 300.53125 C 197.199219 301.09375 197.980469 301.738281 198.699219 302.457031 C 199.417969 303.175781 200.058594 303.960938 200.625 304.804688 C 201.191406 305.652344 201.667969 306.542969 202.054688 307.484375 C 202.445312 308.425781 202.738281 309.394531 202.9375 310.390625 C 203.136719 311.390625 203.234375 312.398438 203.234375 313.414062 L 203.234375 350.222656 C 203.234375 350.949219 203.265625 351.679688 203.332031 352.40625 C 203.398438 353.132812 203.5 353.855469 203.636719 354.574219 C 203.769531 355.289062 203.9375 356 204.140625 356.703125 C 204.34375 357.402344 204.578125 358.09375 204.84375 358.773438 C 205.109375 359.453125 205.40625 360.117188 205.738281 360.769531 C 206.066406 361.421875 206.425781 362.054688 206.816406 362.671875 C 207.203125 363.289062 207.621094 363.886719 208.066406 364.464844 C 208.511719 365.042969 208.984375 365.601562 209.480469 366.132812 C 209.980469 366.667969 210.5 367.175781 211.046875 367.660156 C 211.589844 368.144531 212.160156 368.601562 212.746094 369.035156 C 213.335938 369.464844 213.945312 369.867188 214.570312 370.242188 C 215.195312 370.617188 215.839844 370.957031 216.5 371.273438 C 217.15625 371.585938 217.828125 371.867188 218.515625 372.117188 C 219.199219 372.367188 219.894531 372.582031 220.601562 372.765625 C 221.308594 372.949219 222.019531 373.101562 222.742188 373.21875 C 223.460938 373.335938 224.183594 373.417969 224.910156 373.46875 C 225.664062 373.496094 226.414062 373.488281 227.160156 373.4375 C 227.910156 373.390625 228.65625 373.308594 229.398438 373.1875 C 230.136719 373.0625 230.871094 372.90625 231.597656 372.707031 C 232.320312 372.511719 233.035156 372.28125 233.734375 372.011719 C 234.4375 371.746094 235.125 371.441406 235.796875 371.105469 C 236.464844 370.769531 237.117188 370.398438 237.753906 369.996094 C 238.386719 369.59375 239 369.160156 239.589844 368.695312 C 240.179688 368.230469 240.746094 367.738281 241.285156 367.21875 C 241.828125 366.695312 242.339844 366.148438 242.828125 365.574219 C 243.3125 365.003906 243.769531 364.40625 244.195312 363.785156 C 244.621094 363.167969 245.011719 362.527344 245.375 361.871094 C 245.734375 361.210938 246.0625 360.535156 246.355469 359.84375 C 246.652344 359.152344 246.910156 358.449219 247.132812 357.730469 C 247.355469 357.011719 247.539062 356.285156 247.691406 355.550781 C 247.839844 354.8125 247.953125 354.070312 248.027344 353.324219 C 248.101562 352.574219 248.136719 351.824219 248.136719 351.074219 L 248.136719 308.84375 C 248.136719 308.117188 248.207031 307.394531 248.351562 306.683594 C 248.492188 305.96875 248.703125 305.273438 248.980469 304.601562 C 249.257812 303.929688 249.601562 303.292969 250.003906 302.6875 C 250.40625 302.082031 250.867188 301.523438 251.378906 301.007812 C 251.894531 300.492188 252.453125 300.035156 253.058594 299.628906 C 253.664062 299.226562 254.300781 298.886719 254.972656 298.605469 C 255.644531 298.328125 256.335938 298.117188 257.050781 297.976562 C 257.761719 297.832031 258.480469 297.761719 259.207031 297.761719 L 272.292969 297.761719 C 272.855469 297.753906 273.417969 297.722656 273.976562 297.660156 C 274.539062 297.597656 275.09375 297.507812 275.644531 297.394531 C 276.195312 297.277344 276.742188 297.136719 277.277344 296.96875 C 277.816406 296.800781 278.34375 296.605469 278.863281 296.386719 C 279.382812 296.167969 279.890625 295.925781 280.386719 295.65625 C 280.882812 295.386719 281.363281 295.097656 281.832031 294.78125 C 282.296875 294.464844 282.75 294.128906 283.183594 293.769531 C 283.617188 293.414062 284.035156 293.035156 284.433594 292.636719 C 284.832031 292.238281 285.210938 291.820312 285.570312 291.382812 C 285.925781 290.949219 286.261719 290.496094 286.578125 290.03125 C 286.890625 289.5625 287.183594 289.078125 287.453125 288.582031 C 287.71875 288.085938 287.964844 287.582031 288.183594 287.058594 C 288.402344 286.542969 288.59375 286.011719 288.761719 285.472656 C 288.929688 284.9375 289.074219 284.390625 289.1875 283.839844 C 289.304688 283.285156 289.390625 282.730469 289.453125 282.171875 C 289.515625 281.609375 289.550781 281.046875 289.558594 280.484375 L 289.558594 132.019531 C 289.558594 131.511719 289.507812 131.007812 289.410156 130.507812 C 289.308594 130.007812 289.164062 129.523438 288.96875 129.054688 C 288.773438 128.585938 288.535156 128.136719 288.253906 127.714844 C 287.96875 127.292969 287.648438 126.902344 287.289062 126.539062 C 286.929688 126.179688 286.539062 125.859375 286.117188 125.578125 C 285.695312 125.292969 285.246094 125.054688 284.777344 124.859375 C 284.308594 124.667969 283.824219 124.519531 283.324219 124.421875 C 282.828125 124.320312 282.324219 124.269531 281.816406 124.269531 Z M 281.96875 124.425781 "/><g clip-rule="nonzero" clip-path="url(#296a67e0a8)"><path style=" stroke:none;fill-rule:nonzero;fill:#0795ff;fill-opacity:1;" d="M 54.046875 124.347656 C 53.316406 124.347656 52.582031 124.382812 51.855469 124.457031 C 51.125 124.527344 50.402344 124.636719 49.683594 124.777344 C 48.964844 124.921875 48.253906 125.101562 47.550781 125.3125 C 46.851562 125.527344 46.164062 125.773438 45.484375 126.054688 C 44.808594 126.335938 44.148438 126.648438 43.5 126.992188 C 42.855469 127.339844 42.226562 127.714844 41.617188 128.121094 C 41.007812 128.53125 40.417969 128.964844 39.851562 129.433594 C 39.285156 129.898438 38.746094 130.390625 38.226562 130.90625 C 37.707031 131.425781 37.21875 131.96875 36.753906 132.535156 C 36.289062 133.101562 35.851562 133.691406 35.445312 134.300781 C 35.035156 134.910156 34.660156 135.539062 34.316406 136.1875 C 33.96875 136.832031 33.65625 137.496094 33.375 138.171875 C 33.097656 138.851562 32.847656 139.539062 32.636719 140.242188 C 32.425781 140.945312 32.246094 141.652344 32.101562 142.375 C 31.960938 143.09375 31.851562 143.816406 31.78125 144.546875 C 31.710938 145.277344 31.671875 146.007812 31.671875 146.742188 L 31.671875 237.710938 C 31.675781 238.445312 31.710938 239.175781 31.78125 239.90625 C 31.855469 240.632812 31.960938 241.359375 32.105469 242.078125 C 32.25 242.796875 32.425781 243.507812 32.640625 244.207031 C 32.851562 244.910156 33.101562 245.597656 33.382812 246.277344 C 33.660156 246.953125 33.976562 247.613281 34.320312 248.261719 C 34.664062 248.90625 35.042969 249.535156 35.449219 250.144531 C 35.855469 250.753906 36.292969 251.34375 36.757812 251.910156 C 37.222656 252.476562 37.714844 253.015625 38.230469 253.535156 C 38.75 254.054688 39.292969 254.546875 39.859375 255.011719 C 40.425781 255.476562 41.011719 255.910156 41.621094 256.320312 C 42.230469 256.726562 42.859375 257.101562 43.503906 257.445312 C 44.152344 257.792969 44.8125 258.105469 45.488281 258.386719 C 46.164062 258.667969 46.855469 258.914062 47.554688 259.125 C 48.257812 259.339844 48.964844 259.515625 49.683594 259.660156 C 50.402344 259.800781 51.125 259.910156 51.855469 259.980469 C 52.585938 260.054688 53.316406 260.089844 54.046875 260.089844 C 54.78125 260.089844 55.511719 260.054688 56.238281 259.980469 C 56.96875 259.910156 57.691406 259.800781 58.410156 259.660156 C 59.128906 259.515625 59.839844 259.339844 60.539062 259.125 C 61.242188 258.914062 61.929688 258.667969 62.605469 258.386719 C 63.28125 258.105469 63.945312 257.792969 64.589844 257.445312 C 65.238281 257.101562 65.863281 256.726562 66.472656 256.320312 C 67.082031 255.910156 67.671875 255.476562 68.234375 255.011719 C 68.800781 254.546875 69.34375 254.054688 69.863281 253.535156 C 70.382812 253.015625 70.871094 252.476562 71.335938 251.910156 C 71.800781 251.34375 72.238281 250.753906 72.644531 250.144531 C 73.054688 249.535156 73.429688 248.90625 73.773438 248.261719 C 74.121094 247.613281 74.433594 246.953125 74.714844 246.277344 C 74.996094 245.597656 75.242188 244.910156 75.453125 244.207031 C 75.667969 243.507812 75.847656 242.796875 75.988281 242.078125 C 76.132812 241.359375 76.242188 240.632812 76.3125 239.90625 C 76.386719 239.175781 76.421875 238.445312 76.421875 237.710938 L 76.421875 146.742188 C 76.417969 146.007812 76.382812 145.277344 76.308594 144.550781 C 76.234375 143.820312 76.125 143.097656 75.980469 142.378906 C 75.835938 141.660156 75.65625 140.949219 75.441406 140.25 C 75.226562 139.550781 74.980469 138.859375 74.699219 138.183594 C 74.417969 137.507812 74.101562 136.847656 73.757812 136.203125 C 73.410156 135.554688 73.035156 134.929688 72.628906 134.320312 C 72.21875 133.710938 71.785156 133.121094 71.320312 132.558594 C 70.855469 131.992188 70.363281 131.449219 69.847656 130.929688 C 69.328125 130.410156 68.785156 129.921875 68.222656 129.457031 C 67.65625 128.992188 67.066406 128.554688 66.460938 128.144531 C 65.851562 127.738281 65.226562 127.363281 64.578125 127.015625 C 63.933594 126.667969 63.273438 126.355469 62.597656 126.074219 C 61.921875 125.792969 61.234375 125.542969 60.535156 125.332031 C 59.832031 125.117188 59.125 124.9375 58.40625 124.792969 C 57.691406 124.648438 56.964844 124.539062 56.238281 124.464844 C 55.511719 124.390625 54.78125 124.351562 54.046875 124.347656 Z M 54.046875 124.347656 "/></g><g clip-rule="nonzero" clip-path="url(#9aa582f791)"><path style=" stroke:none;fill-rule:nonzero;fill:#0795ff;fill-opacity:1;" d="M 321.453125 124.347656 C 320.722656 124.351562 319.992188 124.390625 319.261719 124.464844 C 318.535156 124.539062 317.8125 124.648438 317.09375 124.792969 C 316.375 124.9375 315.667969 125.117188 314.96875 125.332031 C 314.269531 125.542969 313.578125 125.792969 312.902344 126.074219 C 312.226562 126.355469 311.566406 126.667969 310.921875 127.015625 C 310.277344 127.363281 309.648438 127.738281 309.042969 128.144531 C 308.433594 128.554688 307.847656 128.992188 307.28125 129.457031 C 306.714844 129.921875 306.171875 130.410156 305.65625 130.929688 C 305.136719 131.449219 304.648438 131.992188 304.183594 132.558594 C 303.71875 133.121094 303.28125 133.710938 302.875 134.320312 C 302.46875 134.929688 302.089844 135.554688 301.746094 136.203125 C 301.398438 136.847656 301.085938 137.507812 300.804688 138.183594 C 300.523438 138.859375 300.273438 139.550781 300.058594 140.25 C 299.847656 140.949219 299.667969 141.660156 299.523438 142.378906 C 299.378906 143.097656 299.269531 143.820312 299.195312 144.550781 C 299.121094 145.277344 299.082031 146.007812 299.078125 146.742188 L 299.078125 237.710938 C 299.078125 238.445312 299.117188 239.175781 299.1875 239.90625 C 299.257812 240.636719 299.367188 241.359375 299.507812 242.078125 C 299.652344 242.800781 299.832031 243.507812 300.042969 244.210938 C 300.257812 244.914062 300.503906 245.601562 300.78125 246.28125 C 301.0625 246.957031 301.375 247.621094 301.722656 248.265625 C 302.066406 248.914062 302.445312 249.542969 302.851562 250.152344 C 303.257812 250.761719 303.695312 251.351562 304.160156 251.917969 C 304.625 252.484375 305.113281 253.027344 305.632812 253.546875 C 306.152344 254.0625 306.695312 254.554688 307.261719 255.019531 C 307.828125 255.488281 308.414062 255.921875 309.023438 256.332031 C 309.632812 256.738281 310.261719 257.113281 310.90625 257.460938 C 311.554688 257.804688 312.214844 258.121094 312.890625 258.398438 C 313.570312 258.679688 314.257812 258.925781 314.960938 259.140625 C 315.660156 259.351562 316.371094 259.53125 317.089844 259.675781 C 317.808594 259.816406 318.53125 259.925781 319.261719 259.996094 C 319.992188 260.070312 320.722656 260.105469 321.453125 260.105469 C 322.1875 260.105469 322.917969 260.070312 323.648438 259.996094 C 324.375 259.925781 325.101562 259.816406 325.820312 259.675781 C 326.539062 259.53125 327.246094 259.351562 327.949219 259.140625 C 328.648438 258.925781 329.339844 258.679688 330.015625 258.398438 C 330.691406 258.121094 331.355469 257.804688 332 257.460938 C 332.648438 257.113281 333.273438 256.738281 333.882812 256.332031 C 334.492188 255.921875 335.082031 255.488281 335.648438 255.019531 C 336.214844 254.554688 336.757812 254.0625 337.273438 253.546875 C 337.792969 253.027344 338.285156 252.484375 338.75 251.917969 C 339.214844 251.351562 339.648438 250.761719 340.058594 250.152344 C 340.464844 249.542969 340.839844 248.914062 341.1875 248.265625 C 341.53125 247.621094 341.84375 246.957031 342.125 246.28125 C 342.40625 245.601562 342.652344 244.914062 342.863281 244.210938 C 343.078125 243.507812 343.253906 242.800781 343.398438 242.078125 C 343.542969 241.359375 343.648438 240.636719 343.71875 239.90625 C 343.792969 239.175781 343.828125 238.445312 343.828125 237.710938 L 343.828125 146.742188 C 343.828125 146.007812 343.792969 145.277344 343.71875 144.546875 C 343.648438 143.816406 343.542969 143.09375 343.398438 142.375 C 343.253906 141.652344 343.078125 140.945312 342.863281 140.242188 C 342.652344 139.539062 342.40625 138.851562 342.125 138.171875 C 341.84375 137.496094 341.53125 136.832031 341.1875 136.1875 C 340.839844 135.539062 340.464844 134.910156 340.058594 134.300781 C 339.648438 133.691406 339.214844 133.101562 338.75 132.535156 C 338.285156 131.96875 337.792969 131.425781 337.273438 130.90625 C 336.757812 130.390625 336.214844 129.898438 335.648438 129.433594 C 335.082031 128.964844 334.492188 128.53125 333.882812 128.121094 C 333.273438 127.714844 332.648438 127.339844 332 126.992188 C 331.355469 126.648438 330.691406 126.332031 330.015625 126.054688 C 329.339844 125.773438 328.648438 125.527344 327.949219 125.3125 C 327.246094 125.101562 326.539062 124.921875 325.820312 124.777344 C 325.101562 124.636719 324.375 124.527344 323.648438 124.457031 C 322.917969 124.382812 322.1875 124.347656 321.453125 124.347656 Z M 321.453125 124.347656 "/></g><path style=" stroke:none;fill-rule:nonzero;fill:#0795ff;fill-opacity:1;" d="M 94.847656 113.34375 L 280.035156 113.34375 C 280.609375 113.355469 281.183594 113.304688 281.746094 113.1875 C 282.3125 113.070312 282.855469 112.890625 283.382812 112.652344 C 283.90625 112.414062 284.398438 112.117188 284.859375 111.769531 C 285.316406 111.421875 285.730469 111.023438 286.101562 110.582031 C 286.472656 110.140625 286.792969 109.664062 287.054688 109.152344 C 287.320312 108.636719 287.523438 108.101562 287.667969 107.542969 C 287.816406 106.984375 287.894531 106.417969 287.914062 105.839844 C 287.933594 105.261719 287.886719 104.691406 287.777344 104.125 C 287.023438 100.578125 286.085938 97.078125 284.964844 93.632812 C 283.839844 90.183594 282.535156 86.808594 281.054688 83.5 C 279.570312 80.1875 277.917969 76.96875 276.089844 73.835938 C 274.265625 70.703125 272.28125 67.675781 270.132812 64.753906 C 267.988281 61.832031 265.691406 59.035156 263.25 56.355469 C 260.804688 53.679688 258.226562 51.140625 255.511719 48.738281 C 252.796875 46.335938 249.964844 44.085938 247.011719 41.984375 C 244.054688 39.882812 241 37.945312 237.839844 36.167969 L 253.324219 7.578125 C 253.566406 7.113281 253.714844 6.617188 253.765625 6.097656 C 253.816406 5.574219 253.773438 5.0625 253.628906 4.558594 C 253.484375 4.050781 253.253906 3.59375 252.933594 3.175781 C 252.613281 2.761719 252.226562 2.421875 251.777344 2.152344 C 251.546875 2.023438 251.304688 1.914062 251.050781 1.832031 C 250.800781 1.75 250.542969 1.691406 250.277344 1.660156 C 250.015625 1.628906 249.75 1.625 249.484375 1.644531 C 249.222656 1.664062 248.960938 1.710938 248.707031 1.785156 C 248.449219 1.855469 248.203125 1.953125 247.96875 2.074219 C 247.730469 2.191406 247.507812 2.335938 247.300781 2.5 C 247.09375 2.664062 246.902344 2.847656 246.730469 3.050781 C 246.558594 3.253906 246.410156 3.46875 246.28125 3.703125 L 230.796875 32.449219 C 227.4375 30.910156 224.007812 29.554688 220.503906 28.382812 C 217 27.210938 213.445312 26.234375 209.835938 25.445312 C 206.226562 24.65625 202.585938 24.066406 198.914062 23.667969 C 195.242188 23.273438 191.558594 23.074219 187.867188 23.074219 C 184.171875 23.074219 180.492188 23.273438 176.816406 23.667969 C 173.144531 24.066406 169.503906 24.65625 165.898438 25.445312 C 162.289062 26.234375 158.734375 27.210938 155.230469 28.382812 C 151.726562 29.554688 148.296875 30.910156 144.9375 32.449219 L 128.679688 3.703125 C 128.550781 3.472656 128.40625 3.257812 128.234375 3.058594 C 128.066406 2.859375 127.878906 2.679688 127.675781 2.515625 C 127.46875 2.351562 127.25 2.210938 127.015625 2.089844 C 126.785156 1.972656 126.542969 1.875 126.289062 1.804688 C 126.039062 1.730469 125.78125 1.683594 125.523438 1.664062 C 125.261719 1.640625 125 1.644531 124.742188 1.675781 C 124.480469 1.707031 124.226562 1.761719 123.976562 1.839844 C 123.726562 1.921875 123.488281 2.023438 123.257812 2.152344 C 123.03125 2.277344 122.816406 2.425781 122.617188 2.597656 C 122.417969 2.765625 122.238281 2.953125 122.074219 3.160156 C 121.910156 3.363281 121.769531 3.582031 121.648438 3.816406 C 121.53125 4.050781 121.433594 4.292969 121.363281 4.542969 C 121.292969 4.796875 121.246094 5.050781 121.222656 5.3125 C 121.203125 5.574219 121.207031 5.835938 121.234375 6.09375 C 121.265625 6.355469 121.320312 6.609375 121.402344 6.859375 C 121.480469 7.109375 121.585938 7.347656 121.710938 7.578125 L 137.195312 36.167969 C 134.039062 37.945312 130.984375 39.882812 128.035156 41.984375 C 125.082031 44.085938 122.25 46.335938 119.539062 48.738281 C 116.828125 51.140625 114.25 53.683594 111.8125 56.359375 C 109.371094 59.035156 107.078125 61.835938 104.933594 64.757812 C 102.789062 67.679688 100.808594 70.707031 98.984375 73.839844 C 97.164062 76.972656 95.515625 80.191406 94.035156 83.5 C 92.558594 86.808594 91.257812 90.1875 90.136719 93.632812 C 89.019531 97.082031 88.085938 100.578125 87.335938 104.125 C 87.226562 104.691406 87.183594 105.261719 87.199219 105.839844 C 87.21875 106.417969 87.300781 106.984375 87.445312 107.542969 C 87.589844 108.101562 87.792969 108.636719 88.058594 109.152344 C 88.324219 109.664062 88.640625 110.140625 89.011719 110.582031 C 89.382812 111.023438 89.796875 111.421875 90.257812 111.769531 C 90.714844 112.117188 91.207031 112.414062 91.734375 112.652344 C 92.257812 112.890625 92.804688 113.070312 93.367188 113.1875 C 93.933594 113.304688 94.503906 113.355469 95.078125 113.34375 Z M 242.484375 70.726562 C 242.484375 71.296875 242.429688 71.859375 242.316406 72.417969 C 242.207031 72.976562 242.039062 73.519531 241.820312 74.042969 C 241.601562 74.566406 241.332031 75.066406 241.011719 75.539062 C 240.695312 76.007812 240.332031 76.445312 239.929688 76.84375 C 239.523438 77.242188 239.085938 77.601562 238.609375 77.914062 C 238.132812 78.222656 237.632812 78.488281 237.105469 78.699219 C 236.578125 78.914062 236.035156 79.070312 235.476562 79.175781 C 234.917969 79.28125 234.355469 79.328125 233.785156 79.324219 C 233.21875 79.316406 232.65625 79.253906 232.097656 79.132812 C 231.542969 79.015625 231.003906 78.84375 230.480469 78.617188 C 229.960938 78.390625 229.464844 78.117188 229 77.792969 C 228.53125 77.46875 228.101562 77.101562 227.707031 76.691406 C 227.3125 76.28125 226.960938 75.835938 226.652344 75.359375 C 226.347656 74.878906 226.089844 74.375 225.886719 73.84375 C 225.679688 73.3125 225.527344 72.769531 225.429688 72.207031 C 225.332031 71.648438 225.289062 71.082031 225.300781 70.515625 C 225.316406 69.945312 225.386719 69.382812 225.511719 68.828125 C 225.636719 68.273438 225.8125 67.734375 226.046875 67.214844 C 226.277344 66.695312 226.558594 66.203125 226.886719 65.742188 C 227.214844 65.277344 227.589844 64.851562 228.003906 64.460938 C 228.414062 64.070312 228.863281 63.726562 229.347656 63.421875 C 229.828125 63.121094 230.335938 62.871094 230.867188 62.671875 C 231.402344 62.472656 231.949219 62.324219 232.507812 62.234375 C 233.070312 62.140625 233.632812 62.105469 234.203125 62.128906 C 234.765625 62.132812 235.324219 62.191406 235.875 62.304688 C 236.425781 62.417969 236.960938 62.585938 237.480469 62.800781 C 238 63.019531 238.492188 63.285156 238.957031 63.601562 C 239.425781 63.914062 239.859375 64.269531 240.257812 64.667969 C 240.65625 65.066406 241.011719 65.5 241.324219 65.96875 C 241.636719 66.4375 241.902344 66.929688 242.121094 67.449219 C 242.339844 67.96875 242.503906 68.503906 242.617188 69.054688 C 242.730469 69.605469 242.789062 70.164062 242.796875 70.726562 Z M 141.300781 62.128906 C 141.871094 62.121094 142.4375 62.171875 143 62.28125 C 143.558594 62.386719 144.105469 62.546875 144.636719 62.761719 C 145.164062 62.976562 145.667969 63.242188 146.144531 63.558594 C 146.621094 63.871094 147.066406 64.230469 147.472656 64.632812 C 147.878906 65.035156 148.242188 65.472656 148.5625 65.945312 C 148.878906 66.421875 149.152344 66.921875 149.371094 67.449219 C 149.59375 67.976562 149.761719 68.519531 149.875 69.082031 C 149.988281 69.640625 150.046875 70.207031 150.046875 70.78125 C 150.050781 71.351562 149.996094 71.917969 149.882812 72.480469 C 149.773438 73.039062 149.609375 73.585938 149.390625 74.113281 C 149.175781 74.644531 148.90625 75.144531 148.589844 75.621094 C 148.273438 76.097656 147.910156 76.539062 147.507812 76.941406 C 147.101562 77.347656 146.664062 77.707031 146.1875 78.023438 C 145.710938 78.34375 145.210938 78.609375 144.683594 78.828125 C 144.152344 79.046875 143.609375 79.210938 143.050781 79.320312 C 142.488281 79.429688 141.921875 79.484375 141.351562 79.484375 C 140.777344 79.480469 140.214844 79.425781 139.652344 79.3125 C 139.09375 79.195312 138.550781 79.03125 138.023438 78.808594 C 137.496094 78.585938 136.996094 78.316406 136.523438 77.996094 C 136.046875 77.675781 135.609375 77.3125 135.207031 76.90625 C 134.808594 76.5 134.449219 76.054688 134.132812 75.578125 C 133.820312 75.101562 133.554688 74.597656 133.339844 74.066406 C 133.125 73.535156 132.964844 72.992188 132.859375 72.429688 C 132.75 71.867188 132.699219 71.300781 132.707031 70.726562 C 132.707031 70.164062 132.761719 69.605469 132.871094 69.050781 C 132.980469 68.496094 133.144531 67.957031 133.359375 67.4375 C 133.574219 66.914062 133.839844 66.417969 134.152344 65.949219 C 134.46875 65.480469 134.824219 65.046875 135.222656 64.644531 C 135.621094 64.246094 136.054688 63.890625 136.523438 63.578125 C 136.992188 63.261719 137.488281 63 138.011719 62.78125 C 138.53125 62.566406 139.070312 62.402344 139.621094 62.292969 C 140.175781 62.183594 140.734375 62.128906 141.300781 62.128906 Z M 141.300781 62.128906 "/><path style=" stroke:none;fill-rule:nonzero;fill:#156cdd;fill-opacity:1;" d="M 98.410156 296.910156 C 100.039062 297.476562 101.714844 297.757812 103.441406 297.761719 L 116.058594 297.761719 C 116.789062 297.761719 117.507812 297.832031 118.21875 297.976562 C 118.933594 298.117188 119.625 298.328125 120.296875 298.605469 C 120.96875 298.886719 121.605469 299.226562 122.210938 299.628906 C 122.816406 300.035156 123.375 300.492188 123.890625 301.007812 C 124.402344 301.523438 124.863281 302.082031 125.265625 302.6875 C 125.667969 303.292969 126.011719 303.929688 126.289062 304.601562 C 126.566406 305.273438 126.777344 305.96875 126.917969 306.683594 C 127.058594 307.394531 127.132812 308.117188 127.132812 308.84375 L 127.132812 350.222656 C 127.128906 350.957031 127.164062 351.6875 127.230469 352.421875 C 127.300781 353.152344 127.402344 353.878906 127.539062 354.601562 C 127.675781 355.320312 127.847656 356.035156 128.050781 356.742188 C 128.257812 357.445312 128.496094 358.140625 128.765625 358.824219 C 129.035156 359.503906 129.335938 360.175781 129.671875 360.828125 C 130.003906 361.484375 130.367188 362.121094 130.761719 362.738281 C 131.15625 363.359375 131.578125 363.960938 132.03125 364.539062 C 132.480469 365.117188 132.957031 365.675781 133.460938 366.210938 C 133.964844 366.742188 134.492188 367.253906 135.046875 367.738281 C 135.597656 368.222656 136.171875 368.679688 136.765625 369.109375 C 137.363281 369.539062 137.976562 369.9375 138.609375 370.3125 C 139.242188 370.683594 139.890625 371.023438 140.554688 371.332031 C 141.222656 371.644531 141.902344 371.921875 142.59375 372.167969 C 143.285156 372.414062 143.984375 372.625 144.699219 372.804688 C 145.410156 372.984375 146.128906 373.128906 146.855469 373.238281 C 147.578125 373.347656 148.308594 373.425781 149.042969 373.46875 C 149.792969 373.496094 150.542969 373.488281 151.289062 373.4375 C 152.039062 373.390625 152.785156 373.308594 153.527344 373.1875 C 154.265625 373.0625 155 372.90625 155.726562 372.707031 C 156.449219 372.511719 157.164062 372.28125 157.863281 372.011719 C 158.566406 371.746094 159.253906 371.441406 159.925781 371.105469 C 160.59375 370.769531 161.25 370.398438 161.882812 369.996094 C 162.515625 369.59375 163.128906 369.160156 163.71875 368.695312 C 164.308594 368.230469 164.875 367.738281 165.414062 367.21875 C 165.957031 366.695312 166.46875 366.148438 166.957031 365.574219 C 167.441406 365.003906 167.898438 364.40625 168.324219 363.785156 C 168.75 363.167969 169.140625 362.527344 169.503906 361.871094 C 169.863281 361.210938 170.191406 360.535156 170.484375 359.84375 C 170.78125 359.152344 171.039062 358.449219 171.261719 357.730469 C 171.484375 357.011719 171.667969 356.285156 171.820312 355.550781 C 171.96875 354.8125 172.082031 354.070312 172.15625 353.324219 C 172.230469 352.574219 172.265625 351.824219 172.265625 351.074219 L 172.265625 313.414062 C 172.265625 312.398438 172.367188 311.390625 172.5625 310.390625 C 172.761719 309.394531 173.054688 308.425781 173.445312 307.484375 C 173.835938 306.542969 174.3125 305.652344 174.875 304.804688 C 175.441406 303.960938 176.082031 303.175781 176.800781 302.457031 C 177.519531 301.738281 178.304688 301.09375 179.148438 300.53125 C 179.992188 299.964844 180.886719 299.488281 181.824219 299.097656 C 182.765625 298.707031 183.734375 298.414062 184.730469 298.214844 C 185.726562 298.015625 186.734375 297.917969 187.75 297.917969 C 188.765625 297.917969 189.773438 298.015625 190.773438 298.214844 C 191.769531 298.414062 192.738281 298.707031 193.675781 299.097656 C 194.617188 299.488281 195.507812 299.964844 196.351562 300.53125 C 197.199219 301.09375 197.980469 301.738281 198.699219 302.457031 C 199.417969 303.175781 200.058594 303.960938 200.625 304.804688 C 201.191406 305.652344 201.667969 306.542969 202.054688 307.484375 C 202.445312 308.425781 202.738281 309.394531 202.9375 310.390625 C 203.136719 311.390625 203.234375 312.398438 203.234375 313.414062 L 203.234375 350.222656 C 203.234375 350.949219 203.265625 351.679688 203.332031 352.40625 C 203.398438 353.132812 203.5 353.855469 203.636719 354.574219 C 203.769531 355.289062 203.9375 356 204.140625 356.703125 C 204.34375 357.402344 204.578125 358.09375 204.84375 358.773438 C 205.109375 359.453125 205.40625 360.117188 205.738281 360.769531 C 206.066406 361.421875 206.425781 362.054688 206.816406 362.671875 C 207.203125 363.289062 207.621094 363.886719 208.066406 364.464844 C 208.511719 365.042969 208.984375 365.601562 209.480469 366.132812 C 209.980469 366.667969 210.5 367.175781 211.046875 367.660156 C 211.589844 368.144531 212.160156 368.601562 212.746094 369.035156 C 213.335938 369.464844 213.945312 369.867188 214.570312 370.242188 C 215.195312 370.617188 215.839844 370.957031 216.5 371.273438 C 217.15625 371.585938 217.828125 371.867188 218.515625 372.117188 C 219.199219 372.367188 219.894531 372.582031 220.601562 372.765625 C 221.308594 372.949219 222.019531 373.101562 222.742188 373.21875 C 223.460938 373.335938 224.183594 373.417969 224.910156 373.46875 C 225.664062 373.496094 226.414062 373.488281 227.160156 373.4375 C 227.910156 373.390625 228.65625 373.308594 229.398438 373.1875 C 230.136719 373.0625 230.871094 372.90625 231.597656 372.707031 C 232.320312 372.511719 233.035156 372.28125 233.734375 372.011719 C 234.4375 371.746094 235.125 371.441406 235.796875 371.105469 C 236.464844 370.769531 237.117188 370.398438 237.753906 369.996094 C 238.386719 369.59375 239 369.160156 239.589844 368.695312 C 240.179688 368.230469 240.746094 367.738281 241.285156 367.21875 C 241.828125 366.695312 242.339844 366.148438 242.828125 365.574219 C 243.3125 365.003906 243.769531 364.40625 244.195312 363.785156 C 244.621094 363.167969 245.011719 362.527344 245.375 361.871094 C 245.734375 361.210938 246.0625 360.535156 246.355469 359.84375 C 246.652344 359.152344 246.910156 358.449219 247.132812 357.730469 C 247.355469 357.011719 247.539062 356.285156 247.691406 355.550781 C 247.839844 354.8125 247.953125 354.070312 248.027344 353.324219 C 248.101562 352.574219 248.136719 351.824219 248.136719 351.074219 L 248.136719 308.84375 C 248.136719 308.117188 248.207031 307.394531 248.351562 306.683594 C 248.492188 305.96875 248.703125 305.273438 248.980469 304.601562 C 249.257812 303.929688 249.601562 303.292969 250.003906 302.6875 C 250.40625 302.082031 250.867188 301.523438 251.378906 301.007812 C 251.894531 300.492188 252.453125 300.035156 253.058594 299.628906 C 253.664062 299.226562 254.300781 298.886719 254.972656 298.605469 C 255.644531 298.328125 256.335938 298.117188 257.050781 297.976562 C 257.761719 297.832031 258.480469 297.761719 259.207031 297.761719 L 272.292969 297.761719 C 274.015625 297.757812 275.695312 297.476562 277.324219 296.910156 Z M 98.410156 296.910156 "/></g></svg>