<svg xmlns="http://www.w3.org/2000/svg" xmlns:xlink="http://www.w3.org/1999/xlink" width="1069" zoomAndPan="magnify" viewBox="0 0 801.75 440.999989" height="588" preserveAspectRatio="xMidYMid meet" version="1.2"><defs><clipPath id="4dcc5d88af"><path d="M 0 0.0703125 L 801.5 0.0703125 L 801.5 440.929688 L 0 440.929688 Z M 0 0.0703125 "/></clipPath><clipPath id="194071b0f6"><path d="M 0 257 L 801.5 257 L 801.5 440.929688 L 0 440.929688 Z M 0 257 "/></clipPath><filter x="0%" y="0%" width="100%" filterUnits="objectBoundingBox" id="5bee9ed401" height="100%"><feColorMatrix values="0 0 0 0 1 0 0 0 0 1 0 0 0 0 1 0 0 0 1 0" type="matrix" in="SourceGraphic"/></filter><clipPath id="40da9b2032"><path d="M 8.863281 49 L 792.636719 49 L 792.636719 183.929688 L 8.863281 183.929688 Z M 8.863281 49 "/></clipPath><clipPath id="0bfb284098"><path d="M 8.863281 15 L 792.636719 15 L 792.636719 183.929688 L 8.863281 183.929688 Z M 8.863281 15 "/></clipPath><clipPath id="5f19cb803e"><path d="M 8.863281 108 L 79 108 L 79 183.929688 L 8.863281 183.929688 Z M 8.863281 108 "/></clipPath><clipPath id="e6f634b0e3"><path d="M 8.863281 130 L 79 130 L 79 183.929688 L 8.863281 183.929688 Z M 8.863281 130 "/></clipPath><clipPath id="01c3d2c859"><path d="M 8.863281 100 L 246 100 L 246 183.929688 L 8.863281 183.929688 Z M 8.863281 100 "/></clipPath><clipPath id="705281d8d4"><path d="M 182 32 L 792.636719 32 L 792.636719 168 L 182 168 Z M 182 32 "/></clipPath><clipPath id="c5965b027d"><path d="M 8.863281 98 L 171 98 L 171 171 L 8.863281 171 Z M 8.863281 98 "/></clipPath><clipPath id="c25d322254"><path d="M 473 12 L 792.636719 12 L 792.636719 179 L 473 179 Z M 473 12 "/></clipPath><clipPath id="3c1dcead76"><path d="M 716 121 L 731 121 L 731 183.929688 L 716 183.929688 Z M 716 121 "/></clipPath><clipPath id="d5fec46a29"><path d="M 767 80 L 792.636719 80 L 792.636719 97 L 767 97 Z M 767 80 "/></clipPath><clipPath id="92c2b7a273"><path d="M 788 60 L 792.636719 60 L 792.636719 121 L 788 121 Z M 788 60 "/></clipPath><clipPath id="e8d7d84587"><path d="M 57 178 L 72 178 L 72 183.929688 L 57 183.929688 Z M 57 178 "/></clipPath><clipPath id="1b6a215a6f"><path d="M 530 0.414062 L 539 0.414062 L 539 9 L 530 9 Z M 530 0.414062 "/></clipPath><clipPath id="49a6b54111"><path d="M 785 113 L 792.636719 113 L 792.636719 124 L 785 124 Z M 785 113 "/></clipPath><clipPath id="fd53aee37a"><rect x="0" width="802" y="0" height="184"/></clipPath></defs><g id="b95e373ef0"><g clip-rule="nonzero" clip-path="url(#4dcc5d88af)"><path style=" stroke:none;fill-rule:nonzero;fill:#ffffff;fill-opacity:1;" d="M 0 0.0703125 L 801.5 0.0703125 L 801.5 440.929688 L 0 440.929688 Z M 0 0.0703125 "/><path style=" stroke:none;fill-rule:nonzero;fill:#000000;fill-opacity:1;" d="M 0 0.0703125 L 801.5 0.0703125 L 801.5 440.929688 L 0 440.929688 Z M 0 0.0703125 "/></g><g clip-rule="nonzero" clip-path="url(#194071b0f6)"><g mask="url(#d87cd77a7e)" transform="matrix(1,0,0,1,0,257)"><g clip-path="url(#fd53aee37a)"><g clip-rule="nonzero" clip-path="url(#40da9b2032)"><path style=" stroke:none;fill-rule:nonzero;fill:#f0a93e;fill-opacity:1;" d="M 714.519531 196.917969 L 692.1875 156.71875 L 644.734375 176.964844 L 638.992188 136.144531 L 558.320312 74.859375 L 474.042969 157.875 L 473.738281 157.804688 L 309.1875 119.785156 L 309.074219 119.679688 L 286 98.042969 L 239.503906 110.277344 L 266.089844 132.535156 L 244.832031 175.050781 L 184.117188 140.539062 L 184.183594 140.144531 L 198.792969 54.925781 L 169.847656 102.5625 L 111.390625 73.640625 L 137.550781 114.40625 L 88.449219 196.667969 L 19.605469 112.035156 L -15.546875 135.992188 L -16.191406 135.046875 L 19.832031 110.496094 L 88.304688 194.675781 L 136.207031 114.425781 L 108.195312 70.785156 L 169.414062 101.074219 L 200.9375 49.191406 L 185.378906 139.941406 L 244.347656 173.460938 L 264.660156 132.832031 L 237.074219 109.734375 L 286.320312 96.777344 L 309.746094 118.738281 L 473.691406 156.621094 L 558.222656 73.347656 L 558.617188 73.648438 L 640.0625 135.519531 L 645.65625 175.324219 L 692.6875 155.261719 L 714.445312 194.425781 L 767.9375 83.039062 L 792.058594 118.390625 L 853.300781 61.714844 L 854.078125 62.554688 L 791.859375 120.132812 L 768.109375 85.324219 Z M 714.519531 196.917969 "/></g><g clip-rule="nonzero" clip-path="url(#0bfb284098)"><path style=" stroke:none;fill-rule:nonzero;fill:#f0a93e;fill-opacity:1;" d="M 88.507812 196.390625 L 88.105469 196.175781 L -10.152344 143.898438 L -9.617188 142.886719 L 88.242188 194.953125 L 122.707031 155.480469 L 122.878906 155.433594 L 184.402344 139.738281 L 201.515625 115.019531 L 201.902344 115.121094 L 265.101562 132.019531 L 285.835938 96.832031 L 286.167969 96.835938 L 447.207031 98.726562 L 547.652344 15.96875 L 613.46875 100.769531 L 692.40625 155.273438 L 838.835938 35.238281 L 839.5625 36.125 L 692.464844 156.707031 L 612.675781 101.609375 L 612.617188 101.539062 L 547.472656 17.601562 L 447.613281 99.875 L 286.484375 97.984375 L 265.644531 133.347656 L 265.226562 133.234375 L 201.996094 116.332031 L 185.097656 140.746094 L 123.335938 156.5 Z M 88.507812 196.390625 "/></g><g clip-rule="nonzero" clip-path="url(#5f19cb803e)"><path style=" stroke:none;fill-rule:nonzero;fill:#f0a93e;fill-opacity:1;" d="M 38.234375 236.65625 L 6.28125 162.199219 L 7.332031 161.746094 L 38.363281 234.050781 L 65.160156 185.382812 L 76.675781 137.769531 L -0.949219 109.597656 L -0.558594 108.523438 L 78.03125 137.042969 L 66.238281 185.804688 L 66.203125 185.871094 Z M 38.234375 236.65625 "/></g><g clip-rule="nonzero" clip-path="url(#e6f634b0e3)"><path style=" stroke:none;fill-rule:nonzero;fill:#f0a93e;fill-opacity:1;" d="M 38.117188 237.394531 L 19.921875 144.199219 L 3.105469 146.476562 L 2.953125 145.34375 L 19.324219 143.121094 L 8.589844 131.492188 L 9.433594 130.71875 L 20.707031 142.933594 L 78.242188 135.132812 Z M 21.058594 144.042969 L 38.484375 233.316406 L 76.464844 136.53125 Z M 21.058594 144.042969 "/></g><g clip-rule="nonzero" clip-path="url(#01c3d2c859)"><path style=" stroke:none;fill-rule:nonzero;fill:#f0a93e;fill-opacity:1;" d="M 121.664062 209.066406 L 120.789062 208.414062 L -7.390625 112.984375 L -6.710938 112.066406 L 120.597656 206.84375 L 122.449219 155.890625 L 135.59375 115.1875 L 183.671875 139.070312 L 168.59375 100.746094 L 202.125 115.210938 L 243.8125 172.226562 L 237.71875 110.0625 L 238.859375 109.949219 L 245.363281 176.285156 L 201.386719 116.140625 L 170.667969 102.886719 L 185.824219 141.414062 L 136.277344 116.800781 L 123.589844 156.089844 Z M 121.664062 209.066406 "/></g><g clip-rule="nonzero" clip-path="url(#705281d8d4)"><path style=" stroke:none;fill-rule:nonzero;fill:#f0a93e;fill-opacity:1;" d="M 273.9375 168 L 264.945312 133.296875 L 182.386719 141.039062 L 235.9375 107.671875 L 201.894531 116.230469 L 201.613281 115.121094 L 242.742188 104.78125 L 187.109375 139.445312 L 265.808594 132.066406 L 274.445312 165.394531 L 308.980469 118.957031 L 355.039062 32.316406 L 355.570312 32.695312 L 447.535156 98.683594 L 558.300781 73.507812 L 558.457031 73.5625 L 681.09375 115.699219 L 767.90625 83.613281 L 767.996094 83.609375 L 809.148438 81.71875 L 809.203125 82.863281 L 768.136719 84.75 L 681.105469 116.914062 L 558.238281 74.699219 L 447.285156 99.914062 L 355.4375 34.007812 L 309.949219 119.570312 L 309.925781 119.605469 Z M 273.9375 168 "/></g><g clip-rule="nonzero" clip-path="url(#c5965b027d)"><path style=" stroke:none;fill-rule:nonzero;fill:#f0a93e;fill-opacity:1;" d="M 110.992188 170.636719 L 110.109375 169.910156 L 121.3125 156.351562 L -9.957031 139.867188 L -9.816406 138.730469 L 119.214844 154.9375 L 75.777344 135.765625 L 135.71875 115.464844 L 170.824219 98.246094 L 123.457031 155.554688 L 126.828125 157.042969 L 122.660156 156.519531 Z M 78.929688 135.902344 L 122.367188 155.074219 L 166.554688 101.613281 L 136.15625 116.523438 L 136.121094 116.535156 Z M 78.929688 135.902344 "/></g><path style=" stroke:none;fill-rule:nonzero;fill:#f0a93e;fill-opacity:1;" d="M 244.972656 174.679688 L 244.207031 173.828125 L 277.566406 143.800781 L 285.710938 96.664062 L 321.664062 108.125 L 380.910156 69.355469 L 446.261719 99.496094 L 446.351562 99.679688 L 474.96875 158.203125 L 473.691406 157.796875 L 321.832031 109.382812 L 306.035156 119.71875 L 278.625 144.390625 L 274.753906 166.796875 L 273.625 166.601562 L 277.25 145.625 Z M 323.066406 108.574219 L 472.765625 156.296875 L 445.414062 100.363281 L 381.007812 70.660156 Z M 286.613281 98.152344 L 278.941406 142.566406 L 305.339844 118.808594 L 305.375 118.78125 L 320.429688 108.933594 Z M 286.613281 98.152344 "/><path style=" stroke:none;fill-rule:nonzero;fill:#f0a93e;fill-opacity:1;" d="M 265.1875 132.136719 L 310.222656 116.390625 L 310.601562 117.472656 L 265.566406 133.21875 Z M 265.1875 132.136719 "/><g clip-rule="nonzero" clip-path="url(#c25d322254)"><path style=" stroke:none;fill-rule:nonzero;fill:#f0a93e;fill-opacity:1;" d="M 643.671875 178.632812 L 614.777344 103.085938 L 558.386719 72.585938 L 558.339844 72.320312 L 547.933594 16.316406 L 474.375 157.511719 L 473.359375 156.984375 L 548.453125 12.84375 L 559.414062 71.839844 L 615.691406 102.28125 L 644.199219 176.808594 L 805.472656 56.007812 L 806.160156 56.925781 Z M 643.671875 178.632812 "/></g><path style=" stroke:none;fill-rule:nonzero;fill:#f0a93e;fill-opacity:1;" d="M 446.566406 96.542969 L 445.738281 95.753906 L 533.617188 3.433594 L 559.125 75.171875 L 558.046875 75.554688 L 533.164062 5.570312 Z M 446.566406 96.542969 "/><path style=" stroke:none;fill-rule:nonzero;fill:#f0a93e;fill-opacity:1;" d="M 690.285156 158.234375 L 643.496094 137.828125 L 643.957031 136.777344 L 688.65625 156.277344 L 680.277344 120.03125 L 642.089844 136.953125 L 613.90625 102.566406 L 614.792969 101.839844 L 642.421875 135.550781 L 681.082031 118.425781 Z M 690.285156 158.234375 "/><path style=" stroke:none;fill-rule:nonzero;fill:#f0a93e;fill-opacity:1;" d="M 642.550781 135.140625 L 642.378906 134.007812 L 730.171875 120.808594 L 758.804688 93.007812 L 759.601562 93.832031 L 730.707031 121.882812 Z M 642.550781 135.140625 "/><path style=" stroke:none;fill-rule:nonzero;fill:#f0a93e;fill-opacity:1;" d="M 730.425781 121.917969 L 730.375 121.914062 L 679.203125 116.246094 L 679.273438 115.105469 L 788.609375 116.785156 L 788.640625 117.925781 Z M 691.296875 116.433594 L 730.453125 120.769531 L 774.949219 117.71875 Z M 691.296875 116.433594 "/><g clip-rule="nonzero" clip-path="url(#3c1dcead76)"><path style=" stroke:none;fill-rule:nonzero;fill:#f0a93e;fill-opacity:1;" d="M 716.21875 198.488281 L 729.855469 121.222656 L 730.980469 121.421875 L 717.34375 198.6875 Z M 716.21875 198.488281 "/></g><g clip-rule="nonzero" clip-path="url(#d5fec46a29)"><path style=" stroke:none;fill-rule:nonzero;fill:#f0a93e;fill-opacity:1;" d="M 767.296875 81.628906 L 767.527344 80.503906 L 841.851562 95.621094 L 841.625 96.742188 Z M 767.296875 81.628906 "/></g><g clip-rule="nonzero" clip-path="url(#92c2b7a273)"><path style=" stroke:none;fill-rule:nonzero;fill:#f0a93e;fill-opacity:1;" d="M 788.089844 120.210938 L 820.214844 60.792969 L 821.222656 61.335938 L 789.097656 120.753906 Z M 788.089844 120.210938 "/></g><path style=" stroke:none;fill-rule:nonzero;fill:#f0a93e;fill-opacity:1;" d="M 30.425781 114.417969 C 30.425781 114.84375 30.386719 115.265625 30.300781 115.6875 C 30.21875 116.105469 30.09375 116.511719 29.929688 116.90625 C 29.769531 117.300781 29.566406 117.675781 29.328125 118.03125 C 29.09375 118.386719 28.824219 118.714844 28.519531 119.019531 C 28.21875 119.320312 27.890625 119.589844 27.535156 119.828125 C 27.179688 120.066406 26.804688 120.265625 26.410156 120.429688 C 26.015625 120.59375 25.605469 120.71875 25.1875 120.800781 C 24.769531 120.882812 24.34375 120.925781 23.917969 120.925781 C 23.492188 120.925781 23.066406 120.882812 22.648438 120.800781 C 22.230469 120.71875 21.820312 120.59375 21.425781 120.429688 C 21.03125 120.265625 20.65625 120.066406 20.300781 119.828125 C 19.945312 119.589844 19.617188 119.320312 19.316406 119.019531 C 19.011719 118.714844 18.742188 118.386719 18.503906 118.03125 C 18.269531 117.675781 18.066406 117.300781 17.902344 116.90625 C 17.742188 116.511719 17.617188 116.105469 17.535156 115.6875 C 17.449219 115.265625 17.410156 114.84375 17.410156 114.417969 C 17.410156 113.988281 17.449219 113.566406 17.535156 113.148438 C 17.617188 112.726562 17.742188 112.320312 17.902344 111.925781 C 18.066406 111.53125 18.269531 111.15625 18.503906 110.800781 C 18.742188 110.445312 19.011719 110.117188 19.316406 109.8125 C 19.617188 109.511719 19.945312 109.242188 20.300781 109.003906 C 20.65625 108.765625 21.03125 108.566406 21.425781 108.402344 C 21.820312 108.238281 22.230469 108.117188 22.648438 108.03125 C 23.066406 107.949219 23.492188 107.90625 23.917969 107.90625 C 24.34375 107.90625 24.769531 107.949219 25.1875 108.03125 C 25.605469 108.117188 26.015625 108.238281 26.410156 108.402344 C 26.804688 108.566406 27.179688 108.765625 27.535156 109.003906 C 27.890625 109.242188 28.21875 109.511719 28.519531 109.8125 C 28.824219 110.117188 29.09375 110.445312 29.328125 110.800781 C 29.566406 111.15625 29.769531 111.53125 29.929688 111.925781 C 30.09375 112.320312 30.21875 112.726562 30.300781 113.148438 C 30.386719 113.566406 30.425781 113.988281 30.425781 114.417969 Z M 30.425781 114.417969 "/><path style=" stroke:none;fill-rule:nonzero;fill:#f0a93e;fill-opacity:1;" d="M 25.582031 143.308594 C 25.582031 143.632812 25.550781 143.953125 25.488281 144.269531 C 25.421875 144.585938 25.328125 144.894531 25.207031 145.195312 C 25.082031 145.492188 24.929688 145.777344 24.75 146.046875 C 24.570312 146.316406 24.367188 146.566406 24.136719 146.792969 C 23.90625 147.023438 23.660156 147.226562 23.390625 147.40625 C 23.121094 147.585938 22.835938 147.738281 22.535156 147.863281 C 22.238281 147.988281 21.929688 148.082031 21.613281 148.144531 C 21.292969 148.207031 20.972656 148.238281 20.648438 148.238281 C 20.328125 148.238281 20.003906 148.207031 19.6875 148.144531 C 19.371094 148.082031 19.0625 147.988281 18.761719 147.863281 C 18.464844 147.738281 18.179688 147.585938 17.910156 147.40625 C 17.640625 147.226562 17.390625 147.023438 17.164062 146.792969 C 16.933594 146.566406 16.730469 146.316406 16.550781 146.046875 C 16.371094 145.777344 16.21875 145.492188 16.09375 145.195312 C 15.96875 144.894531 15.875 144.585938 15.8125 144.269531 C 15.75 143.953125 15.71875 143.632812 15.71875 143.308594 C 15.71875 142.984375 15.75 142.664062 15.8125 142.347656 C 15.875 142.027344 15.96875 141.71875 16.09375 141.421875 C 16.21875 141.121094 16.371094 140.835938 16.550781 140.566406 C 16.730469 140.300781 16.933594 140.050781 17.164062 139.820312 C 17.390625 139.59375 17.640625 139.386719 17.910156 139.207031 C 18.179688 139.027344 18.464844 138.875 18.761719 138.75 C 19.0625 138.628906 19.371094 138.535156 19.6875 138.472656 C 20.003906 138.40625 20.328125 138.375 20.648438 138.375 C 20.972656 138.375 21.292969 138.40625 21.613281 138.472656 C 21.929688 138.535156 22.238281 138.628906 22.535156 138.75 C 22.835938 138.875 23.121094 139.027344 23.390625 139.207031 C 23.660156 139.386719 23.90625 139.59375 24.136719 139.820312 C 24.367188 140.050781 24.570312 140.300781 24.75 140.566406 C 24.929688 140.835938 25.082031 141.121094 25.207031 141.421875 C 25.328125 141.71875 25.421875 142.027344 25.488281 142.347656 C 25.550781 142.664062 25.582031 142.984375 25.582031 143.308594 Z M 25.582031 143.308594 "/><g clip-rule="nonzero" clip-path="url(#e8d7d84587)"><path style=" stroke:none;fill-rule:nonzero;fill:#f0a93e;fill-opacity:1;" d="M 71.371094 185.175781 C 71.371094 185.617188 71.328125 186.050781 71.242188 186.484375 C 71.15625 186.917969 71.027344 187.335938 70.859375 187.746094 C 70.691406 188.152344 70.484375 188.539062 70.238281 188.90625 C 69.992188 189.273438 69.714844 189.613281 69.402344 189.925781 C 69.089844 190.238281 68.75 190.515625 68.382812 190.761719 C 68.015625 191.007812 67.628906 191.214844 67.222656 191.382812 C 66.816406 191.550781 66.394531 191.679688 65.960938 191.765625 C 65.53125 191.851562 65.09375 191.894531 64.652344 191.894531 C 64.210938 191.894531 63.773438 191.851562 63.339844 191.765625 C 62.90625 191.679688 62.488281 191.550781 62.078125 191.382812 C 61.671875 191.214844 61.285156 191.007812 60.917969 190.761719 C 60.550781 190.515625 60.210938 190.238281 59.898438 189.925781 C 59.589844 189.613281 59.308594 189.273438 59.066406 188.90625 C 58.820312 188.539062 58.613281 188.152344 58.445312 187.746094 C 58.273438 187.335938 58.148438 186.917969 58.0625 186.484375 C 57.976562 186.050781 57.933594 185.617188 57.933594 185.175781 C 57.933594 184.734375 57.976562 184.296875 58.0625 183.863281 C 58.148438 183.429688 58.273438 183.011719 58.445312 182.601562 C 58.613281 182.195312 58.820312 181.808594 59.066406 181.441406 C 59.308594 181.074219 59.589844 180.734375 59.898438 180.421875 C 60.210938 180.109375 60.550781 179.832031 60.917969 179.585938 C 61.285156 179.34375 61.671875 179.136719 62.078125 178.964844 C 62.488281 178.796875 62.90625 178.671875 63.339844 178.585938 C 63.773438 178.496094 64.210938 178.453125 64.652344 178.453125 C 65.09375 178.453125 65.53125 178.496094 65.960938 178.585938 C 66.394531 178.671875 66.816406 178.796875 67.222656 178.964844 C 67.628906 179.136719 68.015625 179.34375 68.382812 179.585938 C 68.75 179.832031 69.089844 180.109375 69.402344 180.421875 C 69.714844 180.734375 69.992188 181.074219 70.238281 181.441406 C 70.484375 181.808594 70.691406 182.195312 70.859375 182.601562 C 71.027344 183.011719 71.15625 183.429688 71.242188 183.863281 C 71.328125 184.296875 71.371094 184.734375 71.371094 185.175781 Z M 71.371094 185.175781 "/></g><path style=" stroke:none;fill-rule:nonzero;fill:#f0a93e;fill-opacity:1;" d="M 85.644531 137.617188 C 85.644531 138.1875 85.589844 138.757812 85.476562 139.316406 C 85.367188 139.878906 85.203125 140.421875 84.984375 140.953125 C 84.761719 141.480469 84.496094 141.984375 84.175781 142.457031 C 83.859375 142.933594 83.5 143.375 83.09375 143.777344 C 82.6875 144.183594 82.25 144.542969 81.773438 144.863281 C 81.296875 145.179688 80.796875 145.449219 80.265625 145.667969 C 79.738281 145.886719 79.195312 146.050781 78.632812 146.164062 C 78.070312 146.273438 77.503906 146.332031 76.933594 146.332031 C 76.359375 146.332031 75.792969 146.273438 75.234375 146.164062 C 74.671875 146.050781 74.125 145.886719 73.597656 145.667969 C 73.070312 145.449219 72.566406 145.179688 72.089844 144.863281 C 71.617188 144.542969 71.175781 144.183594 70.769531 143.777344 C 70.367188 143.375 70.003906 142.933594 69.6875 142.457031 C 69.371094 141.984375 69.101562 141.480469 68.882812 140.953125 C 68.664062 140.421875 68.5 139.878906 68.386719 139.316406 C 68.273438 138.757812 68.21875 138.1875 68.21875 137.617188 C 68.21875 137.046875 68.273438 136.480469 68.386719 135.917969 C 68.5 135.355469 68.664062 134.8125 68.882812 134.28125 C 69.101562 133.753906 69.371094 133.253906 69.6875 132.777344 C 70.003906 132.300781 70.367188 131.859375 70.769531 131.457031 C 71.175781 131.050781 71.617188 130.691406 72.089844 130.371094 C 72.566406 130.054688 73.070312 129.785156 73.597656 129.566406 C 74.125 129.347656 74.671875 129.183594 75.234375 129.070312 C 75.792969 128.960938 76.359375 128.902344 76.933594 128.902344 C 77.503906 128.902344 78.070312 128.960938 78.632812 129.070312 C 79.195312 129.183594 79.738281 129.347656 80.265625 129.566406 C 80.796875 129.785156 81.296875 130.054688 81.773438 130.371094 C 82.25 130.691406 82.6875 131.050781 83.09375 131.457031 C 83.5 131.859375 83.859375 132.300781 84.175781 132.777344 C 84.496094 133.253906 84.761719 133.753906 84.984375 134.28125 C 85.203125 134.8125 85.367188 135.355469 85.476562 135.917969 C 85.589844 136.480469 85.644531 137.046875 85.644531 137.617188 Z M 85.644531 137.617188 "/><path style=" stroke:none;fill-rule:nonzero;fill:#f0a93e;fill-opacity:1;" d="M 128.269531 157.355469 C 128.269531 157.707031 128.234375 158.054688 128.167969 158.398438 C 128.097656 158.742188 127.996094 159.078125 127.863281 159.402344 C 127.726562 159.726562 127.5625 160.035156 127.367188 160.328125 C 127.171875 160.621094 126.949219 160.890625 126.703125 161.140625 C 126.453125 161.386719 126.183594 161.609375 125.890625 161.804688 C 125.597656 162 125.289062 162.167969 124.964844 162.300781 C 124.640625 162.433594 124.304688 162.535156 123.960938 162.605469 C 123.617188 162.675781 123.265625 162.707031 122.914062 162.707031 C 122.5625 162.707031 122.214844 162.675781 121.871094 162.605469 C 121.527344 162.535156 121.191406 162.433594 120.867188 162.300781 C 120.542969 162.167969 120.234375 162 119.941406 161.804688 C 119.648438 161.609375 119.378906 161.386719 119.128906 161.140625 C 118.882812 160.890625 118.660156 160.621094 118.464844 160.328125 C 118.269531 160.035156 118.105469 159.726562 117.96875 159.402344 C 117.835938 159.078125 117.734375 158.742188 117.664062 158.398438 C 117.597656 158.054688 117.5625 157.707031 117.5625 157.355469 C 117.5625 157.003906 117.597656 156.65625 117.664062 156.308594 C 117.734375 155.964844 117.835938 155.628906 117.96875 155.304688 C 118.105469 154.980469 118.269531 154.671875 118.464844 154.378906 C 118.660156 154.085938 118.882812 153.816406 119.128906 153.570312 C 119.378906 153.320312 119.648438 153.097656 119.941406 152.902344 C 120.234375 152.707031 120.542969 152.542969 120.867188 152.410156 C 121.191406 152.273438 121.527344 152.171875 121.871094 152.105469 C 122.214844 152.035156 122.5625 152 122.914062 152 C 123.265625 152 123.617188 152.035156 123.960938 152.105469 C 124.304688 152.171875 124.640625 152.273438 124.964844 152.410156 C 125.289062 152.542969 125.597656 152.707031 125.890625 152.902344 C 126.183594 153.097656 126.453125 153.320312 126.703125 153.570312 C 126.949219 153.816406 127.171875 154.085938 127.367188 154.378906 C 127.5625 154.671875 127.726562 154.980469 127.863281 155.304688 C 127.996094 155.628906 128.097656 155.964844 128.167969 156.308594 C 128.234375 156.65625 128.269531 157.003906 128.269531 157.355469 Z M 128.269531 157.355469 "/><path style=" stroke:none;fill-rule:nonzero;fill:#f0a93e;fill-opacity:1;" d="M 141.601562 114.992188 C 141.601562 115.382812 141.5625 115.769531 141.488281 116.152344 C 141.410156 116.535156 141.300781 116.902344 141.148438 117.265625 C 141 117.625 140.820312 117.964844 140.601562 118.289062 C 140.386719 118.613281 140.140625 118.914062 139.863281 119.1875 C 139.589844 119.464844 139.289062 119.710938 138.964844 119.925781 C 138.640625 120.140625 138.300781 120.324219 137.941406 120.472656 C 137.582031 120.621094 137.210938 120.734375 136.828125 120.8125 C 136.445312 120.886719 136.058594 120.925781 135.671875 120.925781 C 135.28125 120.925781 134.894531 120.886719 134.511719 120.8125 C 134.132812 120.734375 133.761719 120.621094 133.402344 120.472656 C 133.039062 120.324219 132.699219 120.140625 132.375 119.925781 C 132.050781 119.710938 131.75 119.464844 131.476562 119.1875 C 131.199219 118.914062 130.953125 118.613281 130.738281 118.289062 C 130.523438 117.964844 130.339844 117.625 130.191406 117.265625 C 130.042969 116.902344 129.929688 116.535156 129.851562 116.152344 C 129.777344 115.769531 129.738281 115.382812 129.738281 114.992188 C 129.738281 114.605469 129.777344 114.21875 129.851562 113.835938 C 129.929688 113.453125 130.042969 113.085938 130.191406 112.722656 C 130.339844 112.363281 130.523438 112.023438 130.738281 111.699219 C 130.953125 111.375 131.199219 111.074219 131.476562 110.800781 C 131.75 110.523438 132.050781 110.277344 132.375 110.0625 C 132.699219 109.847656 133.039062 109.664062 133.402344 109.515625 C 133.761719 109.363281 134.132812 109.253906 134.511719 109.175781 C 134.894531 109.101562 135.28125 109.0625 135.671875 109.0625 C 136.058594 109.0625 136.445312 109.101562 136.828125 109.175781 C 137.210938 109.253906 137.582031 109.363281 137.941406 109.515625 C 138.300781 109.664062 138.640625 109.847656 138.964844 110.0625 C 139.289062 110.277344 139.589844 110.523438 139.863281 110.800781 C 140.140625 111.074219 140.386719 111.375 140.601562 111.699219 C 140.820312 112.023438 141 112.363281 141.148438 112.722656 C 141.300781 113.085938 141.410156 113.453125 141.488281 113.835938 C 141.5625 114.21875 141.601562 114.605469 141.601562 114.992188 Z M 141.601562 114.992188 "/><path style=" stroke:none;fill-rule:nonzero;fill:#f0a93e;fill-opacity:1;" d="M 174.667969 100.347656 C 174.667969 100.734375 174.632812 101.117188 174.554688 101.496094 C 174.480469 101.875 174.371094 102.242188 174.222656 102.597656 C 174.074219 102.957031 173.894531 103.292969 173.679688 103.613281 C 173.464844 103.9375 173.21875 104.234375 172.949219 104.507812 C 172.675781 104.777344 172.378906 105.023438 172.054688 105.238281 C 171.734375 105.453125 171.398438 105.632812 171.039062 105.78125 C 170.683594 105.929688 170.316406 106.039062 169.9375 106.113281 C 169.558594 106.191406 169.175781 106.226562 168.789062 106.226562 C 168.40625 106.226562 168.023438 106.191406 167.644531 106.113281 C 167.265625 106.039062 166.898438 105.929688 166.542969 105.78125 C 166.183594 105.632812 165.847656 105.453125 165.523438 105.238281 C 165.203125 105.023438 164.90625 104.777344 164.632812 104.507812 C 164.359375 104.234375 164.117188 103.9375 163.902344 103.613281 C 163.6875 103.292969 163.507812 102.957031 163.359375 102.597656 C 163.210938 102.242188 163.101562 101.875 163.027344 101.496094 C 162.949219 101.117188 162.914062 100.734375 162.914062 100.347656 C 162.914062 99.964844 162.949219 99.582031 163.027344 99.203125 C 163.101562 98.824219 163.210938 98.457031 163.359375 98.101562 C 163.507812 97.742188 163.6875 97.40625 163.902344 97.082031 C 164.117188 96.761719 164.359375 96.464844 164.632812 96.191406 C 164.90625 95.917969 165.203125 95.675781 165.523438 95.460938 C 165.847656 95.246094 166.183594 95.066406 166.542969 94.917969 C 166.898438 94.769531 167.265625 94.660156 167.644531 94.585938 C 168.023438 94.507812 168.40625 94.472656 168.789062 94.472656 C 169.175781 94.472656 169.558594 94.507812 169.9375 94.585938 C 170.316406 94.660156 170.683594 94.769531 171.039062 94.917969 C 171.398438 95.066406 171.734375 95.246094 172.054688 95.460938 C 172.378906 95.675781 172.675781 95.917969 172.949219 96.191406 C 173.21875 96.464844 173.464844 96.761719 173.679688 97.082031 C 173.894531 97.40625 174.074219 97.742188 174.222656 98.101562 C 174.371094 98.457031 174.480469 98.824219 174.554688 99.203125 C 174.632812 99.582031 174.667969 99.964844 174.667969 100.347656 Z M 174.667969 100.347656 "/><path style=" stroke:none;fill-rule:nonzero;fill:#f0a93e;fill-opacity:1;" d="M 194.003906 138.570312 C 194.003906 139.207031 193.941406 139.832031 193.816406 140.457031 C 193.695312 141.078125 193.511719 141.683594 193.269531 142.269531 C 193.023438 142.855469 192.726562 143.414062 192.375 143.941406 C 192.023438 144.46875 191.621094 144.957031 191.171875 145.40625 C 190.722656 145.855469 190.234375 146.253906 189.707031 146.609375 C 189.179688 146.960938 188.625 147.257812 188.035156 147.5 C 187.449219 147.742188 186.847656 147.925781 186.222656 148.050781 C 185.601562 148.175781 184.972656 148.238281 184.335938 148.238281 C 183.703125 148.238281 183.074219 148.175781 182.453125 148.050781 C 181.828125 147.925781 181.226562 147.742188 180.636719 147.5 C 180.050781 147.257812 179.496094 146.960938 178.96875 146.609375 C 178.4375 146.253906 177.949219 145.855469 177.503906 145.40625 C 177.054688 144.957031 176.652344 144.46875 176.300781 143.941406 C 175.949219 143.414062 175.648438 142.855469 175.40625 142.269531 C 175.164062 141.683594 174.980469 141.078125 174.855469 140.457031 C 174.734375 139.832031 174.671875 139.207031 174.671875 138.570312 C 174.671875 137.9375 174.734375 137.308594 174.855469 136.683594 C 174.980469 136.0625 175.164062 135.457031 175.40625 134.871094 C 175.648438 134.285156 175.949219 133.726562 176.300781 133.199219 C 176.652344 132.671875 177.054688 132.183594 177.503906 131.734375 C 177.949219 131.285156 178.4375 130.886719 178.96875 130.53125 C 179.496094 130.179688 180.050781 129.882812 180.636719 129.640625 C 181.226562 129.398438 181.828125 129.214844 182.453125 129.089844 C 183.074219 128.964844 183.703125 128.902344 184.335938 128.902344 C 184.972656 128.902344 185.601562 128.964844 186.222656 129.089844 C 186.847656 129.214844 187.449219 129.398438 188.035156 129.640625 C 188.625 129.882812 189.179688 130.179688 189.707031 130.53125 C 190.234375 130.886719 190.722656 131.285156 191.171875 131.734375 C 191.621094 132.183594 192.023438 132.671875 192.375 133.199219 C 192.726562 133.726562 193.023438 134.285156 193.269531 134.871094 C 193.511719 135.457031 193.695312 136.0625 193.816406 136.683594 C 193.941406 137.308594 194.003906 137.9375 194.003906 138.570312 Z M 194.003906 138.570312 "/><path style=" stroke:none;fill-rule:nonzero;fill:#f0a93e;fill-opacity:1;" d="M 113.59375 72.617188 C 113.59375 72.945312 113.558594 73.273438 113.496094 73.597656 C 113.429688 73.921875 113.335938 74.238281 113.207031 74.542969 C 113.082031 74.847656 112.925781 75.140625 112.742188 75.414062 C 112.558594 75.691406 112.351562 75.945312 112.117188 76.179688 C 111.882812 76.414062 111.628906 76.621094 111.351562 76.804688 C 111.078125 76.988281 110.785156 77.144531 110.480469 77.269531 C 110.175781 77.398438 109.859375 77.492188 109.535156 77.558594 C 109.210938 77.621094 108.882812 77.65625 108.550781 77.65625 C 108.222656 77.65625 107.894531 77.621094 107.570312 77.558594 C 107.246094 77.492188 106.929688 77.398438 106.625 77.269531 C 106.320312 77.144531 106.027344 76.988281 105.753906 76.804688 C 105.476562 76.621094 105.222656 76.414062 104.988281 76.179688 C 104.753906 75.945312 104.546875 75.691406 104.363281 75.414062 C 104.179688 75.140625 104.023438 74.847656 103.898438 74.542969 C 103.769531 74.238281 103.675781 73.921875 103.609375 73.597656 C 103.546875 73.273438 103.511719 72.945312 103.511719 72.617188 C 103.511719 72.285156 103.546875 71.957031 103.609375 71.632812 C 103.675781 71.308594 103.769531 70.992188 103.898438 70.6875 C 104.023438 70.382812 104.179688 70.089844 104.363281 69.816406 C 104.546875 69.539062 104.753906 69.285156 104.988281 69.050781 C 105.222656 68.816406 105.476562 68.609375 105.753906 68.425781 C 106.027344 68.242188 106.320312 68.085938 106.625 67.960938 C 106.929688 67.832031 107.246094 67.738281 107.570312 67.671875 C 107.894531 67.609375 108.222656 67.574219 108.550781 67.574219 C 108.882812 67.574219 109.210938 67.609375 109.535156 67.671875 C 109.859375 67.738281 110.175781 67.832031 110.480469 67.960938 C 110.785156 68.085938 111.078125 68.242188 111.351562 68.425781 C 111.628906 68.609375 111.882812 68.816406 112.117188 69.050781 C 112.351562 69.285156 112.558594 69.539062 112.742188 69.816406 C 112.925781 70.089844 113.082031 70.382812 113.207031 70.6875 C 113.335938 70.992188 113.429688 71.308594 113.496094 71.632812 C 113.558594 71.957031 113.59375 72.285156 113.59375 72.617188 Z M 113.59375 72.617188 "/><path style=" stroke:none;fill-rule:nonzero;fill:#f0a93e;fill-opacity:1;" d="M 205.117188 52.371094 C 205.117188 52.667969 205.085938 52.960938 205.027344 53.253906 C 204.972656 53.542969 204.886719 53.824219 204.773438 54.101562 C 204.660156 54.375 204.519531 54.632812 204.355469 54.878906 C 204.191406 55.125 204.003906 55.355469 203.792969 55.566406 C 203.582031 55.773438 203.355469 55.960938 203.109375 56.125 C 202.863281 56.289062 202.601562 56.429688 202.328125 56.542969 C 202.054688 56.65625 201.773438 56.742188 201.480469 56.800781 C 201.191406 56.859375 200.898438 56.886719 200.601562 56.886719 C 200.304688 56.886719 200.011719 56.859375 199.71875 56.800781 C 199.429688 56.742188 199.148438 56.65625 198.871094 56.542969 C 198.597656 56.429688 198.339844 56.289062 198.09375 56.125 C 197.847656 55.960938 197.617188 55.773438 197.410156 55.566406 C 197.199219 55.355469 197.011719 55.125 196.847656 54.878906 C 196.683594 54.632812 196.542969 54.375 196.429688 54.101562 C 196.316406 53.824219 196.230469 53.542969 196.171875 53.253906 C 196.113281 52.960938 196.085938 52.667969 196.085938 52.371094 C 196.085938 52.074219 196.113281 51.78125 196.171875 51.492188 C 196.230469 51.199219 196.316406 50.917969 196.429688 50.644531 C 196.542969 50.371094 196.683594 50.109375 196.847656 49.863281 C 197.011719 49.617188 197.199219 49.390625 197.410156 49.179688 C 197.617188 48.96875 197.847656 48.78125 198.09375 48.617188 C 198.339844 48.453125 198.597656 48.3125 198.871094 48.199219 C 199.148438 48.085938 199.429688 48 199.71875 47.945312 C 200.011719 47.886719 200.304688 47.855469 200.601562 47.855469 C 200.898438 47.855469 201.191406 47.886719 201.480469 47.945312 C 201.773438 48 202.054688 48.085938 202.328125 48.199219 C 202.601562 48.3125 202.863281 48.453125 203.109375 48.617188 C 203.355469 48.78125 203.582031 48.96875 203.792969 49.179688 C 204.003906 49.390625 204.191406 49.617188 204.355469 49.863281 C 204.519531 50.109375 204.660156 50.371094 204.773438 50.644531 C 204.886719 50.917969 204.972656 51.199219 205.027344 51.492188 C 205.085938 51.78125 205.117188 52.074219 205.117188 52.371094 Z M 205.117188 52.371094 "/><path style=" stroke:none;fill-rule:nonzero;fill:#f0a93e;fill-opacity:1;" d="M 206.585938 115.988281 C 206.585938 116.257812 206.558594 116.523438 206.507812 116.789062 C 206.453125 117.050781 206.375 117.308594 206.273438 117.558594 C 206.171875 117.804688 206.042969 118.042969 205.894531 118.265625 C 205.746094 118.488281 205.574219 118.695312 205.386719 118.886719 C 205.195312 119.074219 204.988281 119.246094 204.765625 119.394531 C 204.542969 119.542969 204.304688 119.671875 204.058594 119.773438 C 203.808594 119.875 203.554688 119.953125 203.289062 120.003906 C 203.027344 120.058594 202.757812 120.085938 202.492188 120.085938 C 202.222656 120.085938 201.957031 120.058594 201.691406 120.003906 C 201.429688 119.953125 201.171875 119.875 200.925781 119.773438 C 200.675781 119.671875 200.441406 119.542969 200.214844 119.394531 C 199.992188 119.246094 199.785156 119.074219 199.59375 118.886719 C 199.40625 118.695312 199.234375 118.488281 199.085938 118.265625 C 198.9375 118.042969 198.8125 117.804688 198.707031 117.558594 C 198.605469 117.308594 198.527344 117.050781 198.476562 116.789062 C 198.421875 116.523438 198.394531 116.257812 198.394531 115.988281 C 198.394531 115.722656 198.421875 115.453125 198.476562 115.191406 C 198.527344 114.925781 198.605469 114.671875 198.707031 114.421875 C 198.8125 114.175781 198.9375 113.9375 199.085938 113.714844 C 199.234375 113.492188 199.40625 113.285156 199.59375 113.09375 C 199.785156 112.90625 199.992188 112.734375 200.214844 112.585938 C 200.441406 112.4375 200.675781 112.308594 200.925781 112.207031 C 201.171875 112.105469 201.429688 112.027344 201.691406 111.972656 C 201.957031 111.921875 202.222656 111.894531 202.492188 111.894531 C 202.757812 111.894531 203.027344 111.921875 203.289062 111.972656 C 203.554688 112.027344 203.808594 112.105469 204.058594 112.207031 C 204.304688 112.308594 204.542969 112.4375 204.765625 112.585938 C 204.988281 112.734375 205.195312 112.90625 205.386719 113.09375 C 205.574219 113.285156 205.746094 113.492188 205.894531 113.714844 C 206.042969 113.9375 206.171875 114.175781 206.273438 114.421875 C 206.375 114.671875 206.453125 114.925781 206.507812 115.191406 C 206.558594 115.453125 206.585938 115.722656 206.585938 115.988281 Z M 206.585938 115.988281 "/><path style=" stroke:none;fill-rule:nonzero;fill:#f0a93e;fill-opacity:1;" d="M 244.347656 108.324219 C 244.347656 108.628906 244.320312 108.933594 244.257812 109.234375 C 244.199219 109.535156 244.109375 109.828125 243.992188 110.113281 C 243.875 110.394531 243.730469 110.664062 243.5625 110.917969 C 243.390625 111.175781 243.199219 111.410156 242.980469 111.628906 C 242.765625 111.84375 242.527344 112.039062 242.273438 112.207031 C 242.015625 112.378906 241.75 112.523438 241.464844 112.640625 C 241.179688 112.757812 240.890625 112.847656 240.589844 112.90625 C 240.289062 112.964844 239.984375 112.996094 239.675781 112.996094 C 239.371094 112.996094 239.066406 112.964844 238.765625 112.90625 C 238.464844 112.847656 238.171875 112.757812 237.890625 112.640625 C 237.605469 112.523438 237.335938 112.378906 237.082031 112.207031 C 236.828125 112.039062 236.589844 111.84375 236.375 111.628906 C 236.15625 111.410156 235.960938 111.175781 235.792969 110.917969 C 235.621094 110.664062 235.476562 110.394531 235.359375 110.113281 C 235.242188 109.828125 235.15625 109.535156 235.09375 109.234375 C 235.035156 108.933594 235.003906 108.628906 235.003906 108.324219 C 235.003906 108.015625 235.035156 107.714844 235.09375 107.414062 C 235.15625 107.113281 235.242188 106.820312 235.359375 106.535156 C 235.476562 106.253906 235.621094 105.984375 235.792969 105.726562 C 235.960938 105.472656 236.15625 105.238281 236.375 105.019531 C 236.589844 104.804688 236.828125 104.609375 237.082031 104.4375 C 237.335938 104.269531 237.605469 104.125 237.890625 104.007812 C 238.171875 103.890625 238.464844 103.800781 238.765625 103.742188 C 239.066406 103.683594 239.371094 103.652344 239.675781 103.652344 C 239.984375 103.652344 240.289062 103.683594 240.589844 103.742188 C 240.890625 103.800781 241.179688 103.890625 241.464844 104.007812 C 241.75 104.125 242.015625 104.269531 242.273438 104.4375 C 242.527344 104.609375 242.765625 104.804688 242.980469 105.019531 C 243.199219 105.238281 243.390625 105.472656 243.5625 105.726562 C 243.730469 105.984375 243.875 106.253906 243.992188 106.535156 C 244.109375 106.820312 244.199219 107.113281 244.257812 107.414062 C 244.320312 107.714844 244.347656 108.015625 244.347656 108.324219 Z M 244.347656 108.324219 "/><path style=" stroke:none;fill-rule:nonzero;fill:#f0a93e;fill-opacity:1;" d="M 250.738281 173.070312 C 250.738281 173.433594 250.703125 173.792969 250.632812 174.148438 C 250.5625 174.507812 250.457031 174.851562 250.320312 175.1875 C 250.179688 175.523438 250.007812 175.839844 249.808594 176.144531 C 249.605469 176.445312 249.375 176.726562 249.121094 176.980469 C 248.863281 177.238281 248.582031 177.46875 248.28125 177.667969 C 247.980469 177.871094 247.660156 178.042969 247.324219 178.179688 C 246.988281 178.320312 246.644531 178.425781 246.289062 178.496094 C 245.929688 178.566406 245.570312 178.601562 245.207031 178.601562 C 244.84375 178.601562 244.484375 178.566406 244.128906 178.496094 C 243.773438 178.425781 243.425781 178.320312 243.089844 178.179688 C 242.757812 178.042969 242.4375 177.871094 242.136719 177.667969 C 241.832031 177.46875 241.554688 177.238281 241.296875 176.980469 C 241.039062 176.726562 240.8125 176.445312 240.609375 176.144531 C 240.40625 175.839844 240.238281 175.523438 240.097656 175.1875 C 239.960938 174.851562 239.855469 174.507812 239.785156 174.148438 C 239.710938 173.792969 239.675781 173.433594 239.675781 173.070312 C 239.675781 172.707031 239.710938 172.347656 239.785156 171.992188 C 239.855469 171.636719 239.960938 171.289062 240.097656 170.953125 C 240.238281 170.617188 240.40625 170.300781 240.609375 169.996094 C 240.8125 169.695312 241.039062 169.417969 241.296875 169.160156 C 241.554688 168.902344 241.832031 168.671875 242.136719 168.472656 C 242.4375 168.269531 242.757812 168.097656 243.089844 167.960938 C 243.425781 167.820312 243.773438 167.714844 244.128906 167.644531 C 244.484375 167.574219 244.84375 167.539062 245.207031 167.539062 C 245.570312 167.539062 245.929688 167.574219 246.289062 167.644531 C 246.644531 167.714844 246.988281 167.820312 247.324219 167.960938 C 247.660156 168.097656 247.980469 168.269531 248.28125 168.472656 C 248.582031 168.671875 248.863281 168.902344 249.121094 169.160156 C 249.375 169.417969 249.605469 169.695312 249.808594 169.996094 C 250.007812 170.300781 250.179688 170.617188 250.320312 170.953125 C 250.457031 171.289062 250.5625 171.636719 250.632812 171.992188 C 250.703125 172.347656 250.738281 172.707031 250.738281 173.070312 Z M 250.738281 173.070312 "/><path style=" stroke:none;fill-rule:nonzero;fill:#f0a93e;fill-opacity:1;" d="M 269.78125 134.78125 C 269.78125 135.167969 269.746094 135.550781 269.667969 135.929688 C 269.59375 136.308594 269.484375 136.675781 269.335938 137.03125 C 269.1875 137.386719 269.007812 137.726562 268.792969 138.046875 C 268.578125 138.367188 268.335938 138.664062 268.0625 138.9375 C 267.789062 139.210938 267.492188 139.457031 267.171875 139.667969 C 266.847656 139.882812 266.511719 140.066406 266.152344 140.214844 C 265.796875 140.359375 265.429688 140.472656 265.050781 140.546875 C 264.671875 140.621094 264.289062 140.660156 263.90625 140.660156 C 263.519531 140.660156 263.136719 140.621094 262.757812 140.546875 C 262.378906 140.472656 262.011719 140.359375 261.65625 140.214844 C 261.296875 140.066406 260.960938 139.882812 260.640625 139.667969 C 260.316406 139.457031 260.019531 139.210938 259.746094 138.9375 C 259.476562 138.664062 259.230469 138.367188 259.015625 138.046875 C 258.800781 137.726562 258.621094 137.386719 258.472656 137.03125 C 258.324219 136.675781 258.214844 136.308594 258.140625 135.929688 C 258.0625 135.550781 258.027344 135.167969 258.027344 134.78125 C 258.027344 134.394531 258.0625 134.015625 258.140625 133.636719 C 258.214844 133.257812 258.324219 132.890625 258.472656 132.53125 C 258.621094 132.175781 258.800781 131.835938 259.015625 131.515625 C 259.230469 131.195312 259.476562 130.898438 259.746094 130.625 C 260.019531 130.351562 260.316406 130.109375 260.640625 129.894531 C 260.960938 129.679688 261.296875 129.5 261.65625 129.351562 C 262.011719 129.203125 262.378906 129.09375 262.757812 129.015625 C 263.136719 128.941406 263.519531 128.902344 263.90625 128.902344 C 264.289062 128.902344 264.671875 128.941406 265.050781 129.015625 C 265.429688 129.09375 265.796875 129.203125 266.152344 129.351562 C 266.511719 129.5 266.847656 129.679688 267.171875 129.894531 C 267.492188 130.109375 267.789062 130.351562 268.0625 130.625 C 268.335938 130.898438 268.578125 131.195312 268.792969 131.515625 C 269.007812 131.835938 269.1875 132.175781 269.335938 132.53125 C 269.484375 132.890625 269.59375 133.257812 269.667969 133.636719 C 269.746094 134.015625 269.78125 134.394531 269.78125 134.78125 Z M 269.78125 134.78125 "/><path style=" stroke:none;fill-rule:nonzero;fill:#f0a93e;fill-opacity:1;" d="M 280.28125 166.066406 C 280.28125 166.414062 280.25 166.753906 280.179688 167.09375 C 280.113281 167.429688 280.015625 167.757812 279.882812 168.078125 C 279.75 168.394531 279.589844 168.699219 279.398438 168.984375 C 279.207031 169.269531 278.988281 169.535156 278.746094 169.78125 C 278.5 170.023438 278.234375 170.242188 277.949219 170.433594 C 277.664062 170.625 277.359375 170.785156 277.042969 170.917969 C 276.722656 171.050781 276.394531 171.148438 276.054688 171.214844 C 275.71875 171.285156 275.378906 171.316406 275.03125 171.316406 C 274.6875 171.316406 274.347656 171.285156 274.007812 171.214844 C 273.671875 171.148438 273.34375 171.050781 273.023438 170.917969 C 272.703125 170.785156 272.402344 170.625 272.117188 170.433594 C 271.828125 170.242188 271.5625 170.023438 271.320312 169.78125 C 271.078125 169.535156 270.859375 169.269531 270.667969 168.984375 C 270.476562 168.699219 270.3125 168.394531 270.183594 168.078125 C 270.050781 167.757812 269.949219 167.429688 269.882812 167.09375 C 269.816406 166.753906 269.78125 166.414062 269.78125 166.066406 C 269.78125 165.722656 269.816406 165.382812 269.882812 165.042969 C 269.949219 164.707031 270.050781 164.378906 270.183594 164.058594 C 270.3125 163.742188 270.476562 163.4375 270.667969 163.152344 C 270.859375 162.863281 271.078125 162.597656 271.320312 162.355469 C 271.5625 162.113281 271.828125 161.894531 272.117188 161.703125 C 272.402344 161.511719 272.703125 161.351562 273.023438 161.21875 C 273.34375 161.085938 273.671875 160.984375 274.007812 160.917969 C 274.347656 160.851562 274.6875 160.816406 275.03125 160.816406 C 275.378906 160.816406 275.71875 160.851562 276.054688 160.917969 C 276.394531 160.984375 276.722656 161.085938 277.042969 161.21875 C 277.359375 161.351562 277.664062 161.511719 277.949219 161.703125 C 278.234375 161.894531 278.5 162.113281 278.746094 162.355469 C 278.988281 162.597656 279.207031 162.863281 279.398438 163.152344 C 279.589844 163.4375 279.75 163.742188 279.882812 164.058594 C 280.015625 164.378906 280.113281 164.707031 280.179688 165.042969 C 280.25 165.382812 280.28125 165.722656 280.28125 166.066406 Z M 280.28125 166.066406 "/><path style=" stroke:none;fill-rule:nonzero;fill:#f0a93e;fill-opacity:1;" d="M 316.816406 118.40625 C 316.816406 118.832031 316.773438 119.253906 316.691406 119.675781 C 316.605469 120.09375 316.484375 120.5 316.320312 120.894531 C 316.15625 121.289062 315.957031 121.664062 315.71875 122.019531 C 315.480469 122.375 315.210938 122.703125 314.910156 123.007812 C 314.605469 123.308594 314.277344 123.578125 313.921875 123.816406 C 313.566406 124.054688 313.191406 124.253906 312.796875 124.417969 C 312.402344 124.582031 311.996094 124.707031 311.574219 124.789062 C 311.15625 124.871094 310.734375 124.914062 310.304688 124.914062 C 309.878906 124.914062 309.457031 124.871094 309.035156 124.789062 C 308.617188 124.707031 308.210938 124.582031 307.816406 124.417969 C 307.421875 124.253906 307.046875 124.054688 306.691406 123.816406 C 306.335938 123.578125 306.003906 123.308594 305.703125 123.007812 C 305.402344 122.703125 305.132812 122.375 304.894531 122.019531 C 304.65625 121.664062 304.457031 121.289062 304.292969 120.894531 C 304.128906 120.5 304.003906 120.09375 303.921875 119.675781 C 303.839844 119.253906 303.796875 118.832031 303.796875 118.40625 C 303.796875 117.976562 303.839844 117.554688 303.921875 117.136719 C 304.003906 116.714844 304.128906 116.308594 304.292969 115.914062 C 304.457031 115.519531 304.65625 115.144531 304.894531 114.789062 C 305.132812 114.433594 305.402344 114.105469 305.703125 113.800781 C 306.003906 113.5 306.335938 113.230469 306.691406 112.992188 C 307.046875 112.753906 307.421875 112.554688 307.816406 112.390625 C 308.210938 112.226562 308.617188 112.105469 309.035156 112.019531 C 309.457031 111.9375 309.878906 111.894531 310.304688 111.894531 C 310.734375 111.894531 311.15625 111.9375 311.574219 112.019531 C 311.996094 112.105469 312.402344 112.226562 312.796875 112.390625 C 313.191406 112.554688 313.566406 112.753906 313.921875 112.992188 C 314.277344 113.230469 314.605469 113.5 314.910156 113.800781 C 315.210938 114.105469 315.480469 114.433594 315.71875 114.789062 C 315.957031 115.144531 316.15625 115.519531 316.320312 115.914062 C 316.484375 116.308594 316.605469 116.714844 316.691406 117.136719 C 316.773438 117.554688 316.816406 117.976562 316.816406 118.40625 Z M 316.816406 118.40625 "/><path style=" stroke:none;fill-rule:nonzero;fill:#f0a93e;fill-opacity:1;" d="M 289.324219 98.253906 C 289.324219 98.757812 289.226562 99.242188 289.035156 99.703125 C 288.84375 100.167969 288.570312 100.578125 288.214844 100.933594 C 287.859375 101.289062 287.449219 101.5625 286.988281 101.753906 C 286.523438 101.945312 286.039062 102.042969 285.539062 102.042969 C 285.035156 102.042969 284.554688 101.945312 284.089844 101.753906 C 283.625 101.5625 283.214844 101.289062 282.859375 100.933594 C 282.503906 100.578125 282.230469 100.167969 282.039062 99.703125 C 281.847656 99.242188 281.75 98.757812 281.75 98.253906 C 281.75 97.753906 281.847656 97.269531 282.039062 96.804688 C 282.230469 96.34375 282.503906 95.933594 282.859375 95.578125 C 283.214844 95.222656 283.625 94.949219 284.089844 94.757812 C 284.554688 94.566406 285.035156 94.46875 285.539062 94.46875 C 286.039062 94.46875 286.523438 94.566406 286.988281 94.757812 C 287.449219 94.949219 287.859375 95.222656 288.214844 95.578125 C 288.570312 95.933594 288.84375 96.34375 289.035156 96.804688 C 289.226562 97.269531 289.324219 97.753906 289.324219 98.253906 Z M 289.324219 98.253906 "/><path style=" stroke:none;fill-rule:nonzero;fill:#f0a93e;fill-opacity:1;" d="M 363.027344 34.117188 C 363.027344 34.554688 362.988281 34.984375 362.902344 35.410156 C 362.816406 35.839844 362.691406 36.253906 362.523438 36.652344 C 362.359375 37.054688 362.152344 37.4375 361.914062 37.800781 C 361.671875 38.160156 361.394531 38.496094 361.089844 38.804688 C 360.78125 39.109375 360.445312 39.386719 360.085938 39.628906 C 359.722656 39.871094 359.339844 40.074219 358.9375 40.238281 C 358.539062 40.40625 358.121094 40.53125 357.695312 40.617188 C 357.269531 40.703125 356.839844 40.742188 356.402344 40.742188 C 355.96875 40.742188 355.539062 40.703125 355.109375 40.617188 C 354.683594 40.53125 354.269531 40.40625 353.867188 40.238281 C 353.464844 40.074219 353.085938 39.871094 352.722656 39.628906 C 352.359375 39.386719 352.027344 39.109375 351.71875 38.804688 C 351.410156 38.496094 351.136719 38.160156 350.894531 37.800781 C 350.652344 37.4375 350.449219 37.054688 350.28125 36.652344 C 350.117188 36.253906 349.992188 35.839844 349.90625 35.410156 C 349.820312 34.984375 349.777344 34.554688 349.777344 34.117188 C 349.777344 33.683594 349.820312 33.253906 349.90625 32.828125 C 349.992188 32.398438 350.117188 31.984375 350.28125 31.582031 C 350.449219 31.179688 350.652344 30.800781 350.894531 30.4375 C 351.136719 30.078125 351.410156 29.742188 351.71875 29.433594 C 352.027344 29.125 352.359375 28.851562 352.722656 28.609375 C 353.085938 28.367188 353.464844 28.164062 353.867188 27.996094 C 354.269531 27.832031 354.683594 27.707031 355.109375 27.621094 C 355.539062 27.535156 355.96875 27.492188 356.402344 27.492188 C 356.839844 27.492188 357.269531 27.535156 357.695312 27.621094 C 358.121094 27.707031 358.539062 27.832031 358.9375 27.996094 C 359.339844 28.164062 359.722656 28.367188 360.085938 28.609375 C 360.445312 28.851562 360.78125 29.125 361.089844 29.433594 C 361.394531 29.742188 361.671875 30.078125 361.914062 30.4375 C 362.152344 30.800781 362.359375 31.179688 362.523438 31.582031 C 362.691406 31.984375 362.816406 32.398438 362.902344 32.828125 C 362.988281 33.253906 363.027344 33.683594 363.027344 34.117188 Z M 363.027344 34.117188 "/><path style=" stroke:none;fill-rule:nonzero;fill:#f0a93e;fill-opacity:1;" d="M 385.652344 69.765625 C 385.652344 70.113281 385.621094 70.457031 385.550781 70.800781 C 385.484375 71.140625 385.382812 71.472656 385.25 71.792969 C 385.117188 72.117188 384.953125 72.421875 384.761719 72.710938 C 384.566406 73 384.347656 73.269531 384.101562 73.515625 C 383.855469 73.761719 383.585938 73.980469 383.296875 74.171875 C 383.007812 74.367188 382.703125 74.53125 382.382812 74.664062 C 382.058594 74.796875 381.730469 74.898438 381.386719 74.964844 C 381.046875 75.03125 380.703125 75.066406 380.355469 75.066406 C 380.003906 75.066406 379.660156 75.03125 379.320312 74.964844 C 378.976562 74.898438 378.648438 74.796875 378.324219 74.664062 C 378.003906 74.53125 377.699219 74.367188 377.410156 74.171875 C 377.121094 73.980469 376.851562 73.761719 376.605469 73.515625 C 376.359375 73.269531 376.140625 73 375.945312 72.710938 C 375.753906 72.421875 375.589844 72.117188 375.457031 71.792969 C 375.324219 71.472656 375.222656 71.140625 375.15625 70.800781 C 375.085938 70.457031 375.054688 70.113281 375.054688 69.765625 C 375.054688 69.417969 375.085938 69.074219 375.15625 68.730469 C 375.222656 68.390625 375.324219 68.058594 375.457031 67.738281 C 375.589844 67.417969 375.753906 67.109375 375.945312 66.820312 C 376.140625 66.53125 376.359375 66.265625 376.605469 66.019531 C 376.851562 65.773438 377.121094 65.550781 377.410156 65.359375 C 377.699219 65.164062 378.003906 65.003906 378.324219 64.867188 C 378.648438 64.734375 378.976562 64.636719 379.320312 64.566406 C 379.660156 64.5 380.003906 64.464844 380.355469 64.464844 C 380.703125 64.464844 381.046875 64.5 381.386719 64.566406 C 381.730469 64.636719 382.058594 64.734375 382.382812 64.867188 C 382.703125 65.003906 383.007812 65.164062 383.296875 65.359375 C 383.585938 65.550781 383.855469 65.773438 384.101562 66.019531 C 384.347656 66.265625 384.566406 66.53125 384.761719 66.820312 C 384.953125 67.109375 385.117188 67.417969 385.25 67.738281 C 385.382812 68.058594 385.484375 68.390625 385.550781 68.730469 C 385.621094 69.074219 385.652344 69.417969 385.652344 69.765625 Z M 385.652344 69.765625 "/><path style=" stroke:none;fill-rule:nonzero;fill:#f0a93e;fill-opacity:1;" d="M 458.117188 98.355469 C 458.117188 99.121094 458.042969 99.878906 457.894531 100.628906 C 457.746094 101.378906 457.523438 102.109375 457.230469 102.816406 C 456.9375 103.519531 456.578125 104.191406 456.15625 104.828125 C 455.730469 105.464844 455.246094 106.054688 454.707031 106.59375 C 454.164062 107.136719 453.574219 107.617188 452.941406 108.042969 C 452.304688 108.46875 451.632812 108.828125 450.925781 109.121094 C 450.21875 109.414062 449.488281 109.632812 448.738281 109.785156 C 447.988281 109.933594 447.230469 110.007812 446.464844 110.007812 C 445.699219 110.007812 444.941406 109.933594 444.191406 109.785156 C 443.441406 109.632812 442.714844 109.414062 442.007812 109.121094 C 441.300781 108.828125 440.628906 108.46875 439.992188 108.042969 C 439.355469 107.617188 438.765625 107.136719 438.226562 106.59375 C 437.683594 106.054688 437.203125 105.464844 436.777344 104.828125 C 436.351562 104.191406 435.992188 103.519531 435.699219 102.816406 C 435.40625 102.109375 435.1875 101.378906 435.039062 100.628906 C 434.886719 99.878906 434.8125 99.121094 434.8125 98.355469 C 434.8125 97.589844 434.886719 96.832031 435.039062 96.082031 C 435.1875 95.332031 435.40625 94.601562 435.699219 93.894531 C 435.992188 93.1875 436.351562 92.519531 436.777344 91.882812 C 437.203125 91.246094 437.683594 90.65625 438.226562 90.117188 C 438.765625 89.574219 439.355469 89.089844 439.992188 88.667969 C 440.628906 88.242188 441.300781 87.882812 442.007812 87.589844 C 442.714844 87.296875 443.441406 87.074219 444.191406 86.925781 C 444.941406 86.777344 445.699219 86.703125 446.464844 86.703125 C 447.230469 86.703125 447.988281 86.777344 448.738281 86.925781 C 449.488281 87.074219 450.21875 87.296875 450.925781 87.589844 C 451.632812 87.882812 452.304688 88.242188 452.941406 88.667969 C 453.574219 89.089844 454.164062 89.574219 454.707031 90.117188 C 455.246094 90.65625 455.730469 91.246094 456.15625 91.882812 C 456.578125 92.519531 456.9375 93.1875 457.230469 93.894531 C 457.523438 94.601562 457.746094 95.332031 457.894531 96.082031 C 458.042969 96.832031 458.117188 97.589844 458.117188 98.355469 Z M 458.117188 98.355469 "/><path style=" stroke:none;fill-rule:nonzero;fill:#f0a93e;fill-opacity:1;" d="M 479.535156 157.410156 C 479.535156 157.804688 479.496094 158.199219 479.417969 158.585938 C 479.339844 158.976562 479.226562 159.355469 479.074219 159.722656 C 478.921875 160.085938 478.738281 160.433594 478.515625 160.765625 C 478.296875 161.09375 478.046875 161.398438 477.765625 161.679688 C 477.484375 161.960938 477.179688 162.210938 476.851562 162.429688 C 476.519531 162.652344 476.171875 162.835938 475.808594 162.988281 C 475.441406 163.140625 475.0625 163.253906 474.675781 163.332031 C 474.285156 163.410156 473.890625 163.449219 473.496094 163.449219 C 473.097656 163.449219 472.707031 163.410156 472.316406 163.332031 C 471.929688 163.253906 471.550781 163.140625 471.183594 162.988281 C 470.816406 162.835938 470.46875 162.652344 470.140625 162.429688 C 469.808594 162.210938 469.503906 161.960938 469.226562 161.679688 C 468.945312 161.398438 468.695312 161.09375 468.472656 160.765625 C 468.253906 160.433594 468.066406 160.085938 467.914062 159.722656 C 467.765625 159.355469 467.648438 158.976562 467.570312 158.585938 C 467.496094 158.199219 467.457031 157.804688 467.457031 157.410156 C 467.457031 157.011719 467.496094 156.621094 467.570312 156.230469 C 467.648438 155.84375 467.765625 155.464844 467.914062 155.097656 C 468.066406 154.730469 468.253906 154.382812 468.472656 154.054688 C 468.695312 153.722656 468.945312 153.417969 469.226562 153.140625 C 469.503906 152.859375 469.808594 152.609375 470.140625 152.386719 C 470.46875 152.167969 470.816406 151.980469 471.183594 151.828125 C 471.550781 151.679688 471.929688 151.5625 472.316406 151.484375 C 472.707031 151.410156 473.097656 151.371094 473.496094 151.371094 C 473.890625 151.371094 474.285156 151.410156 474.675781 151.484375 C 475.0625 151.5625 475.441406 151.679688 475.808594 151.828125 C 476.171875 151.980469 476.519531 152.167969 476.851562 152.386719 C 477.179688 152.609375 477.484375 152.859375 477.765625 153.140625 C 478.046875 153.417969 478.296875 153.722656 478.515625 154.054688 C 478.738281 154.382812 478.921875 154.730469 479.074219 155.097656 C 479.226562 155.464844 479.339844 155.84375 479.417969 156.230469 C 479.496094 156.621094 479.535156 157.011719 479.535156 157.410156 Z M 479.535156 157.410156 "/><g clip-rule="nonzero" clip-path="url(#1b6a215a6f)"><path style=" stroke:none;fill-rule:nonzero;fill:#f0a93e;fill-opacity:1;" d="M 538.535156 4.398438 C 538.535156 4.660156 538.511719 4.917969 538.460938 5.175781 C 538.410156 5.433594 538.332031 5.683594 538.234375 5.921875 C 538.132812 6.164062 538.007812 6.394531 537.863281 6.613281 C 537.71875 6.832031 537.554688 7.03125 537.367188 7.21875 C 537.183594 7.402344 536.980469 7.570312 536.761719 7.714844 C 536.546875 7.859375 536.316406 7.984375 536.074219 8.082031 C 535.832031 8.183594 535.582031 8.257812 535.324219 8.308594 C 535.066406 8.363281 534.808594 8.386719 534.546875 8.386719 C 534.285156 8.386719 534.023438 8.363281 533.769531 8.308594 C 533.511719 8.257812 533.261719 8.183594 533.019531 8.082031 C 532.777344 7.984375 532.546875 7.859375 532.328125 7.714844 C 532.113281 7.570312 531.910156 7.402344 531.722656 7.21875 C 531.539062 7.03125 531.375 6.832031 531.226562 6.613281 C 531.082031 6.394531 530.960938 6.164062 530.859375 5.921875 C 530.757812 5.683594 530.683594 5.433594 530.632812 5.175781 C 530.582031 4.917969 530.554688 4.660156 530.554688 4.398438 C 530.554688 4.132812 530.582031 3.875 530.632812 3.617188 C 530.683594 3.359375 530.757812 3.113281 530.859375 2.871094 C 530.960938 2.628906 531.082031 2.398438 531.226562 2.179688 C 531.375 1.960938 531.539062 1.761719 531.722656 1.574219 C 531.910156 1.390625 532.113281 1.222656 532.328125 1.078125 C 532.546875 0.933594 532.777344 0.808594 533.019531 0.710938 C 533.261719 0.609375 533.511719 0.535156 533.769531 0.484375 C 534.023438 0.433594 534.285156 0.40625 534.546875 0.40625 C 534.808594 0.40625 535.066406 0.433594 535.324219 0.484375 C 535.582031 0.535156 535.832031 0.609375 536.074219 0.710938 C 536.316406 0.808594 536.546875 0.933594 536.761719 1.078125 C 536.980469 1.222656 537.183594 1.390625 537.367188 1.574219 C 537.554688 1.761719 537.71875 1.960938 537.863281 2.179688 C 538.007812 2.398438 538.132812 2.628906 538.234375 2.871094 C 538.332031 3.113281 538.410156 3.359375 538.460938 3.617188 C 538.511719 3.875 538.535156 4.132812 538.535156 4.398438 Z M 538.535156 4.398438 "/></g><path style=" stroke:none;fill-rule:nonzero;fill:#f0a93e;fill-opacity:1;" d="M 553.75 16.679688 C 553.75 17.03125 553.714844 17.378906 553.644531 17.722656 C 553.578125 18.070312 553.476562 18.402344 553.339844 18.730469 C 553.207031 19.054688 553.042969 19.363281 552.847656 19.652344 C 552.652344 19.945312 552.429688 20.21875 552.179688 20.464844 C 551.933594 20.714844 551.660156 20.9375 551.367188 21.132812 C 551.078125 21.328125 550.769531 21.492188 550.445312 21.625 C 550.117188 21.761719 549.785156 21.863281 549.4375 21.929688 C 549.09375 22 548.746094 22.035156 548.394531 22.035156 C 548.042969 22.035156 547.695312 22 547.351562 21.929688 C 547.003906 21.863281 546.671875 21.761719 546.347656 21.625 C 546.019531 21.492188 545.710938 21.328125 545.421875 21.132812 C 545.128906 20.9375 544.859375 20.714844 544.609375 20.464844 C 544.359375 20.21875 544.136719 19.945312 543.941406 19.652344 C 543.746094 19.363281 543.582031 19.054688 543.449219 18.730469 C 543.3125 18.402344 543.210938 18.070312 543.144531 17.722656 C 543.074219 17.378906 543.042969 17.03125 543.042969 16.679688 C 543.042969 16.328125 543.074219 15.980469 543.144531 15.636719 C 543.210938 15.289062 543.3125 14.957031 543.449219 14.632812 C 543.582031 14.304688 543.746094 13.996094 543.941406 13.707031 C 544.136719 13.414062 544.359375 13.144531 544.609375 12.894531 C 544.859375 12.644531 545.128906 12.421875 545.421875 12.226562 C 545.710938 12.03125 546.019531 11.867188 546.347656 11.734375 C 546.671875 11.597656 547.003906 11.496094 547.351562 11.429688 C 547.695312 11.359375 548.042969 11.328125 548.394531 11.328125 C 548.746094 11.328125 549.09375 11.359375 549.4375 11.429688 C 549.785156 11.496094 550.117188 11.597656 550.445312 11.734375 C 550.769531 11.867188 551.078125 12.03125 551.367188 12.226562 C 551.660156 12.421875 551.933594 12.644531 552.179688 12.894531 C 552.429688 13.144531 552.652344 13.414062 552.847656 13.707031 C 553.042969 13.996094 553.207031 14.304688 553.339844 14.632812 C 553.476562 14.957031 553.578125 15.289062 553.644531 15.636719 C 553.714844 15.980469 553.75 16.328125 553.75 16.679688 Z M 553.75 16.679688 "/><path style=" stroke:none;fill-rule:nonzero;fill:#f0a93e;fill-opacity:1;" d="M 574.667969 75.046875 C 574.667969 75.609375 574.640625 76.167969 574.585938 76.726562 C 574.53125 77.285156 574.449219 77.835938 574.339844 78.386719 C 574.230469 78.9375 574.09375 79.480469 573.929688 80.015625 C 573.769531 80.550781 573.578125 81.078125 573.363281 81.597656 C 573.148438 82.113281 572.910156 82.621094 572.648438 83.113281 C 572.382812 83.609375 572.09375 84.089844 571.785156 84.554688 C 571.472656 85.019531 571.136719 85.472656 570.78125 85.902344 C 570.425781 86.335938 570.050781 86.753906 569.65625 87.148438 C 569.257812 87.542969 568.84375 87.921875 568.410156 88.277344 C 567.976562 88.632812 567.527344 88.964844 567.0625 89.277344 C 566.597656 89.589844 566.117188 89.875 565.621094 90.140625 C 565.128906 90.402344 564.621094 90.644531 564.105469 90.859375 C 563.585938 91.074219 563.058594 91.261719 562.523438 91.421875 C 561.984375 91.585938 561.441406 91.722656 560.894531 91.832031 C 560.34375 91.941406 559.789062 92.023438 559.230469 92.078125 C 558.675781 92.132812 558.117188 92.160156 557.554688 92.160156 C 556.996094 92.160156 556.433594 92.132812 555.878906 92.078125 C 555.320312 92.023438 554.765625 91.941406 554.214844 91.832031 C 553.667969 91.722656 553.125 91.585938 552.585938 91.421875 C 552.050781 91.261719 551.523438 91.074219 551.007812 90.859375 C 550.488281 90.644531 549.984375 90.402344 549.488281 90.140625 C 548.992188 89.875 548.515625 89.589844 548.046875 89.277344 C 547.582031 88.964844 547.132812 88.632812 546.699219 88.277344 C 546.265625 87.921875 545.851562 87.542969 545.453125 87.148438 C 545.058594 86.753906 544.683594 86.335938 544.328125 85.902344 C 543.972656 85.472656 543.636719 85.019531 543.328125 84.554688 C 543.015625 84.089844 542.726562 83.609375 542.464844 83.113281 C 542.199219 82.621094 541.960938 82.113281 541.746094 81.597656 C 541.53125 81.078125 541.34375 80.550781 541.179688 80.015625 C 541.015625 79.480469 540.882812 78.9375 540.773438 78.386719 C 540.664062 77.835938 540.578125 77.285156 540.523438 76.726562 C 540.46875 76.167969 540.441406 75.609375 540.441406 75.046875 C 540.441406 74.488281 540.46875 73.929688 540.523438 73.371094 C 540.582031 72.8125 540.664062 72.257812 540.773438 71.710938 C 540.882812 71.160156 541.015625 70.617188 541.179688 70.082031 C 541.34375 69.542969 541.53125 69.015625 541.746094 68.5 C 541.960938 67.980469 542.199219 67.476562 542.464844 66.980469 C 542.726562 66.488281 543.015625 66.007812 543.328125 65.542969 C 543.636719 65.074219 543.972656 64.625 544.328125 64.191406 C 544.683594 63.757812 545.058594 63.34375 545.453125 62.949219 C 545.851562 62.550781 546.265625 62.175781 546.699219 61.820312 C 547.132812 61.464844 547.582031 61.132812 548.046875 60.820312 C 548.515625 60.507812 548.992188 60.222656 549.488281 59.957031 C 549.984375 59.691406 550.488281 59.453125 551.007812 59.238281 C 551.523438 59.023438 552.050781 58.835938 552.585938 58.671875 C 553.125 58.511719 553.667969 58.375 554.214844 58.265625 C 554.765625 58.15625 555.320312 58.074219 555.878906 58.019531 C 556.433594 57.964844 556.996094 57.9375 557.554688 57.9375 C 558.117188 57.9375 558.675781 57.964844 559.230469 58.019531 C 559.789062 58.074219 560.34375 58.15625 560.894531 58.265625 C 561.441406 58.375 561.984375 58.511719 562.523438 58.671875 C 563.058594 58.835938 563.585938 59.023438 564.105469 59.238281 C 564.621094 59.453125 565.128906 59.691406 565.621094 59.957031 C 566.117188 60.222656 566.597656 60.507812 567.0625 60.820312 C 567.527344 61.132812 567.976562 61.464844 568.410156 61.820312 C 568.84375 62.175781 569.257812 62.550781 569.65625 62.949219 C 570.050781 63.34375 570.425781 63.757812 570.78125 64.191406 C 571.136719 64.625 571.472656 65.074219 571.785156 65.542969 C 572.09375 66.007812 572.382812 66.488281 572.648438 66.980469 C 572.910156 67.476562 573.148438 67.980469 573.363281 68.5 C 573.578125 69.015625 573.769531 69.542969 573.929688 70.082031 C 574.09375 70.617188 574.230469 71.160156 574.339844 71.710938 C 574.449219 72.257812 574.53125 72.8125 574.585938 73.371094 C 574.640625 73.929688 574.667969 74.488281 574.667969 75.046875 Z M 574.667969 75.046875 "/><path style=" stroke:none;fill-rule:nonzero;fill:#f0a93e;fill-opacity:1;" d="M 619.617188 102.179688 C 619.617188 102.457031 619.589844 102.730469 619.535156 103 C 619.484375 103.269531 619.402344 103.53125 619.296875 103.785156 C 619.191406 104.042969 619.0625 104.285156 618.910156 104.511719 C 618.757812 104.742188 618.582031 104.953125 618.386719 105.148438 C 618.191406 105.34375 617.980469 105.519531 617.75 105.671875 C 617.523438 105.824219 617.28125 105.953125 617.027344 106.058594 C 616.769531 106.164062 616.507812 106.246094 616.238281 106.296875 C 615.96875 106.351562 615.695312 106.378906 615.417969 106.378906 C 615.144531 106.378906 614.871094 106.351562 614.601562 106.296875 C 614.328125 106.246094 614.066406 106.164062 613.8125 106.058594 C 613.558594 105.953125 613.316406 105.824219 613.085938 105.671875 C 612.859375 105.519531 612.644531 105.34375 612.449219 105.148438 C 612.253906 104.953125 612.082031 104.742188 611.929688 104.511719 C 611.773438 104.285156 611.644531 104.042969 611.539062 103.785156 C 611.433594 103.53125 611.355469 103.269531 611.300781 103 C 611.246094 102.730469 611.222656 102.457031 611.222656 102.179688 C 611.222656 101.90625 611.246094 101.632812 611.300781 101.359375 C 611.355469 101.089844 611.433594 100.828125 611.539062 100.574219 C 611.644531 100.320312 611.773438 100.078125 611.929688 99.847656 C 612.082031 99.617188 612.253906 99.40625 612.449219 99.210938 C 612.644531 99.015625 612.859375 98.84375 613.085938 98.6875 C 613.316406 98.535156 613.558594 98.40625 613.8125 98.300781 C 614.066406 98.195312 614.328125 98.117188 614.601562 98.0625 C 614.871094 98.007812 615.144531 97.980469 615.417969 97.980469 C 615.695312 97.980469 615.96875 98.007812 616.238281 98.0625 C 616.507812 98.117188 616.769531 98.195312 617.027344 98.300781 C 617.28125 98.40625 617.523438 98.535156 617.75 98.6875 C 617.980469 98.84375 618.191406 99.015625 618.386719 99.210938 C 618.582031 99.40625 618.757812 99.617188 618.910156 99.847656 C 619.0625 100.078125 619.191406 100.320312 619.296875 100.574219 C 619.402344 100.828125 619.484375 101.089844 619.539062 101.359375 C 619.589844 101.632812 619.617188 101.90625 619.617188 102.179688 Z M 619.617188 102.179688 "/><path style=" stroke:none;fill-rule:nonzero;fill:#f0a93e;fill-opacity:1;" d="M 734.824219 120.84375 C 734.824219 121.121094 734.796875 121.390625 734.742188 121.664062 C 734.6875 121.933594 734.609375 122.195312 734.503906 122.449219 C 734.398438 122.707031 734.269531 122.945312 734.117188 123.175781 C 733.964844 123.40625 733.789062 123.617188 733.59375 123.8125 C 733.398438 124.007812 733.1875 124.179688 732.957031 124.335938 C 732.730469 124.488281 732.488281 124.617188 732.230469 124.722656 C 731.976562 124.828125 731.714844 124.90625 731.445312 124.960938 C 731.175781 125.015625 730.902344 125.042969 730.625 125.042969 C 730.351562 125.042969 730.078125 125.015625 729.804688 124.960938 C 729.535156 124.90625 729.273438 124.828125 729.019531 124.722656 C 728.765625 124.617188 728.523438 124.488281 728.292969 124.335938 C 728.0625 124.179688 727.851562 124.007812 727.65625 123.8125 C 727.460938 123.617188 727.289062 123.40625 727.132812 123.175781 C 726.980469 122.945312 726.851562 122.707031 726.746094 122.449219 C 726.640625 122.195312 726.5625 121.933594 726.507812 121.664062 C 726.453125 121.390625 726.425781 121.121094 726.425781 120.84375 C 726.425781 120.566406 726.453125 120.296875 726.507812 120.023438 C 726.5625 119.753906 726.640625 119.492188 726.746094 119.238281 C 726.851562 118.980469 726.980469 118.742188 727.132812 118.511719 C 727.289062 118.28125 727.460938 118.070312 727.65625 117.875 C 727.851562 117.679688 728.0625 117.507812 728.292969 117.351562 C 728.523438 117.199219 728.765625 117.070312 729.019531 116.964844 C 729.273438 116.859375 729.535156 116.78125 729.804688 116.726562 C 730.078125 116.671875 730.351562 116.644531 730.625 116.644531 C 730.902344 116.644531 731.175781 116.671875 731.445312 116.726562 C 731.714844 116.78125 731.976562 116.859375 732.230469 116.964844 C 732.488281 117.070312 732.730469 117.199219 732.957031 117.351562 C 733.1875 117.507812 733.398438 117.679688 733.59375 117.875 C 733.789062 118.070312 733.964844 118.28125 734.117188 118.511719 C 734.269531 118.742188 734.398438 118.980469 734.503906 119.238281 C 734.609375 119.492188 734.6875 119.753906 734.742188 120.023438 C 734.796875 120.296875 734.824219 120.566406 734.824219 120.84375 Z M 734.824219 120.84375 "/><path style=" stroke:none;fill-rule:nonzero;fill:#f0a93e;fill-opacity:1;" d="M 644.355469 135.726562 C 644.355469 136.214844 644.261719 136.683594 644.074219 137.132812 C 643.890625 137.582031 643.625 137.980469 643.28125 138.324219 C 642.933594 138.667969 642.539062 138.933594 642.085938 139.121094 C 641.636719 139.308594 641.167969 139.402344 640.683594 139.402344 C 640.195312 139.402344 639.726562 139.308594 639.277344 139.121094 C 638.824219 138.933594 638.429688 138.667969 638.082031 138.324219 C 637.738281 137.980469 637.472656 137.582031 637.289062 137.132812 C 637.101562 136.683594 637.007812 136.214844 637.007812 135.726562 C 637.007812 135.238281 637.101562 134.769531 637.289062 134.320312 C 637.472656 133.871094 637.738281 133.472656 638.082031 133.128906 C 638.429688 132.785156 638.824219 132.519531 639.277344 132.332031 C 639.726562 132.148438 640.195312 132.054688 640.683594 132.054688 C 641.167969 132.054688 641.636719 132.148438 642.085938 132.332031 C 642.539062 132.519531 642.933594 132.785156 643.28125 133.128906 C 643.625 133.472656 643.890625 133.871094 644.074219 134.320312 C 644.261719 134.769531 644.355469 135.238281 644.355469 135.726562 Z M 644.355469 135.726562 "/><path style=" stroke:none;fill-rule:nonzero;fill:#f0a93e;fill-opacity:1;" d="M 694.640625 157.253906 C 694.640625 157.742188 694.546875 158.210938 694.363281 158.660156 C 694.175781 159.109375 693.910156 159.507812 693.566406 159.851562 C 693.21875 160.195312 692.824219 160.460938 692.375 160.648438 C 691.921875 160.835938 691.453125 160.929688 690.96875 160.929688 C 690.480469 160.929688 690.011719 160.835938 689.5625 160.648438 C 689.109375 160.460938 688.714844 160.195312 688.371094 159.851562 C 688.023438 159.507812 687.757812 159.109375 687.574219 158.660156 C 687.386719 158.210938 687.292969 157.742188 687.292969 157.253906 C 687.292969 156.765625 687.386719 156.296875 687.574219 155.847656 C 687.757812 155.398438 688.023438 155 688.371094 154.65625 C 688.714844 154.3125 689.109375 154.046875 689.5625 153.859375 C 690.011719 153.671875 690.480469 153.582031 690.96875 153.582031 C 691.453125 153.582031 691.921875 153.671875 692.375 153.859375 C 692.824219 154.046875 693.21875 154.3125 693.566406 154.65625 C 693.910156 155 694.175781 155.398438 694.363281 155.847656 C 694.546875 156.296875 694.640625 156.765625 694.640625 157.253906 Z M 694.640625 157.253906 "/><path style=" stroke:none;fill-rule:nonzero;fill:#f0a93e;fill-opacity:1;" d="M 649.621094 176.171875 C 649.621094 176.484375 649.589844 176.789062 649.527344 177.09375 C 649.46875 177.398438 649.378906 177.691406 649.261719 177.980469 C 649.140625 178.265625 648.996094 178.539062 648.824219 178.796875 C 648.652344 179.054688 648.457031 179.292969 648.238281 179.511719 C 648.015625 179.730469 647.777344 179.925781 647.519531 180.097656 C 647.261719 180.269531 646.992188 180.417969 646.707031 180.535156 C 646.417969 180.652344 646.125 180.742188 645.820312 180.804688 C 645.515625 180.863281 645.207031 180.894531 644.898438 180.894531 C 644.589844 180.894531 644.28125 180.863281 643.976562 180.804688 C 643.671875 180.742188 643.378906 180.652344 643.09375 180.535156 C 642.804688 180.417969 642.535156 180.269531 642.277344 180.097656 C 642.019531 179.925781 641.78125 179.730469 641.558594 179.511719 C 641.339844 179.292969 641.144531 179.054688 640.972656 178.796875 C 640.800781 178.539062 640.65625 178.265625 640.535156 177.980469 C 640.417969 177.691406 640.328125 177.398438 640.269531 177.09375 C 640.207031 176.789062 640.175781 176.484375 640.175781 176.171875 C 640.175781 175.863281 640.207031 175.554688 640.269531 175.253906 C 640.328125 174.949219 640.417969 174.652344 640.535156 174.367188 C 640.65625 174.078125 640.800781 173.808594 640.972656 173.550781 C 641.144531 173.292969 641.339844 173.054688 641.558594 172.835938 C 641.78125 172.617188 642.019531 172.421875 642.277344 172.246094 C 642.535156 172.074219 642.804688 171.929688 643.09375 171.8125 C 643.378906 171.691406 643.671875 171.601562 643.976562 171.542969 C 644.28125 171.480469 644.589844 171.453125 644.898438 171.453125 C 645.207031 171.453125 645.515625 171.480469 645.820312 171.542969 C 646.125 171.601562 646.417969 171.691406 646.707031 171.8125 C 646.992188 171.929688 647.261719 172.074219 647.519531 172.246094 C 647.777344 172.421875 648.015625 172.617188 648.238281 172.835938 C 648.457031 173.054688 648.652344 173.292969 648.824219 173.550781 C 648.996094 173.808594 649.140625 174.078125 649.261719 174.367188 C 649.378906 174.652344 649.46875 174.949219 649.527344 175.253906 C 649.589844 175.554688 649.621094 175.863281 649.621094 176.171875 Z M 649.621094 176.171875 "/><g clip-rule="nonzero" clip-path="url(#49a6b54111)"><path style=" stroke:none;fill-rule:nonzero;fill:#f0a93e;fill-opacity:1;" d="M 795.171875 118.511719 C 795.171875 118.820312 795.140625 119.128906 795.082031 119.433594 C 795.019531 119.734375 794.929688 120.03125 794.8125 120.316406 C 794.695312 120.605469 794.546875 120.875 794.375 121.132812 C 794.203125 121.390625 794.007812 121.628906 793.789062 121.847656 C 793.570312 122.066406 793.332031 122.265625 793.074219 122.4375 C 792.816406 122.609375 792.542969 122.753906 792.257812 122.871094 C 791.972656 122.992188 791.675781 123.082031 791.371094 123.140625 C 791.066406 123.203125 790.761719 123.230469 790.453125 123.230469 C 790.140625 123.230469 789.835938 123.203125 789.53125 123.140625 C 789.226562 123.082031 788.929688 122.992188 788.644531 122.871094 C 788.359375 122.753906 788.085938 122.609375 787.828125 122.4375 C 787.570312 122.265625 787.332031 122.066406 787.113281 121.847656 C 786.894531 121.628906 786.699219 121.390625 786.527344 121.132812 C 786.355469 120.875 786.207031 120.605469 786.089844 120.316406 C 785.972656 120.03125 785.882812 119.734375 785.820312 119.433594 C 785.761719 119.128906 785.730469 118.820312 785.730469 118.511719 C 785.730469 118.199219 785.761719 117.894531 785.820312 117.589844 C 785.882812 117.285156 785.972656 116.992188 786.089844 116.703125 C 786.207031 116.417969 786.355469 116.144531 786.527344 115.886719 C 786.699219 115.628906 786.894531 115.390625 787.113281 115.171875 C 787.332031 114.953125 787.570312 114.757812 787.828125 114.585938 C 788.085938 114.414062 788.359375 114.269531 788.644531 114.148438 C 788.929688 114.03125 789.226562 113.941406 789.53125 113.878906 C 789.835938 113.820312 790.140625 113.789062 790.453125 113.789062 C 790.761719 113.789062 791.066406 113.820312 791.371094 113.878906 C 791.675781 113.941406 791.972656 114.03125 792.257812 114.148438 C 792.542969 114.269531 792.816406 114.414062 793.074219 114.585938 C 793.332031 114.757812 793.570312 114.953125 793.789062 115.171875 C 794.007812 115.390625 794.203125 115.628906 794.375 115.886719 C 794.546875 116.144531 794.695312 116.417969 794.8125 116.703125 C 794.929688 116.992188 795.019531 117.285156 795.082031 117.589844 C 795.140625 117.894531 795.171875 118.199219 795.171875 118.511719 Z M 795.171875 118.511719 "/></g><path style=" stroke:none;fill-rule:nonzero;fill:#f0a93e;fill-opacity:1;" d="M 686.558594 116.898438 C 686.558594 117.257812 686.523438 117.613281 686.453125 117.964844 C 686.382812 118.316406 686.28125 118.65625 686.144531 118.988281 C 686.007812 119.320312 685.835938 119.632812 685.636719 119.933594 C 685.4375 120.230469 685.214844 120.503906 684.960938 120.757812 C 684.707031 121.011719 684.429688 121.238281 684.132812 121.4375 C 683.835938 121.636719 683.519531 121.804688 683.1875 121.941406 C 682.855469 122.078125 682.515625 122.183594 682.164062 122.253906 C 681.8125 122.324219 681.457031 122.359375 681.097656 122.359375 C 680.742188 122.359375 680.386719 122.324219 680.035156 122.253906 C 679.683594 122.183594 679.339844 122.078125 679.007812 121.941406 C 678.679688 121.804688 678.363281 121.636719 678.066406 121.4375 C 677.765625 121.238281 677.492188 121.011719 677.238281 120.757812 C 676.984375 120.503906 676.757812 120.230469 676.558594 119.933594 C 676.359375 119.632812 676.191406 119.320312 676.054688 118.988281 C 675.917969 118.65625 675.8125 118.316406 675.742188 117.964844 C 675.675781 117.613281 675.640625 117.257812 675.640625 116.898438 C 675.640625 116.539062 675.675781 116.183594 675.742188 115.832031 C 675.8125 115.480469 675.917969 115.140625 676.054688 114.808594 C 676.191406 114.476562 676.359375 114.164062 676.558594 113.863281 C 676.757812 113.566406 676.984375 113.292969 677.238281 113.039062 C 677.492188 112.785156 677.765625 112.558594 678.066406 112.359375 C 678.363281 112.160156 678.679688 111.992188 679.007812 111.855469 C 679.339844 111.71875 679.683594 111.613281 680.035156 111.542969 C 680.386719 111.472656 680.742188 111.4375 681.097656 111.4375 C 681.457031 111.4375 681.8125 111.472656 682.164062 111.542969 C 682.515625 111.613281 682.855469 111.71875 683.1875 111.855469 C 683.519531 111.992188 683.835938 112.160156 684.132812 112.359375 C 684.429688 112.558594 684.707031 112.785156 684.960938 113.039062 C 685.214844 113.292969 685.4375 113.566406 685.636719 113.863281 C 685.835938 114.164062 686.007812 114.476562 686.144531 114.808594 C 686.28125 115.140625 686.382812 115.480469 686.453125 115.832031 C 686.523438 116.183594 686.558594 116.539062 686.558594 116.898438 Z M 686.558594 116.898438 "/><path style=" stroke:none;fill-rule:nonzero;fill:#f0a93e;fill-opacity:1;" d="M 783.140625 82.234375 C 783.140625 83.269531 783.039062 84.292969 782.835938 85.308594 C 782.636719 86.320312 782.335938 87.304688 781.941406 88.261719 C 781.546875 89.214844 781.0625 90.125 780.484375 90.984375 C 779.910156 91.84375 779.257812 92.636719 778.527344 93.371094 C 777.796875 94.101562 777 94.753906 776.140625 95.328125 C 775.28125 95.902344 774.375 96.386719 773.417969 96.78125 C 772.464844 97.179688 771.480469 97.476562 770.464844 97.679688 C 769.453125 97.882812 768.425781 97.980469 767.394531 97.980469 C 766.359375 97.980469 765.335938 97.882812 764.320312 97.679688 C 763.308594 97.476562 762.324219 97.179688 761.367188 96.78125 C 760.410156 96.386719 759.503906 95.902344 758.644531 95.328125 C 757.785156 94.753906 756.988281 94.101562 756.257812 93.371094 C 755.527344 92.636719 754.875 91.84375 754.300781 90.984375 C 753.726562 90.125 753.242188 89.214844 752.84375 88.261719 C 752.449219 87.304688 752.152344 86.320312 751.949219 85.308594 C 751.746094 84.292969 751.644531 83.269531 751.644531 82.234375 C 751.644531 81.199219 751.746094 80.175781 751.949219 79.164062 C 752.152344 78.148438 752.449219 77.164062 752.84375 76.207031 C 753.242188 75.253906 753.726562 74.347656 754.300781 73.488281 C 754.875 72.625 755.527344 71.832031 756.257812 71.101562 C 756.988281 70.367188 757.785156 69.714844 758.644531 69.140625 C 759.503906 68.566406 760.410156 68.082031 761.367188 67.6875 C 762.324219 67.292969 763.308594 66.992188 764.320312 66.789062 C 765.335938 66.589844 766.359375 66.488281 767.394531 66.488281 C 768.425781 66.488281 769.453125 66.589844 770.464844 66.789062 C 771.480469 66.992188 772.464844 67.292969 773.417969 67.6875 C 774.375 68.082031 775.28125 68.566406 776.140625 69.140625 C 777 69.714844 777.796875 70.367188 778.527344 71.101562 C 779.257812 71.832031 779.910156 72.625 780.484375 73.488281 C 781.0625 74.347656 781.546875 75.253906 781.941406 76.207031 C 782.335938 77.164062 782.636719 78.148438 782.835938 79.164062 C 783.039062 80.175781 783.140625 81.199219 783.140625 82.234375 Z M 783.140625 82.234375 "/></g><mask id="d87cd77a7e"><g filter="url(#5bee9ed401)"><rect x="0" width="801.75" y="0" height="440.999989" style="fill:#000000;fill-opacity:0.3;stroke:none;"/></g></mask></g></g></g></svg>