<svg xmlns="http://www.w3.org/2000/svg" xmlns:xlink="http://www.w3.org/1999/xlink" width="500" zoomAndPan="magnify" viewBox="0 0 375 374.999991" height="500" preserveAspectRatio="xMidYMid meet" version="1.2"><defs><clipPath id="da2892e4e3"><path d="M 0 5.859375 L 375 5.859375 L 375 368 L 0 368 Z M 0 5.859375 "/></clipPath></defs><g id="bd9927921f"><path style=" stroke:none;fill-rule:nonzero;fill:#f0a93e;fill-opacity:1;" d="M 183.488281 72.617188 L 176.148438 90.019531 L 190.953125 90.019531 L 183.617188 72.617188 Z M 183.488281 72.617188 "/><g clip-rule="nonzero" clip-path="url(#da2892e4e3)"><path style=" stroke:none;fill-rule:nonzero;fill:#f0a93e;fill-opacity:1;" d="M 350.964844 200.71875 C 349.585938 199.402344 347.75 198.667969 345.84375 198.667969 L 331.320312 198.667969 L 331.320312 100.953125 C 331.320312 90.066406 322.464844 81.210938 311.578125 81.210938 C 245.195312 81.453125 248.023438 80.65625 245.59375 81.8125 L 245.59375 66.1875 C 247.917969 67.292969 247.628906 66.566406 268.820312 66.796875 C 272.058594 66.796875 274.675781 64.175781 274.675781 60.941406 C 274.675781 57.703125 272.058594 55.085938 268.820312 55.085938 C 247.683594 55.3125 247.90625 54.589844 245.59375 55.6875 L 245.59375 48.179688 C 245.59375 40.621094 239.464844 34.484375 231.902344 34.484375 L 231.34375 34.484375 C 233.078125 31.695312 231.9375 31.542969 232.304688 11.804688 C 232.304688 8.566406 229.683594 5.949219 226.449219 5.949219 C 223.210938 5.949219 220.59375 8.566406 220.59375 11.804688 C 220.964844 31.765625 219.824219 31.707031 221.554688 34.484375 L 201.023438 34.484375 C 202.757812 31.695312 201.617188 31.542969 201.984375 11.804688 C 201.984375 8.566406 199.363281 5.949219 196.128906 5.949219 C 192.890625 5.949219 190.273438 8.566406 190.273438 11.804688 C 190.644531 31.765625 189.503906 31.707031 191.234375 34.484375 L 166.898438 34.484375 C 168.636719 31.695312 167.492188 31.542969 167.859375 11.804688 C 167.859375 8.566406 165.242188 5.949219 162.003906 5.949219 C 158.769531 5.949219 156.148438 8.566406 156.148438 11.804688 C 156.519531 31.765625 155.382812 31.707031 157.109375 34.484375 L 154.132812 34.484375 C 146.570312 34.484375 140.441406 40.621094 140.441406 48.179688 L 140.441406 55.464844 C 138.34375 54.738281 139.417969 55.253906 117.8125 55.085938 C 114.578125 55.085938 111.957031 57.703125 111.957031 60.941406 C 111.957031 64.175781 114.578125 66.796875 117.8125 66.796875 C 138.742188 66.628906 138.242188 67.175781 140.441406 66.414062 L 140.441406 81.589844 C 138.308594 80.847656 142.753906 81.386719 72.792969 81.210938 C 61.90625 81.210938 53.050781 90.066406 53.050781 100.953125 L 53.050781 198.667969 L 14.691406 198.667969 C 6.578125 198.667969 0 205.25 0 213.359375 L 0 278.574219 C 0 286.6875 6.578125 293.265625 14.691406 293.265625 L 103.121094 293.265625 C 111.234375 293.265625 117.8125 286.6875 117.8125 278.574219 L 117.8125 213.359375 C 117.8125 205.25 111.234375 198.667969 103.121094 198.667969 L 64.761719 198.667969 L 64.761719 100.953125 C 64.761719 96.519531 68.363281 92.917969 72.792969 92.917969 C 142.828125 92.738281 138.285156 93.285156 140.441406 92.535156 L 140.441406 107.714844 C 139.839844 107.503906 139.21875 107.332031 138.546875 107.332031 L 118.546875 107.332031 C 115.308594 107.332031 112.691406 109.953125 112.691406 113.1875 C 112.691406 116.425781 115.308594 119.042969 118.546875 119.042969 C 139.492188 118.871094 138.347656 119.386719 140.441406 118.660156 L 140.441406 125.945312 C 140.441406 133.507812 146.570312 139.640625 154.132812 139.640625 L 157.109375 139.640625 C 155.367188 142.453125 156.511719 142.886719 156.148438 162.324219 C 156.148438 165.5625 158.769531 168.179688 162.003906 168.179688 C 165.242188 168.179688 167.859375 165.5625 167.859375 162.324219 C 167.488281 142.363281 168.628906 142.433594 166.902344 139.640625 L 190.273438 139.640625 L 190.273438 276.023438 C 167.617188 278.929688 150.046875 298.070312 150.046875 321.515625 C 150.046875 346.964844 170.679688 367.597656 196.128906 367.597656 C 221.582031 367.597656 242.210938 346.964844 242.210938 321.515625 C 242.210938 298.066406 224.640625 278.925781 201.984375 276.023438 L 201.984375 139.640625 L 221.550781 139.640625 C 219.8125 142.453125 220.953125 142.886719 220.59375 162.324219 C 220.59375 165.5625 223.210938 168.179688 226.449219 168.179688 C 229.683594 168.179688 232.304688 165.5625 232.304688 162.324219 C 231.933594 142.363281 233.074219 142.433594 231.34375 139.640625 L 231.902344 139.640625 C 239.464844 139.640625 245.59375 133.507812 245.59375 125.945312 L 245.59375 118.4375 C 247.917969 119.542969 247.628906 118.8125 268.820312 119.042969 C 272.058594 119.042969 274.675781 116.425781 274.675781 113.1875 C 274.675781 109.953125 272.058594 107.332031 268.820312 107.332031 C 247.683594 107.558594 247.90625 106.835938 245.59375 107.9375 L 245.59375 92.3125 C 248.042969 93.476562 244.554688 92.667969 311.578125 92.917969 C 316.007812 92.917969 319.609375 96.519531 319.609375 100.953125 L 319.609375 198.667969 L 297.757812 198.667969 C 293.660156 198.667969 290.339844 201.988281 290.339844 206.089844 L 290.339844 304.488281 C 290.339844 308.585938 293.660156 311.902344 297.757812 311.902344 L 367.292969 311.902344 C 371.386719 311.902344 374.710938 308.585938 374.710938 304.488281 L 374.710938 226.550781 C 374.710938 224.523438 373.878906 222.582031 372.410156 221.183594 Z M 69.351562 277.570312 L 16.625 277.570312 C 13.859375 277.570312 12.234375 274.640625 13.535156 272.199219 L 37.945312 227.125 C 39.082031 225.332031 41.6875 225.332031 42.824219 227.125 C 43.621094 228.332031 74.375 274.972656 72.441406 272.039062 C 73.90625 274.320312 72.28125 277.570312 69.351562 277.570312 Z M 89.097656 238.679688 L 107.976562 273.5 C 108.953125 275.292969 107.652344 277.570312 105.535156 277.570312 L 81.289062 277.570312 C 82.589844 274.640625 82.265625 271.226562 80.3125 268.457031 L 72.988281 257.390625 L 85.355469 238.679688 C 86.171875 237.210938 88.125 237.210938 89.097656 238.679688 Z M 72.109375 212.367188 C 76.988281 212.367188 80.941406 216.316406 80.941406 221.195312 C 80.941406 226.074219 76.988281 230.027344 72.109375 230.027344 C 67.230469 230.027344 63.277344 226.074219 63.277344 221.195312 C 63.277344 216.316406 67.230469 212.367188 72.109375 212.367188 Z M 213.578125 324.765625 L 190.445312 342.4375 C 187.753906 344.496094 183.871094 342.578125 183.871094 339.1875 L 183.871094 303.839844 C 183.871094 300.453125 187.753906 298.53125 190.445312 300.589844 L 213.578125 318.269531 C 215.71875 319.902344 215.71875 323.128906 213.578125 324.765625 Z M 199.152344 107.453125 C 198.347656 106.777344 197.636719 105.699219 197.027344 104.21875 L 194.316406 97.9375 L 172.738281 97.9375 L 170.074219 104.21875 C 168.285156 108.015625 166.964844 108.46875 164.773438 108.46875 C 161.019531 108.46875 159.363281 105.695312 160.914062 102.1875 L 177.726562 65.421875 C 180.199219 60.316406 186.472656 59.429688 189.375 65.421875 L 206.1875 102.1875 C 206.753906 103.410156 206.964844 104.488281 206.804688 105.425781 C 206.257812 108.824219 201.261719 109.210938 199.152344 107.453125 Z M 216.847656 60.058594 C 220.230469 60.058594 222.542969 61.585938 222.542969 64.964844 C 222.542969 70.894531 215.136719 70.878906 212.722656 68.695312 C 210.394531 66.566406 210.160156 60.058594 216.847656 60.058594 Z M 216.847656 108.46875 C 213.917969 108.46875 211.941406 106.640625 211.941406 103.105469 L 211.941406 80.664062 C 211.941406 74.289062 218.523438 74.578125 220.542969 76.707031 C 221.398438 77.601562 221.816406 78.921875 221.816406 80.664062 L 221.816406 103.105469 C 221.816406 106.441406 220.210938 108.46875 216.847656 108.46875 Z M 317.671875 237.171875 L 347.378906 237.171875 C 350.285156 237.171875 352.644531 239.53125 352.644531 242.433594 C 352.644531 245.339844 350.285156 247.699219 347.378906 247.699219 L 317.671875 247.699219 C 314.765625 247.699219 312.410156 245.339844 312.410156 242.433594 C 312.410156 239.53125 314.765625 237.171875 317.671875 237.171875 Z M 353.679688 275.429688 L 311.367188 275.429688 C 308.460938 275.429688 306.105469 273.074219 306.105469 270.167969 C 306.105469 267.261719 308.460938 264.90625 311.367188 264.90625 L 353.679688 264.90625 C 356.585938 264.90625 358.941406 267.261719 358.941406 270.167969 C 358.941406 273.074219 356.585938 275.429688 353.679688 275.429688 Z M 353.679688 275.429688 "/></g></g></svg>