<svg xmlns="http://www.w3.org/2000/svg" xmlns:xlink="http://www.w3.org/1999/xlink" width="500" zoomAndPan="magnify" viewBox="0 0 375 374.999991" height="500" preserveAspectRatio="xMidYMid meet" version="1.2"><g id="abf46303a6"><path style=" stroke:none;fill-rule:nonzero;fill:#f0a93e;fill-opacity:1;" d="M 72.332031 243.613281 C 72.332031 243.613281 64.296875 248.5 77.914062 249.898438 C 94.3125 251.988281 103.046875 251.640625 121.195312 248.152344 C 124.851562 250.394531 128.691406 252.253906 132.710938 253.738281 C 91.882812 271.195312 40.210938 252.695312 72.324219 243.613281 Z M 67.105469 220.925781 C 67.105469 220.925781 58.375 227.554688 71.992188 228.960938 C 89.792969 230.703125 103.753906 231.050781 127.84375 226.171875 C 130.222656 228.582031 133.011719 230.324219 136.21875 231.402344 C 87.003906 246.0625 31.855469 232.800781 67.105469 220.933594 Z M 163.441406 260.710938 C 163.441406 260.710938 169.375 265.597656 156.8125 269.4375 C 133.421875 276.425781 58.730469 278.519531 37.785156 269.4375 C 30.457031 266.300781 44.417969 261.761719 48.890625 261.0625 C 53.429688 260.015625 55.882812 260.015625 55.882812 260.015625 C 47.847656 254.433594 2.476562 271.535156 32.847656 276.414062 C 116.269531 290.027344 185.03125 270.484375 163.390625 260.710938 Z M 76.105469 197.1875 C 76.105469 197.1875 38.058594 206.265625 62.492188 209.402344 C 72.964844 210.800781 93.554688 210.445312 112.753906 209.054688 C 128.457031 207.65625 144.175781 204.875 144.175781 204.875 C 144.175781 204.875 138.589844 207.316406 134.75 209.761719 C 96.011719 219.886719 21.65625 215.347656 42.953125 204.875 C 61.101562 196.148438 76.113281 197.199219 76.113281 197.199219 Z M 144.175781 235.230469 C 183.269531 214.980469 165.121094 195.449219 152.550781 197.886719 C 149.414062 198.582031 148.011719 199.28125 148.011719 199.28125 C 148.011719 199.28125 149.054688 197.191406 151.5 196.492188 C 176.285156 187.765625 195.832031 222.667969 143.464844 236.277344 C 143.464844 236.277344 143.8125 235.929688 144.164062 235.230469 Z M 79.960938 290.382812 C 117.652344 292.824219 175.253906 288.984375 176.644531 271.175781 C 176.644531 271.175781 173.855469 278.164062 145.582031 283.390625 C 113.464844 289.324219 73.675781 288.617188 50.289062 284.789062 C 50.289062 284.789062 55.175781 288.96875 79.960938 290.375 Z M 79.960938 290.382812 "/><path style=" stroke:none;fill-rule:nonzero;fill:#f58219;fill-opacity:1;" d="M 120.503906 82 C 120.503906 82 142.144531 103.992188 99.910156 137.152344 C 66.050781 164.027344 92.234375 179.382812 99.910156 196.839844 C 80.011719 179.039062 65.707031 163.328125 75.480469 148.675781 C 89.785156 127.023438 129.230469 116.617188 120.503906 82 Z M 109.398438 182.179688 C 119.523438 193.699219 106.605469 204.167969 106.605469 204.167969 C 106.605469 204.167969 132.4375 190.90625 120.566406 174.496094 C 109.75 158.792969 101.363281 151.109375 146.742188 124.933594 C 146.742188 124.933594 75.191406 142.734375 109.398438 182.179688 Z M 109.398438 182.179688 "/><path style=" stroke:none;fill-rule:evenodd;fill:#f0a93e;fill-opacity:1;" d="M 361.246094 254.117188 C 351.765625 253.851562 344.414062 254.824219 338.25 257.417969 C 336.472656 258.128906 333.625 258.128906 333.390625 260.363281 C 334.339844 261.300781 334.457031 262.835938 335.285156 264.136719 C 336.707031 266.492188 339.199219 269.667969 341.449219 271.316406 L 349.035156 276.738281 C 353.660156 279.5625 358.875 281.210938 363.378906 284.039062 C 365.988281 285.691406 368.59375 287.8125 371.203125 289.582031 C 372.53125 290.523438 373.335938 292.058594 374.996094 292.644531 L 374.996094 292.285156 C 374.167969 291.230469 373.929688 289.699219 373.101562 288.515625 L 369.542969 285.101562 C 366.105469 280.507812 361.835938 276.5 357.214844 273.203125 C 353.417969 270.613281 345.125 267.078125 343.585938 262.722656 L 343.351562 262.457031 C 345.953125 262.195312 349.035156 261.277344 351.527344 260.570312 C 355.5625 259.515625 359.234375 259.746094 363.378906 258.6875 L 369.070312 257.039062 L 369.070312 255.980469 C 366.9375 253.859375 365.398438 251.035156 363.148438 249.03125 C 357.101562 243.847656 350.460938 238.78125 343.585938 234.542969 C 339.910156 232.1875 335.167969 230.652344 331.257812 228.652344 C 329.828125 227.945312 327.460938 227.59375 326.632812 226.414062 C 324.496094 223.828125 323.3125 220.40625 321.773438 217.34375 L 312.054688 196.84375 C 309.917969 192.25 308.613281 187.65625 306.007812 183.417969 C 293.796875 163.390625 280.519531 151.257812 260.128906 139.355469 C 255.746094 136.882812 250.53125 135.820312 244.984375 134.523438 L 236.097656 134.050781 C 234.195312 133.226562 232.300781 130.988281 230.640625 129.925781 C 223.886719 125.683594 206.460938 116.496094 201.476562 128.605469 C 198.277344 136.261719 206.21875 143.800781 208.917969 147.691406 C 210.9375 150.398438 213.539062 153.460938 214.964844 156.523438 C 215.765625 158.527344 216.03125 160.648438 216.859375 162.769531 C 218.753906 167.953125 220.535156 173.726562 223.023438 178.558594 C 224.351562 181.03125 225.75 183.628906 227.410156 185.863281 C 228.355469 187.183594 230.019531 187.75 230.371094 189.871094 C 228.710938 192.226562 228.597656 195.757812 227.648438 198.707031 C 223.378906 212.019531 225.039062 228.511719 231.082031 238.3125 C 232.984375 241.257812 237.460938 247.738281 243.53125 245.261719 C 248.867188 243.140625 247.679688 236.425781 249.21875 230.535156 C 249.578125 229.125 249.339844 228.179688 250.046875 227.234375 L 250.046875 227.5 L 254.910156 237.277344 C 258.585938 243.050781 264.988281 249.058594 270.320312 253.066406 C 273.164062 255.1875 275.414062 258.839844 278.96875 260.136719 L 278.96875 259.777344 L 278.734375 259.777344 C 278.023438 258.722656 276.957031 258.246094 276.007812 257.421875 C 273.875 255.304688 271.503906 252.710938 269.84375 250.355469 C 264.867188 243.757812 260.484375 236.453125 256.570312 228.914062 C 254.671875 225.261719 253.011719 221.257812 251.472656 217.605469 C 250.757812 216.191406 250.757812 214.070312 249.574219 213.367188 C 247.792969 215.953125 245.191406 218.199219 243.882812 221.375 C 241.628906 226.441406 241.394531 232.6875 240.566406 239.164062 C 240.085938 239.285156 240.300781 239.164062 240.085938 239.429688 C 236.296875 238.488281 234.992188 234.597656 233.570312 231.300781 C 230.015625 222.9375 229.421875 209.507812 232.5 199.847656 C 233.332031 197.375 236.890625 189.597656 235.46875 187.242188 C 234.753906 185.003906 232.386719 183.710938 231.082031 181.941406 C 229.539062 179.703125 227.882812 176.875 226.816406 174.402344 C 223.972656 167.800781 222.550781 160.5 219.46875 153.902344 C 218.039062 150.839844 215.554688 147.65625 213.539062 144.832031 C 211.285156 141.652344 208.800781 139.410156 207.019531 135.644531 C 206.425781 134.324219 205.597656 132.226562 206.546875 130.8125 C 206.78125 129.871094 207.257812 129.492188 208.203125 129.28125 C 209.742188 127.960938 214.132812 129.636719 215.671875 130.335938 C 220.058594 132.105469 223.730469 133.753906 227.40625 136.226562 C 229.066406 137.402344 230.847656 139.640625 232.980469 140.234375 L 235.472656 140.234375 C 239.265625 141.058594 243.53125 140.496094 247.082031 141.554688 C 253.367188 143.558594 259.054688 146.5 264.15625 149.6875 C 279.683594 159.464844 292.488281 173.363281 301.136719 189.976562 C 302.558594 192.6875 303.152344 195.160156 304.460938 197.988281 C 306.953125 203.761719 310.035156 209.652344 312.519531 215.308594 C 315.011719 220.847656 317.378906 226.503906 320.933594 231.097656 C 322.714844 233.574219 329.824219 234.867188 333.023438 236.164062 C 335.394531 237.21875 339.066406 238.167969 341.207031 239.464844 C 345.234375 241.9375 349.265625 244.765625 353.054688 247.472656 C 354.949219 248.882812 360.878906 251.832031 361.234375 254.179688 Z M 240.359375 151.746094 C 238.714844 151.730469 237.097656 151.925781 235.503906 152.335938 L 235.503906 152.597656 L 235.738281 152.597656 C 236.6875 154.484375 238.347656 155.78125 239.53125 157.429688 L 242.261719 163.085938 L 242.492188 162.820312 C 244.15625 161.644531 244.984375 159.757812 244.984375 156.933594 C 244.273438 156.109375 244.15625 155.285156 243.566406 154.460938 C 242.851562 153.28125 241.3125 152.691406 240.359375 151.75 Z M 240.359375 151.746094 "/></g></svg>