<svg xmlns="http://www.w3.org/2000/svg" xmlns:xlink="http://www.w3.org/1999/xlink" width="500" zoomAndPan="magnify" viewBox="0 0 375 374.999991" height="500" preserveAspectRatio="xMidYMid meet" version="1.2"><g id="0a1cab26e4"><path style=" stroke:none;fill-rule:evenodd;fill:#f0a93e;fill-opacity:1;" d="M 193.714844 100.378906 C 260.375 51.867188 354.097656 87.507812 370.488281 167.917969 C 375 190.140625 373.019531 211.699219 364.550781 232.820312 C 336.71875 301.683594 252.785156 323.132812 193.605469 280.34375 C 192.726562 279.792969 191.84375 279.792969 190.964844 280.34375 C 155.214844 304.875 118.253906 309.273438 79.972656 293.652344 C 28.160156 272.421875 0 213.789062 16.058594 159.121094 C 38.390625 82.996094 127.054688 54.945312 190.746094 100.378906 C 191.734375 101.148438 192.726562 101.148438 193.714844 100.378906 Z M 181.066406 269.5625 C 137.503906 225.449219 137.832031 156.699219 181.066406 111.15625 C 181.945312 110.277344 181.835938 109.507812 180.84375 108.847656 C 158.734375 94.546875 136.511719 88.71875 114.183594 91.246094 C 60.171875 97.296875 17.929688 145.148438 24.53125 200.808594 C 30.25 248.773438 67.320312 285.402344 115.613281 289.800781 C 138.273438 291.894531 160.054688 285.84375 180.84375 271.871094 C 181.945312 271.210938 181.945312 270.441406 181.066406 269.5625 Z M 324.070312 113.796875 C 288.648438 84.757812 242.117188 83.21875 203.175781 109.066406 C 202.296875 109.726562 202.183594 110.386719 202.957031 111.269531 C 246.078125 155.050781 247.285156 225.5625 203.066406 269.671875 C 202.183594 270.441406 202.296875 271.210938 203.175781 271.761719 C 221.214844 283.863281 240.027344 290.023438 259.496094 290.132812 C 301.519531 290.460938 338.589844 264.832031 353.660156 225.671875 C 368.949219 185.738281 356.847656 140.640625 324.070312 113.796875 Z M 193.054688 261.753906 C 233.757812 222.039062 232.765625 158.347656 193.273438 119.296875 C 192.503906 118.527344 191.625 118.527344 190.855469 119.40625 C 165.222656 146.46875 156.09375 177.488281 163.464844 212.46875 C 166.984375 229.410156 176.113281 245.800781 190.855469 261.640625 C 191.625 262.410156 192.394531 262.410156 193.054688 261.753906 Z M 193.054688 261.753906 "/><path style=" stroke:none;fill-rule:evenodd;fill:#f0a93e;fill-opacity:1;" d="M 66.441406 208.621094 C 67.210938 208.949219 67.980469 209.0625 68.75 208.839844 C 74.472656 207.742188 77.441406 204.660156 77.660156 199.601562 C 78.101562 188.488281 78.210938 177.269531 77.992188 165.9375 C 77.882812 163.078125 79.203125 161.210938 81.730469 160.109375 C 82.722656 159.667969 83.710938 159.558594 84.703125 159.777344 C 88.441406 160.660156 90.203125 162.96875 90.203125 166.820312 C 90.203125 174.628906 90.3125 182.878906 90.3125 191.679688 C 90.3125 200.921875 89.324219 207.300781 87.121094 210.820312 C 80.191406 222.371094 63.691406 225.121094 53.679688 215.550781 C 49.28125 211.261719 46.972656 206.859375 46.859375 202.460938 C 46.640625 190.46875 46.640625 178.371094 46.75 166.160156 C 46.859375 162.199219 48.839844 160.109375 52.691406 159.667969 C 53.460938 159.558594 54.121094 159.667969 54.78125 160 C 57.640625 161.097656 59.070312 163.300781 59.070312 166.378906 C 59.070312 176.941406 59.070312 187.5 58.960938 198.171875 C 58.960938 203.011719 61.382812 206.53125 66.441406 208.621094 Z M 66.441406 208.621094 "/><path style=" stroke:none;fill-rule:evenodd;fill:#f0a93e;fill-opacity:1;" d="M 118.914062 176.828125 L 127.492188 163.1875 C 129.582031 159.890625 132.445312 159.007812 136.074219 160.4375 C 136.84375 160.769531 137.613281 161.320312 138.382812 162.089844 C 140.035156 163.847656 140.363281 166.488281 139.042969 168.578125 L 126.0625 189.148438 C 125.511719 189.921875 125.511719 190.800781 126.0625 191.789062 L 138.824219 211.921875 C 139.375 212.910156 139.703125 214.011719 139.703125 215.109375 C 139.703125 217.53125 138.382812 219.621094 136.183594 220.609375 L 135.414062 220.941406 C 132.773438 222.152344 129.695312 221.269531 128.152344 218.851562 L 118.691406 203.671875 C 118.472656 203.339844 118.144531 203.121094 117.703125 203.121094 C 117.261719 203.121094 116.933594 203.339844 116.714844 203.671875 L 107.691406 218.082031 C 106.152344 220.832031 102.523438 221.929688 99.550781 220.5 L 97.242188 219.289062 C 95.8125 218.628906 94.933594 217.3125 94.933594 215.769531 C 94.933594 215 95.152344 214.339844 95.59375 213.679688 L 109.34375 192.011719 C 109.894531 191.128906 109.894531 189.921875 109.34375 188.929688 L 96.140625 168.25 C 95.042969 166.488281 95.152344 164.070312 96.582031 162.53125 C 97.351562 161.648438 98.121094 160.988281 99.003906 160.550781 C 102.742188 158.789062 105.601562 159.558594 107.804688 162.96875 L 116.601562 176.828125 C 117.375 178.039062 118.144531 178.039062 118.914062 176.828125 Z M 118.914062 176.828125 "/><path style=" stroke:none;fill-rule:evenodd;fill:#f0a93e;fill-opacity:1;" d="M 273.90625 208.839844 C 274.789062 208.949219 275.558594 208.839844 276.328125 208.511719 C 280.949219 206.640625 283.257812 204.109375 283.257812 201.25 C 283.585938 188.929688 283.699219 177.269531 283.585938 166.269531 C 283.585938 162.308594 285.566406 160.21875 289.417969 159.777344 C 289.96875 159.667969 290.519531 159.777344 290.957031 159.777344 C 294.476562 160.328125 296.128906 162.417969 296.019531 165.828125 C 295.6875 174.300781 295.796875 183.320312 296.128906 192.890625 C 296.457031 200.699219 295.359375 206.75 292.609375 211.039062 C 284.027344 225.011719 264.007812 224.679688 255.425781 210.269531 C 253.226562 206.640625 252.125 200.261719 252.238281 191.128906 C 252.238281 183.648438 252.238281 175.730469 252.347656 167.480469 C 252.347656 163.738281 254.105469 161.097656 257.625 159.777344 C 258.617188 159.339844 259.605469 159.449219 260.816406 160 C 263.347656 161.097656 264.558594 162.96875 264.558594 165.71875 C 264.445312 177.160156 264.558594 188.488281 264.996094 199.710938 C 265.21875 204.769531 268.1875 207.851562 273.90625 208.839844 Z M 273.90625 208.839844 "/><path style=" stroke:none;fill-rule:evenodd;fill:#f0a93e;fill-opacity:1;" d="M 322.089844 173.53125 L 322.089844 207.519531 C 322.089844 208.621094 322.636719 209.171875 323.847656 209.0625 C 328.359375 208.621094 330.558594 210.820312 330.449219 215.769531 C 330.339844 218.960938 327.808594 221.382812 324.730469 221.382812 L 307.019531 221.382812 C 305.039062 221.382812 303.058594 220.28125 302.066406 218.410156 C 299.097656 212.910156 302.726562 209.0625 308.339844 208.839844 C 309.21875 208.730469 309.660156 208.289062 309.660156 207.410156 L 309.660156 173.53125 C 309.660156 172.320312 309.109375 171.878906 308.007812 171.878906 C 303.5 172.320312 301.1875 170.121094 301.1875 165.390625 C 301.296875 162.089844 303.9375 159.558594 307.128906 159.558594 L 324.398438 159.558594 C 327.699219 159.558594 330.449219 162.308594 330.449219 165.71875 C 330.449219 165.9375 330.449219 166.160156 330.449219 166.378906 C 330.007812 170.230469 327.808594 171.988281 323.847656 171.769531 C 322.636719 171.769531 322.089844 172.320312 322.089844 173.53125 Z M 322.089844 173.53125 "/></g></svg>